<svg version="1.1" id="Layer_1" xmlns="http://www.w3.org/2000/svg" xmlns:xlink="http://www.w3.org/1999/xlink" x="0px" y="0px"
	 width="100%" viewBox="0 0 512 512" enable-background="new 0 0 512 512" xml:space="preserve">
<path fill="#000000" opacity="1.000000" stroke="none" 
	d="
M289.000000,513.000000 
	C192.690048,513.000000 96.880096,513.000000 1.035069,513.000000 
	C1.035069,342.398346 1.035069,171.796707 1.035069,1.097524 
	C171.559967,1.097524 342.120026,1.097524 512.840027,1.097524 
	C512.840027,171.666550 512.840027,342.333252 512.840027,513.000000 
	C438.463348,513.000000 363.981659,513.000000 289.000000,513.000000 
M482.908173,360.842316 
	C487.502808,355.732941 489.041168,349.666382 489.036255,342.902161 
	C488.979492,264.934540 489.000549,186.966919 488.999786,108.999275 
	C488.999603,90.161118 479.916321,81.000366 461.235443,81.000259 
	C325.125275,80.999481 189.015091,80.999657 52.904919,81.001709 
	C51.072578,81.001732 49.225574,80.886337 47.410633,81.071732 
	C41.827686,81.642021 36.687416,83.274391 32.216183,88.004295 
	C26.837994,93.203590 24.957664,99.641678 24.963203,106.991684 
	C25.022102,185.148376 24.998535,263.305115 25.000395,341.461853 
	C25.000832,359.763428 34.311993,368.999695 52.756710,368.999817 
	C188.906067,369.000763 325.055450,369.000427 461.204803,368.999084 
	C462.871124,368.999054 464.547180,369.092865 466.202087,368.950287 
	C472.548767,368.403625 478.199890,366.355225 482.908173,360.842316 
M193.500061,433.000336 
	C243.255280,433.000336 293.010498,433.000336 342.698334,433.000336 
	C342.832428,432.247040 343.003998,431.896393 342.921661,431.621857 
	C342.733185,430.993317 342.475861,430.370514 342.150238,429.800323 
	C337.256042,421.230103 329.820801,417.014343 319.995453,417.006775 
	C296.340546,416.988556 272.685638,416.999512 249.030716,416.999847 
	C230.539902,417.000122 212.048767,416.934875 193.558426,417.028900 
	C182.629791,417.084473 173.463165,423.556213 171.083008,433.000336 
	C178.300339,433.000336 185.400238,433.000336 193.500061,433.000336 
M267.499878,385.000000 
	C253.420441,385.000000 239.340988,385.000000 225.311310,385.000000 
	C225.311310,390.719055 225.311310,395.640930 225.311310,400.604248 
	C246.659866,400.604248 267.694702,400.604248 288.688782,400.604248 
	C288.688782,395.281067 288.688782,390.359192 288.688782,385.000000 
	C281.756714,385.000000 275.128265,385.000000 267.499878,385.000000 
z"/>
<path fill="#AAB1B7" opacity="1.000000" stroke="none" 
	d="
M32.840561,87.701195 
	C36.687416,83.274391 41.827686,81.642021 47.410633,81.071732 
	C49.225574,80.886337 51.072578,81.001732 52.904919,81.001709 
	C189.015091,80.999657 325.125275,80.999481 461.235443,81.000259 
	C479.916321,81.000366 488.999603,90.161118 488.999786,108.999275 
	C489.000549,186.966919 488.979492,264.934540 489.036255,342.902161 
	C489.041168,349.666382 487.502808,355.732941 482.126221,360.958710 
	C479.512665,361.050293 477.681061,361.003754 475.849487,361.003693 
	C339.609711,361.000183 203.369904,361.009125 67.130142,360.952759 
	C63.507725,360.951263 59.598251,360.974030 56.332855,359.688965 
	C51.797058,357.903961 46.137424,357.217590 44.503929,351.663513 
	C47.149609,352.232330 49.414528,352.953674 51.679726,352.954559 
	C188.631287,353.008148 325.582855,353.004883 462.534424,352.996490 
	C470.349426,352.996002 472.995575,350.333374 472.996552,342.476471 
	C473.006348,264.170837 473.006134,185.865189 472.996979,107.559540 
	C472.996063,99.665947 470.373749,97.004021 462.579285,97.003540 
	C325.461121,96.995132 188.342941,96.994675 51.224770,97.005051 
	C43.710960,97.005615 41.006283,99.717049 41.005096,107.244728 
	C40.992702,185.716980 40.983963,264.189209 41.060940,342.661407 
	C41.063297,345.066132 42.006493,347.469971 42.140488,349.863892 
	C34.685699,344.300690 33.063675,336.400391 33.053837,328.150665 
	C32.962238,251.331848 33.001472,174.512863 32.992668,97.693939 
	C32.992287,94.363014 32.893505,91.032112 32.840561,87.701195 
z"/>
<path fill="#91989D" opacity="1.000000" stroke="none" 
	d="
M32.528374,87.852745 
	C32.893505,91.032112 32.992287,94.363014 32.992668,97.693939 
	C33.001472,174.512863 32.962238,251.331848 33.053837,328.150665 
	C33.063675,336.400391 34.685699,344.300690 42.354313,349.958954 
	C43.333576,350.536163 43.728447,351.007965 44.123314,351.479797 
	C46.137424,357.217590 51.797058,357.903961 56.332855,359.688965 
	C59.598251,360.974030 63.507725,360.951263 67.130142,360.952759 
	C203.369904,361.009125 339.609711,361.000183 475.849487,361.003693 
	C477.681061,361.003754 479.512665,361.050293 481.832703,361.122498 
	C478.199890,366.355225 472.548767,368.403625 466.202087,368.950287 
	C464.547180,369.092865 462.871124,368.999054 461.204803,368.999084 
	C325.055450,369.000427 188.906067,369.000763 52.756710,368.999817 
	C34.311993,368.999695 25.000832,359.763428 25.000395,341.461853 
	C24.998535,263.305115 25.022102,185.148376 24.963203,106.991684 
	C24.957664,99.641678 26.837994,93.203590 32.528374,87.852745 
z"/>
<path fill="#91989D" opacity="1.000000" stroke="none" 
	d="
M193.000092,433.000336 
	C185.400238,433.000336 178.300339,433.000336 171.083008,433.000336 
	C173.463165,423.556213 182.629791,417.084473 193.558426,417.028900 
	C212.048767,416.934875 230.539902,417.000122 249.030716,416.999847 
	C272.685638,416.999512 296.340546,416.988556 319.995453,417.006775 
	C329.820801,417.014343 337.256042,421.230103 342.150238,429.800323 
	C342.475861,430.370514 342.733185,430.993317 342.921661,431.621857 
	C343.003998,431.896393 342.832428,432.247040 342.698334,433.000336 
	C293.010498,433.000336 243.255280,433.000336 193.000092,433.000336 
z"/>
<path fill="#69737A" opacity="1.000000" stroke="none" 
	d="
M267.999847,385.000000 
	C275.128265,385.000000 281.756714,385.000000 288.688782,385.000000 
	C288.688782,390.359192 288.688782,395.281067 288.688782,400.604248 
	C267.694702,400.604248 246.659866,400.604248 225.311310,400.604248 
	C225.311310,395.640930 225.311310,390.719055 225.311310,385.000000 
	C239.340988,385.000000 253.420441,385.000000 267.999847,385.000000 
z"/>
<path fill="#010101" opacity="1.000000" stroke="none" 
	d="
M44.503937,351.663513 
	C43.728447,351.007965 43.333576,350.536163 42.724876,349.969299 
	C42.006493,347.469971 41.063297,345.066132 41.060940,342.661407 
	C40.983963,264.189209 40.992702,185.716980 41.005096,107.244728 
	C41.006283,99.717049 43.710960,97.005615 51.224770,97.005051 
	C188.342941,96.994675 325.461121,96.995132 462.579285,97.003540 
	C470.373749,97.004021 472.996063,99.665947 472.996979,107.559540 
	C473.006134,185.865189 473.006348,264.170837 472.996552,342.476471 
	C472.995575,350.333374 470.349426,352.996002 462.534424,352.996490 
	C325.582855,353.004883 188.631287,353.008148 51.679726,352.954559 
	C49.414528,352.953674 47.149609,352.232330 44.503937,351.663513 
M324.645142,265.834320 
	C350.678497,243.718948 352.025543,210.348480 327.267029,186.842651 
	C321.089111,180.977295 313.687347,175.992599 306.074982,172.124710 
	C284.941376,161.386551 262.257721,158.793152 238.996841,162.365219 
	C217.057205,165.734375 197.374756,174.113876 182.354645,191.195129 
	C162.205872,214.108795 165.907135,249.531128 190.159439,266.353699 
	C190.314407,266.295990 190.469376,266.238312 190.624344,266.180603 
	C190.396500,266.144165 190.168671,266.107727 190.206177,265.312897 
	C189.883270,264.371979 189.583786,263.422211 189.233994,262.491394 
	C181.222168,241.171173 184.442291,221.487457 198.543243,203.825439 
	C223.333939,172.774139 273.250885,167.774475 304.680359,193.184174 
	C323.152771,208.118484 331.903961,227.290878 327.936981,251.285248 
	C327.109375,256.291168 325.374481,261.147095 323.661377,265.889709 
	C323.604156,266.122253 323.546967,266.354828 323.489746,266.587372 
	C323.654022,266.381287 323.818298,266.175201 324.645142,265.834320 
M80.098999,113.023857 
	C72.496628,113.023857 64.894249,113.023857 57.331306,113.023857 
	C57.331306,187.984344 57.331306,262.371796 57.331306,336.793213 
	C92.102722,336.793213 126.545067,336.793213 161.181229,336.793213 
	C162.110443,331.417297 163.011871,326.202118 164.268600,320.327789 
	C168.182175,306.255646 174.822937,293.579132 184.198059,282.380920 
	C153.496002,260.157013 140.245361,217.152206 169.635925,181.245056 
	C157.134872,169.585388 152.168747,154.956390 152.980591,138.088150 
	C153.275635,131.958084 156.208725,128.890930 162.373581,129.053696 
	C174.363815,129.370285 185.341385,133.001221 194.798035,140.373352 
	C199.873489,144.330017 204.327728,149.083511 209.465683,153.851807 
	C240.908218,141.865280 273.255646,141.925659 305.591919,154.238861 
	C306.895721,152.602386 307.984497,151.149918 309.161041,149.772430 
	C320.361877,136.658737 334.567596,129.641708 351.819397,129.058838 
	C357.690460,128.860474 360.901306,131.994873 360.953522,137.793259 
	C360.992432,142.109726 360.901001,146.464203 360.378204,150.741928 
	C358.886902,162.944748 353.036377,172.989883 344.297424,181.388275 
	C371.115540,213.059494 364.314056,257.008179 330.312469,282.178009 
	C334.226166,288.342682 338.606598,294.244751 341.895264,300.702820 
	C345.191589,307.175842 347.398438,314.203674 350.049683,321.798187 
	C351.007019,326.807953 351.964355,331.817719 352.893372,336.679382 
	C387.719513,336.679382 422.230865,336.679382 456.835754,336.679382 
	C456.835754,331.231293 456.835754,326.100220 456.981964,320.045929 
	C456.981964,251.118713 456.981964,182.191483 456.981964,113.001732 
	C455.112640,113.001732 453.804260,113.001724 452.495880,113.001724 
	C330.003510,113.001724 207.511154,113.001213 85.018799,113.008453 
	C83.689423,113.008537 82.360054,113.110100 80.098999,113.023857 
M219.221481,276.308044 
	C241.965302,293.360870 273.638611,293.283844 295.266388,275.922363 
	C306.269226,267.089935 312.540161,255.721634 312.956055,240.997360 
	C302.363068,240.997360 292.223083,241.051056 282.084045,240.976349 
	C276.408356,240.934540 272.375061,237.425644 273.190125,232.653503 
	C273.622986,230.118866 275.375580,227.459518 277.259552,225.588699 
	C282.828674,220.058411 287.136963,214.002747 288.568909,206.075592 
	C289.116913,203.041840 288.723694,201.269653 285.661987,199.810867 
	C266.360382,190.614395 247.200943,190.719040 227.967636,199.985443 
	C225.344681,201.249176 224.862305,202.847595 225.305817,205.496155 
	C226.661987,213.595047 230.777344,220.021149 236.759293,225.433640 
	C239.872681,228.250641 242.216278,231.415146 240.347488,235.930527 
	C238.510513,240.369034 234.792923,241.086975 230.496887,241.035294 
	C220.711517,240.917542 210.923737,240.998138 201.145767,240.998138 
	C201.158905,254.484238 206.853043,265.667725 219.221481,276.308044 
M205.647156,320.998657 
	C209.266052,320.998657 212.884964,320.998657 217.118011,320.998657 
	C217.118011,326.591461 217.118011,331.642853 217.118011,336.710571 
	C244.001877,336.710571 270.250977,336.710571 297.131714,336.710571 
	C297.131714,331.390137 297.131714,326.337402 297.131714,321.299530 
	C302.692322,321.299530 307.614075,321.299530 313.161011,321.299530 
	C313.161011,326.634979 313.161011,331.688263 313.161011,336.588501 
	C321.191315,336.588501 328.581360,336.588501 336.331787,336.588501 
	C334.889404,320.744507 328.835236,307.344604 319.554810,295.159149 
	C316.994385,291.797241 314.779327,291.451599 310.863708,293.192169 
	C274.607025,309.308655 238.318726,309.240692 202.140381,292.758636 
	C200.829651,292.161530 199.457108,291.700043 198.036270,291.145264 
	C186.318207,304.265228 179.297821,319.055695 177.659546,336.713684 
	C185.682877,336.713684 193.087906,336.713684 200.258575,336.713684 
	C200.594879,336.303253 200.785172,336.179596 200.787918,336.051880 
	C200.870132,332.224945 201.114792,328.389404 200.941727,324.572998 
	C200.809174,321.650024 201.953949,320.624146 205.647156,320.998657 
M188.078262,155.410324 
	C182.744385,150.760788 176.743439,147.467255 169.154037,145.963608 
	C169.983719,156.062332 173.875687,163.926407 181.379776,170.129272 
	C185.646561,167.092361 189.495712,164.352692 193.672531,161.379807 
	C191.732285,159.280670 190.170349,157.590836 188.078262,155.410324 
M322.363464,163.045303 
	C325.777496,165.352814 329.191528,167.660324 332.779358,170.085297 
	C340.050873,163.693497 344.112061,155.982422 344.802734,146.310074 
	C336.441040,147.401077 325.960388,153.539429 321.849976,159.733398 
	C321.394196,160.420258 321.768127,161.657745 322.363464,163.045303 
M307.878601,220.990875 
	C306.481995,218.806488 305.085419,216.622116 303.415039,214.009476 
	C301.760895,217.911133 300.334259,221.276138 298.866486,224.738220 
	C302.579926,224.738220 305.782166,224.738220 309.456390,224.738220 
	C308.919769,223.458481 308.556549,222.592285 307.878601,220.990875 
M211.899704,216.940277 
	C211.485397,216.149384 211.071091,215.358490 210.322784,213.930023 
	C208.157471,217.803360 206.316437,221.096619 204.296585,224.709747 
	C208.482315,224.709747 211.672760,224.709747 215.214890,224.709747 
	C214.055252,222.086899 213.070709,219.860077 211.899704,216.940277 
z"/>
<path fill="#AAD1EF" opacity="1.000000" stroke="none" 
	d="
M350.082794,320.988342 
	C347.398438,314.203674 345.191589,307.175842 341.895264,300.702820 
	C338.606598,294.244751 334.226166,288.342682 330.312469,282.178009 
	C364.314056,257.008179 371.115540,213.059494 344.297424,181.388275 
	C353.036377,172.989883 358.886902,162.944748 360.378204,150.741928 
	C360.901001,146.464203 360.992432,142.109726 360.953522,137.793259 
	C360.901306,131.994873 357.690460,128.860474 351.819397,129.058838 
	C334.567596,129.641708 320.361877,136.658737 309.161041,149.772430 
	C307.984497,151.149918 306.895721,152.602386 305.591919,154.238861 
	C273.255646,141.925659 240.908218,141.865280 209.465683,153.851807 
	C204.327728,149.083511 199.873489,144.330017 194.798035,140.373352 
	C185.341385,133.001221 174.363815,129.370285 162.373581,129.053696 
	C156.208725,128.890930 153.275635,131.958084 152.980591,138.088150 
	C152.168747,154.956390 157.134872,169.585388 169.635925,181.245056 
	C140.245361,217.152206 153.496002,260.157013 184.198059,282.380920 
	C174.822937,293.579132 168.182175,306.255646 163.628021,320.660950 
	C137.504395,320.996399 112.020584,320.898865 86.539070,321.097107 
	C82.180832,321.131042 80.891724,319.990479 80.901711,315.529205 
	C81.052628,248.074463 81.020157,180.619324 81.030678,113.164284 
	C82.360054,113.110100 83.689423,113.008537 85.018799,113.008453 
	C207.511154,113.001213 330.003510,113.001724 452.495880,113.001724 
	C453.804260,113.001724 455.112640,113.001732 456.981964,113.001732 
	C456.981964,182.191483 456.981964,251.118713 456.450867,320.517151 
	C420.640778,320.988342 385.361786,320.988342 350.082794,320.988342 
z"/>
<path fill="#77ADDB" opacity="1.000000" stroke="none" 
	d="
M80.564835,113.094070 
	C81.020157,180.619324 81.052628,248.074463 80.901711,315.529205 
	C80.891724,319.990479 82.180832,321.131042 86.539070,321.097107 
	C112.020584,320.898865 137.504395,320.996399 163.450378,320.990540 
	C163.011871,326.202118 162.110443,331.417297 161.181229,336.793213 
	C126.545067,336.793213 92.102722,336.793213 57.331306,336.793213 
	C57.331306,262.371796 57.331306,187.984344 57.331306,113.023857 
	C64.894249,113.023857 72.496628,113.023857 80.564835,113.094070 
z"/>
<path fill="#FCE0D4" opacity="1.000000" stroke="none" 
	d="
M218.932327,276.098389 
	C206.853043,265.667725 201.158905,254.484238 201.145767,240.998138 
	C210.923737,240.998138 220.711517,240.917542 230.496887,241.035294 
	C234.792923,241.086975 238.510513,240.369034 240.347488,235.930527 
	C242.216278,231.415146 239.872681,228.250641 236.759293,225.433640 
	C230.777344,220.021149 226.661987,213.595047 225.305817,205.496155 
	C224.862305,202.847595 225.344681,201.249176 227.967636,199.985443 
	C247.200943,190.719040 266.360382,190.614395 285.661987,199.810867 
	C288.723694,201.269653 289.116913,203.041840 288.568909,206.075592 
	C287.136963,214.002747 282.828674,220.058411 277.259552,225.588699 
	C275.375580,227.459518 273.622986,230.118866 273.190125,232.653503 
	C272.375061,237.425644 276.408356,240.934540 282.084045,240.976349 
	C292.223083,241.051056 302.363068,240.997360 312.956055,240.997360 
	C312.540161,255.721634 306.269226,267.089935 295.266388,275.922363 
	C273.638611,293.283844 241.965302,293.360870 218.932327,276.098389 
M262.844360,262.265106 
	C256.197571,267.042511 251.929321,265.512787 248.672012,257.176697 
	C243.556854,257.176697 238.441696,257.176697 233.358093,257.176697 
	C231.805054,267.032593 241.975143,281.078430 256.718994,281.029358 
	C270.218018,280.984436 281.204498,270.280792 280.717957,257.192200 
	C275.615692,257.192200 270.502899,257.192200 265.417664,257.192200 
	C264.717438,258.669128 264.015625,260.149475 262.844360,262.265106 
z"/>
<path fill="#AF3A3C" opacity="1.000000" stroke="none" 
	d="
M205.172791,320.999084 
	C201.953949,320.624146 200.809174,321.650024 200.941727,324.572998 
	C201.114792,328.389404 200.870132,332.224945 200.787918,336.051880 
	C200.785172,336.179596 200.594879,336.303253 200.258575,336.713684 
	C193.087906,336.713684 185.682877,336.713684 177.659546,336.713684 
	C179.297821,319.055695 186.318207,304.265228 198.036270,291.145264 
	C199.457108,291.700043 200.829651,292.161530 202.140381,292.758636 
	C238.318726,309.240692 274.607025,309.308655 310.863708,293.192169 
	C314.779327,291.451599 316.994385,291.797241 319.554810,295.159149 
	C328.835236,307.344604 334.889404,320.744507 336.331787,336.588501 
	C328.581360,336.588501 321.191315,336.588501 313.161011,336.588501 
	C313.161011,331.688263 313.161011,326.634979 313.161011,321.299530 
	C307.614075,321.299530 302.692322,321.299530 297.131714,321.299530 
	C297.131714,326.337402 297.131714,331.390137 297.131714,336.710571 
	C270.250977,336.710571 244.001877,336.710571 217.118011,336.710571 
	C217.118011,331.642853 217.118011,326.591461 217.118011,320.998657 
	C212.884964,320.998657 209.266052,320.998657 205.172791,320.999084 
z"/>
<path fill="#D94949" opacity="1.000000" stroke="none" 
	d="
M190.012939,265.971771 
	C165.907135,249.531128 162.205872,214.108795 182.354645,191.195129 
	C197.374756,174.113876 217.057205,165.734375 238.996841,162.365219 
	C262.257721,158.793152 284.941376,161.386551 306.074982,172.124710 
	C313.687347,175.992599 321.089111,180.977295 327.267029,186.842651 
	C352.025543,210.348480 350.678497,243.718948 324.332520,265.927551 
	C324.019928,266.020782 324.057709,266.072144 324.057709,266.072144 
	C325.374481,261.147095 327.109375,256.291168 327.936981,251.285248 
	C331.903961,227.290878 323.152771,208.118484 304.680359,193.184174 
	C273.250885,167.774475 223.333939,172.774139 198.543243,203.825439 
	C184.442291,221.487457 181.222168,241.171173 189.233994,262.491394 
	C189.583786,263.422211 189.883270,264.371979 190.091934,265.667511 
	C189.977692,266.022125 190.012939,265.971771 190.012939,265.971771 
z"/>
<path fill="#77ADDB" opacity="1.000000" stroke="none" 
	d="
M350.066223,321.393250 
	C385.361786,320.988342 420.640778,320.988342 456.377747,320.978760 
	C456.835754,326.100220 456.835754,331.231293 456.835754,336.679382 
	C422.230865,336.679382 387.719513,336.679382 352.893372,336.679382 
	C351.964355,331.817719 351.007019,326.807953 350.066223,321.393250 
z"/>
<path fill="#AB383A" opacity="1.000000" stroke="none" 
	d="
M188.343338,155.655655 
	C190.170349,157.590836 191.732285,159.280670 193.672531,161.379807 
	C189.495712,164.352692 185.646561,167.092361 181.379776,170.129272 
	C173.875687,163.926407 169.983719,156.062332 169.154037,145.963608 
	C176.743439,147.467255 182.744385,150.760788 188.343338,155.655655 
z"/>
<path fill="#AB383A" opacity="1.000000" stroke="none" 
	d="
M322.060364,162.842590 
	C321.768127,161.657745 321.394196,160.420258 321.849976,159.733398 
	C325.960388,153.539429 336.441040,147.401077 344.802734,146.310074 
	C344.112061,155.982422 340.050873,163.693497 332.779358,170.085297 
	C329.191528,167.660324 325.777496,165.352814 322.060364,162.842590 
z"/>
<path fill="#EDCB51" opacity="1.000000" stroke="none" 
	d="
M308.035980,221.358475 
	C308.556549,222.592285 308.919769,223.458481 309.456390,224.738220 
	C305.782166,224.738220 302.579926,224.738220 298.866486,224.738220 
	C300.334259,221.276138 301.760895,217.911133 303.415039,214.009476 
	C305.085419,216.622116 306.481995,218.806488 308.035980,221.358475 
z"/>
<path fill="#EDCB51" opacity="1.000000" stroke="none" 
	d="
M211.992950,217.286774 
	C213.070709,219.860077 214.055252,222.086899 215.214890,224.709747 
	C211.672760,224.709747 208.482315,224.709747 204.296585,224.709747 
	C206.316437,221.096619 208.157471,217.803360 210.322784,213.930023 
	C211.071091,215.358490 211.485397,216.149384 211.992950,217.286774 
z"/>
<path fill="#D94949" opacity="1.000000" stroke="none" 
	d="
M189.959259,266.046692 
	C190.168671,266.107727 190.396500,266.144165 190.624344,266.180603 
	C190.469376,266.238312 190.314407,266.295990 190.086182,266.162720 
	C190.012939,265.971771 189.977692,266.022125 189.959259,266.046692 
z"/>
<path fill="#D94949" opacity="1.000000" stroke="none" 
	d="
M324.001221,265.994934 
	C323.818298,266.175201 323.654022,266.381287 323.489746,266.587372 
	C323.546967,266.354828 323.604156,266.122253 323.859558,265.980927 
	C324.057709,266.072144 324.019928,266.020782 324.001221,265.994934 
z"/>
<path fill="#060303" opacity="1.000000" stroke="none" 
	d="
M263.079071,261.947449 
	C264.015625,260.149475 264.717438,258.669128 265.417664,257.192200 
	C270.502899,257.192200 275.615692,257.192200 280.717957,257.192200 
	C281.204498,270.280792 270.218018,280.984436 256.718994,281.029358 
	C241.975143,281.078430 231.805054,267.032593 233.358093,257.176697 
	C238.441696,257.176697 243.556854,257.176697 248.672714,257.181519 
	C251.929321,265.512787 256.197571,267.042511 263.079071,261.947449 
z"/>
</svg>