<svg version="1.1" id="Layer_1" xmlns="http://www.w3.org/2000/svg" xmlns:xlink="http://www.w3.org/1999/xlink" x="0px" y="0px"
	 width="100%" viewBox="0 0 512 512" enable-background="new 0 0 512 512" xml:space="preserve">
<path fill="#000000" opacity="1.000000" stroke="none" 
	d="
M513.000000,185.000000 
	C513.000000,294.640015 513.000000,403.780029 513.000000,512.960022 
	C342.401642,512.960022 171.803268,512.960022 1.102453,512.960022 
	C1.102453,342.443359 1.102453,171.886612 1.102453,1.164938 
	C171.666534,1.164938 342.333252,1.164938 513.000000,1.164938 
	C513.000000,62.196690 513.000000,123.348343 513.000000,185.000000 
M184.999313,347.532471 
	C185.206375,335.448425 183.268524,337.335144 195.093521,336.919403 
	C199.571060,336.761932 201.177750,338.002899 201.105911,342.740570 
	C200.840591,360.234772 200.845596,377.737671 201.103333,395.232056 
	C201.172455,399.924286 199.632690,401.142975 195.122345,401.092255 
	C175.960098,400.876709 156.793945,400.978699 137.629333,401.014526 
	C131.031433,401.026855 129.053711,403.053711 129.010788,409.698608 
	C128.967743,416.364319 128.874527,423.033875 129.056335,429.694855 
	C129.133240,432.512299 127.874390,433.596130 125.518181,434.835419 
	C121.032478,437.194763 115.916580,439.376190 112.769470,443.081451 
	C100.028694,458.081726 102.035110,482.404572 120.603409,493.083893 
	C132.386520,499.860809 149.796204,498.800995 159.936142,488.339600 
	C174.983337,472.815369 171.996368,445.762207 152.352356,436.645752 
	C145.155167,433.305664 144.351135,429.207184 144.997375,422.990448 
	C145.014511,422.825562 145.022400,422.653778 144.996628,422.491211 
	C144.281677,417.980774 146.367889,416.867188 150.652969,416.912872 
	C169.482208,417.113708 188.314835,417.006439 207.146225,416.995758 
	C215.456085,416.991058 216.992676,415.442047 216.996277,407.072449 
	C217.005585,385.408020 217.080704,363.742981 216.926773,342.079651 
	C216.898895,338.155609 218.107620,336.786194 222.066666,336.926483 
	C229.390060,337.185883 236.733002,337.140320 244.060150,336.940948 
	C247.631866,336.843781 249.089294,337.869812 249.067474,341.705414 
	C248.930878,365.702148 248.955521,389.700256 249.054367,413.697357 
	C249.065948,416.507843 247.872208,417.596680 245.517075,418.835754 
	C241.031647,421.195770 235.959900,423.396484 232.760681,427.078766 
	C219.743195,442.061859 222.722351,467.521637 240.513214,477.125488 
	C252.612457,483.656860 270.305206,482.520935 280.238861,472.008118 
	C295.954651,455.376007 290.895660,426.058624 267.974792,418.327393 
	C266.652039,417.881195 265.139832,415.514191 265.129150,414.030945 
	C264.953674,389.701416 265.037537,365.370117 264.966431,341.039520 
	C264.957550,337.998627 266.128448,336.918518 269.104584,336.966614 
	C276.435211,337.085114 283.779022,337.231598 291.097961,336.914459 
	C295.586609,336.719940 297.156891,338.019714 297.104645,342.745728 
	C296.867096,364.240875 296.993683,385.740143 297.004700,407.237915 
	C297.008820,415.250305 298.705139,416.987061 306.551666,416.994232 
	C323.383270,417.009644 340.214874,416.999237 357.046478,416.999329 
	C369.239349,416.999390 369.121857,416.998932 369.079254,429.188141 
	C369.068085,432.386963 368.006500,433.891052 365.011444,434.926788 
	C348.760437,440.546722 342.313141,457.369965 345.680481,473.432739 
	C348.600220,487.360382 363.968079,497.586945 377.315033,497.302307 
	C390.642395,497.018097 403.809509,488.278534 407.589600,475.675018 
	C412.480591,459.367737 406.493286,441.021301 388.339996,434.697906 
	C385.615326,433.748810 384.893280,432.172852 384.954651,429.497589 
	C385.099792,423.168243 385.013245,416.833252 384.995392,410.500610 
	C384.973755,402.818573 383.226166,401.015533 375.686859,401.007538 
	C357.355408,400.988068 339.023956,401.001740 320.692505,401.000275 
	C313.003906,400.999664 313.000916,400.997589 312.999908,393.549957 
	C312.997864,378.384857 312.891968,363.218719 313.032349,348.054932 
	C313.150665,335.272308 310.843414,337.338593 324.084381,336.921692 
	C328.272552,336.789856 329.120575,338.531158 329.059998,342.230621 
	C328.888214,352.726746 328.999054,363.227478 329.001221,373.726410 
	C329.003296,383.768860 330.204346,384.997803 340.039825,384.998505 
	C369.370148,385.000610 398.700745,385.060638 428.030457,384.924835 
	C431.867828,384.907104 433.790863,385.810181 435.302979,389.739960 
	C436.915924,393.931793 439.618835,398.148621 442.929474,401.165466 
	C456.753906,413.763336 483.439362,412.277252 493.494659,392.835449 
	C499.875610,380.497894 498.522705,363.516083 487.545044,353.189911 
	C472.262817,338.814636 442.517822,342.434265 434.471313,365.680603 
	C433.966766,367.138214 431.479675,368.845490 429.903473,368.856934 
	C403.074310,369.051666 376.243134,368.944305 349.413025,369.057526 
	C345.760284,369.072968 344.883789,367.558777 344.952057,364.268585 
	C345.107605,356.772552 345.106323,349.268982 344.951874,341.772919 
	C344.885071,338.531616 345.709808,337.192047 349.332947,336.856293 
	C360.367676,335.833649 368.943024,325.885590 368.993744,314.686829 
	C369.021667,308.520905 368.996643,302.354797 369.000000,296.188751 
	C369.003906,289.008850 369.006042,289.002533 375.953888,289.000610 
	C391.118988,288.996460 406.284637,289.066437 421.448853,288.952362 
	C425.243103,288.923828 429.105133,288.666351 432.812897,287.910400 
	C454.002930,283.590118 470.648987,272.304901 483.159576,254.721222 
	C496.041504,236.615524 499.278870,216.435120 496.026886,194.927551 
	C492.737885,173.174988 481.161896,156.387695 463.770203,143.544250 
	C448.619232,132.355530 431.414734,127.928909 412.569855,128.884064 
	C403.206207,129.358658 405.014221,130.424988 402.006775,121.430290 
	C392.590210,93.267212 376.521851,69.686592 353.479614,50.956257 
	C317.080536,21.368542 275.349945,11.279744 229.579712,19.160774 
	C185.389603,26.769733 151.514023,50.809288 127.638115,88.491966 
	C123.357399,95.248108 119.212212,97.530281 111.537285,97.162910 
	C88.116547,96.041832 67.623589,104.579109 50.236397,119.529694 
	C24.245415,141.878342 13.651043,171.104370 17.259796,204.850098 
	C20.088142,231.298187 32.743404,253.044724 53.934277,269.364136 
	C70.911934,282.438904 90.056953,289.548523 111.772408,289.035431 
	C120.933014,288.818970 130.112778,289.251434 139.264709,288.896088 
	C144.027725,288.711121 145.307465,290.447083 145.081436,294.915833 
	C144.761963,301.232361 144.992126,307.577118 145.002625,313.909790 
	C145.023193,326.321472 153.006409,335.486542 165.395920,336.918304 
	C168.271790,337.250671 169.047745,338.397583 169.022247,341.003204 
	C168.943939,349.001617 168.908966,357.002594 169.035522,364.999756 
	C169.084351,368.084442 167.788010,369.037231 164.856064,369.030548 
	C137.858994,368.969025 110.861420,369.041748 83.865364,368.866272 
	C82.403419,368.856750 80.210693,367.303772 79.612328,365.924988 
	C73.176620,351.095520 64.131256,345.064636 48.026501,344.983093 
	C26.068741,344.871979 12.753891,364.553375 17.867838,386.023041 
	C21.257133,400.252197 35.021896,409.323517 49.311455,409.251526 
	C61.704273,409.189087 74.638451,401.159393 78.691162,390.020813 
	C80.190933,385.898804 82.169624,384.899597 86.206657,384.919678 
	C115.869537,385.067169 145.533493,385.004669 175.197098,384.995483 
	C183.461777,384.992889 184.987305,383.428680 184.996979,375.021576 
	C185.007141,366.189148 184.999283,357.356720 184.999313,347.532471 
z"/>
<path fill="#00074E" opacity="1.000000" stroke="none" 
	d="
M184.999298,348.028381 
	C184.999283,357.356720 185.007141,366.189148 184.996979,375.021576 
	C184.987305,383.428680 183.461777,384.992889 175.197098,384.995483 
	C145.533493,385.004669 115.869537,385.067169 86.206657,384.919678 
	C82.169624,384.899597 80.190933,385.898804 78.691162,390.020813 
	C74.638451,401.159393 61.704273,409.189087 49.311455,409.251526 
	C35.021896,409.323517 21.257133,400.252197 17.867838,386.023041 
	C12.753891,364.553375 26.068741,344.871979 48.026501,344.983093 
	C64.131256,345.064636 73.176620,351.095520 79.612328,365.924988 
	C80.210693,367.303772 82.403419,368.856750 83.865364,368.866272 
	C110.861420,369.041748 137.858994,368.969025 164.856064,369.030548 
	C167.788010,369.037231 169.084351,368.084442 169.035522,364.999756 
	C168.908966,357.002594 168.943939,349.001617 169.022247,341.003204 
	C169.047745,338.397583 168.271790,337.250671 165.395920,336.918304 
	C153.006409,335.486542 145.023193,326.321472 145.002625,313.909790 
	C144.992126,307.577118 144.761963,301.232361 145.081436,294.915833 
	C145.307465,290.447083 144.027725,288.711121 139.264709,288.896088 
	C130.112778,289.251434 120.933014,288.818970 111.772408,289.035431 
	C90.056953,289.548523 70.911934,282.438904 53.934277,269.364136 
	C32.743404,253.044724 20.088142,231.298187 17.259796,204.850098 
	C13.651043,171.104370 24.245415,141.878342 50.236397,119.529694 
	C67.623589,104.579109 88.116547,96.041832 111.537285,97.162910 
	C119.212212,97.530281 123.357399,95.248108 127.638115,88.491966 
	C151.514023,50.809288 185.389603,26.769733 229.579712,19.160774 
	C275.349945,11.279744 317.080536,21.368542 353.479614,50.956257 
	C376.521851,69.686592 392.590210,93.267212 402.006775,121.430290 
	C405.014221,130.424988 403.206207,129.358658 412.569855,128.884064 
	C431.414734,127.928909 448.619232,132.355530 463.770203,143.544250 
	C481.161896,156.387695 492.737885,173.174988 496.026886,194.927551 
	C499.278870,216.435120 496.041504,236.615524 483.159576,254.721222 
	C470.648987,272.304901 454.002930,283.590118 432.812897,287.910400 
	C429.105133,288.666351 425.243103,288.923828 421.448853,288.952362 
	C406.284637,289.066437 391.118988,288.996460 375.953888,289.000610 
	C369.006042,289.002533 369.003906,289.008850 369.000000,296.188751 
	C368.996643,302.354797 369.021667,308.520905 368.993744,314.686829 
	C368.943024,325.885590 360.367676,335.833649 349.332947,336.856293 
	C345.709808,337.192047 344.885071,338.531616 344.951874,341.772919 
	C345.106323,349.268982 345.107605,356.772552 344.952057,364.268585 
	C344.883789,367.558777 345.760284,369.072968 349.413025,369.057526 
	C376.243134,368.944305 403.074310,369.051666 429.903473,368.856934 
	C431.479675,368.845490 433.966766,367.138214 434.471313,365.680603 
	C442.517822,342.434265 472.262817,338.814636 487.545044,353.189911 
	C498.522705,363.516083 499.875610,380.497894 493.494659,392.835449 
	C483.439362,412.277252 456.753906,413.763336 442.929474,401.165466 
	C439.618835,398.148621 436.915924,393.931793 435.302979,389.739960 
	C433.790863,385.810181 431.867828,384.907104 428.030457,384.924835 
	C398.700745,385.060638 369.370148,385.000610 340.039825,384.998505 
	C330.204346,384.997803 329.003296,383.768860 329.001221,373.726410 
	C328.999054,363.227478 328.888214,352.726746 329.059998,342.230621 
	C329.120575,338.531158 328.272552,336.789856 324.084381,336.921692 
	C310.843414,337.338593 313.150665,335.272308 313.032349,348.054932 
	C312.891968,363.218719 312.997864,378.384857 312.999908,393.549957 
	C313.000916,400.997589 313.003906,400.999664 320.692505,401.000275 
	C339.023956,401.001740 357.355408,400.988068 375.686859,401.007538 
	C383.226166,401.015533 384.973755,402.818573 384.995392,410.500610 
	C385.013245,416.833252 385.099792,423.168243 384.954651,429.497589 
	C384.893280,432.172852 385.615326,433.748810 388.339996,434.697906 
	C406.493286,441.021301 412.480591,459.367737 407.589600,475.675018 
	C403.809509,488.278534 390.642395,497.018097 377.315033,497.302307 
	C363.968079,497.586945 348.600220,487.360382 345.680481,473.432739 
	C342.313141,457.369965 348.760437,440.546722 365.011444,434.926788 
	C368.006500,433.891052 369.068085,432.386963 369.079254,429.188141 
	C369.121857,416.998932 369.239349,416.999390 357.046478,416.999329 
	C340.214874,416.999237 323.383270,417.009644 306.551666,416.994232 
	C298.705139,416.987061 297.008820,415.250305 297.004700,407.237915 
	C296.993683,385.740143 296.867096,364.240875 297.104645,342.745728 
	C297.156891,338.019714 295.586609,336.719940 291.097961,336.914459 
	C283.779022,337.231598 276.435211,337.085114 269.104584,336.966614 
	C266.128448,336.918518 264.957550,337.998627 264.966431,341.039520 
	C265.037537,365.370117 264.953674,389.701416 265.129150,414.030945 
	C265.139832,415.514191 266.652039,417.881195 267.974792,418.327393 
	C290.895660,426.058624 295.954651,455.376007 280.238861,472.008118 
	C270.305206,482.520935 252.612457,483.656860 240.513214,477.125488 
	C222.722351,467.521637 219.743195,442.061859 232.760681,427.078766 
	C235.959900,423.396484 241.031647,421.195770 245.517075,418.835754 
	C247.872208,417.596680 249.065948,416.507843 249.054367,413.697357 
	C248.955521,389.700256 248.930878,365.702148 249.067474,341.705414 
	C249.089294,337.869812 247.631866,336.843781 244.060150,336.940948 
	C236.733002,337.140320 229.390060,337.185883 222.066666,336.926483 
	C218.107620,336.786194 216.898895,338.155609 216.926773,342.079651 
	C217.080704,363.742981 217.005585,385.408020 216.996277,407.072449 
	C216.992676,415.442047 215.456085,416.991058 207.146225,416.995758 
	C188.314835,417.006439 169.482208,417.113708 150.652969,416.912872 
	C146.367889,416.867188 144.281677,417.980774 144.996628,422.491211 
	C145.022400,422.653778 145.014511,422.825562 144.997375,422.990448 
	C144.351135,429.207184 145.155167,433.305664 152.352356,436.645752 
	C171.996368,445.762207 174.983337,472.815369 159.936142,488.339600 
	C149.796204,498.800995 132.386520,499.860809 120.603409,493.083893 
	C102.035110,482.404572 100.028694,458.081726 112.769470,443.081451 
	C115.916580,439.376190 121.032478,437.194763 125.518181,434.835419 
	C127.874390,433.596130 129.133240,432.512299 129.056335,429.694855 
	C128.874527,423.033875 128.967743,416.364319 129.010788,409.698608 
	C129.053711,403.053711 131.031433,401.026855 137.629333,401.014526 
	C156.793945,400.978699 175.960098,400.876709 195.122345,401.092255 
	C199.632690,401.142975 201.172455,399.924286 201.103333,395.232056 
	C200.845596,377.737671 200.840591,360.234772 201.105911,342.740570 
	C201.177750,338.002899 199.571060,336.761932 195.093521,336.919403 
	C183.268524,337.335144 185.206375,335.448425 184.999298,348.028381 
M210.033295,273.019440 
	C196.744720,273.013123 183.455917,272.956940 170.167694,273.023102 
	C164.192230,273.052856 161.099335,275.984680 161.035004,281.764191 
	C160.922241,291.895508 160.930054,302.029694 161.031097,312.161255 
	C161.087128,317.780121 164.082733,320.925323 169.605026,320.953156 
	C183.387436,321.022583 197.170883,320.887604 211.887024,320.980591 
	C255.510986,320.987000 299.134949,321.002350 342.758911,320.991241 
	C350.253113,320.989319 352.966675,318.253296 352.992188,310.756775 
	C353.023865,301.432678 353.037140,292.108185 352.987183,282.784241 
	C352.950348,275.911041 350.119537,273.047302 343.310028,273.013763 
	C332.987030,272.962921 322.663605,272.987457 312.340393,273.002380 
	C278.543945,273.051300 244.747482,273.110321 210.033295,273.019440 
M211.887024,256.980591 
	C255.511002,256.987000 299.134979,257.002350 342.758942,256.991241 
	C350.253052,256.989319 352.966705,254.253265 352.992188,246.756760 
	C353.023865,237.432648 353.037140,228.108170 352.987183,218.784210 
	C352.950348,211.911026 350.119568,209.047287 343.310028,209.013748 
	C332.987030,208.962906 322.663574,208.987488 312.340363,209.002426 
	C278.543915,209.051331 244.747467,209.110321 210.032669,209.019440 
	C196.744171,209.013107 183.455414,208.956848 170.167267,209.023087 
	C164.192047,209.052856 161.099319,211.984955 161.035004,217.764572 
	C160.922287,227.895828 160.930038,238.029984 161.031113,248.161469 
	C161.087173,253.780258 164.082840,256.925415 169.605209,256.953217 
	C183.387558,257.022583 197.170944,256.887634 211.887024,256.980591 
M210.033295,145.019440 
	C196.744736,145.013123 183.455917,144.956894 170.167709,145.023087 
	C164.192261,145.052841 161.099335,147.984711 161.035019,153.764191 
	C160.922256,163.895493 160.930038,174.029694 161.031082,184.161224 
	C161.087112,189.780182 164.082642,192.925323 169.605011,192.953156 
	C183.387436,193.022568 197.170868,192.887619 211.887009,192.980576 
	C255.510971,192.986984 299.134949,193.002319 342.758911,192.991241 
	C350.253082,192.989334 352.966705,190.253342 352.992188,182.756790 
	C353.023895,173.432678 353.037140,164.108185 352.987183,154.784225 
	C352.950348,147.911026 350.119568,145.047287 343.310028,145.013748 
	C332.987030,144.962906 322.663605,144.987473 312.340393,145.002411 
	C278.543945,145.051315 244.747482,145.110321 210.033295,145.019440 
M400.174530,147.106140 
	C393.037445,147.514282 392.081238,146.652008 388.961029,136.208511 
	C379.416595,99.520554 358.473724,71.254868 325.921967,51.858238 
	C308.436920,41.439449 289.572510,34.862499 268.297577,33.580608 
	C267.143890,33.435902 265.992279,33.184017 264.836243,33.161865 
	C207.229248,32.058159 164.163483,56.420895 136.062485,106.848953 
	C132.299576,113.601578 130.495865,114.382568 122.935379,113.849297 
	C116.006508,113.360565 108.918396,113.080345 102.061531,113.961586 
	C65.066727,118.716148 36.861759,148.559235 33.209682,186.301880 
	C29.713455,222.433868 52.970577,257.387238 88.039391,269.000000 
	C104.115265,274.323425 120.618042,272.988495 137.959991,272.842987 
	C145.191498,274.849915 148.504272,270.711029 150.620956,264.697296 
	C142.480087,252.182541 142.479904,214.909561 150.789062,200.709427 
	C145.836472,194.854141 144.707092,187.823776 144.942551,180.273056 
	C145.196716,172.121902 144.994415,163.956696 145.001358,155.797607 
	C145.016083,138.540985 154.606354,129.004013 171.972565,129.002274 
	C228.586594,128.996597 285.200836,129.073395 341.814453,128.919632 
	C350.119598,128.897079 357.176056,131.115921 363.349060,137.588333 
	C367.438202,142.570648 369.141479,148.303741 369.027924,154.718491 
	C368.904205,161.706863 368.929260,168.700027 369.018066,175.689468 
	C369.132507,184.697784 369.660461,193.766708 363.048126,200.816803 
	C371.482239,213.807632 371.475159,249.588058 363.259155,265.496033 
	C366.313660,267.342834 365.259064,273.079681 370.611725,273.009888 
	C379.760986,272.890533 388.911438,272.862518 398.981079,272.940552 
	C408.452942,272.653595 418.043335,273.221497 427.375641,271.927765 
	C462.706451,267.029816 487.015503,231.533905 479.718292,196.263718 
	C472.273651,160.280945 435.906586,137.568024 400.174530,147.106140 
M129.601883,450.867889 
	C122.498932,455.517914 119.618301,461.985352 121.538872,468.970428 
	C123.449806,475.920471 129.347610,480.699585 136.348389,480.970856 
	C142.818939,481.221619 148.906769,477.524323 151.518311,471.590912 
	C154.266449,465.347198 153.396240,459.462433 148.859253,454.446167 
	C143.720871,448.765015 137.378616,447.553009 129.601883,450.867889 
M254.089905,464.769287 
	C265.210541,466.906097 275.380951,456.532013 272.516327,445.192261 
	C270.586029,437.551056 263.514069,432.476807 255.841827,433.037598 
	C248.354919,433.584808 242.093506,439.497711 241.099762,446.959076 
	C240.044418,454.882812 244.650757,461.525818 254.089905,464.769287 
M479.489136,383.716949 
	C482.355164,375.379791 480.385498,368.201172 474.037781,363.848969 
	C467.994232,359.705353 460.112488,360.037415 454.657867,364.881165 
	C449.783508,369.209625 447.871674,374.656494 449.600555,381.054413 
	C451.378754,387.634613 455.857697,391.680359 462.473114,392.742920 
	C469.809662,393.921295 475.380676,390.782593 479.489136,383.716949 
M61.961445,367.670502 
	C56.470081,361.500977 50.476902,359.601959 43.811974,361.919617 
	C37.618973,364.073151 33.370640,369.669342 33.026993,376.126404 
	C32.675053,382.739288 36.578251,389.044342 42.644180,391.661560 
	C49.020195,394.412628 56.162025,392.839172 60.843895,387.651825 
	C65.772789,382.190796 66.271545,375.879974 61.961445,367.670502 
M361.224640,467.912476 
	C364.150421,477.003204 370.609985,481.807526 378.717773,480.923065 
	C386.171661,480.109924 392.231873,473.950897 392.939301,466.469635 
	C393.785858,457.517090 386.644165,449.343781 377.682434,449.008911 
	C367.808563,448.639954 360.875000,456.201172 361.224640,467.912476 
z"/>
<path fill="#00D0CE" opacity="1.000000" stroke="none" 
	d="
M269.002472,34.004494 
	C289.572510,34.862499 308.436920,41.439449 325.921967,51.858238 
	C358.473724,71.254868 379.416595,99.520554 388.492371,136.613464 
	C379.701569,137.002289 371.379425,136.986160 363.057251,136.970047 
	C357.176056,131.115921 350.119598,128.897079 341.814453,128.919632 
	C285.200836,129.073395 228.586594,128.996597 171.972565,129.002274 
	C154.606354,129.004013 145.016083,138.540985 145.001358,155.797607 
	C144.994415,163.956696 145.196716,172.121902 144.942551,180.273056 
	C144.707092,187.823776 145.836472,194.854141 150.789062,200.709427 
	C142.479904,214.909561 142.480087,252.182541 150.620956,264.697296 
	C148.504272,270.711029 145.191498,274.849915 137.414429,272.478333 
	C135.818436,271.334869 134.820862,270.469666 133.709778,269.790009 
	C105.297516,252.410233 89.672371,227.223190 89.152451,193.813339 
	C88.699417,164.701599 100.645889,140.846741 123.692245,123.032822 
	C141.976166,108.900078 163.024963,103.189911 185.994064,105.442986 
	C190.008835,105.836800 191.903015,105.236534 193.797775,101.665665 
	C206.402435,77.910789 224.235352,58.998955 247.435379,45.337765 
	C254.425262,41.221809 261.802612,37.763863 269.002472,34.004494 
z"/>
<path fill="#00A4AB" opacity="1.000000" stroke="none" 
	d="
M268.650024,33.792549 
	C261.802612,37.763863 254.425262,41.221809 247.435379,45.337765 
	C224.235352,58.998955 206.402435,77.910789 193.797775,101.665665 
	C191.903015,105.236534 190.008835,105.836800 185.994064,105.442986 
	C163.024963,103.189911 141.976166,108.900078 123.692245,123.032822 
	C100.645889,140.846741 88.699417,164.701599 89.152451,193.813339 
	C89.672371,227.223190 105.297516,252.410233 133.709778,269.790009 
	C134.820862,270.469666 135.818436,271.334869 136.972382,272.427521 
	C120.618042,272.988495 104.115265,274.323425 88.039391,269.000000 
	C52.970577,257.387238 29.713455,222.433868 33.209682,186.301880 
	C36.861759,148.559235 65.066727,118.716148 102.061531,113.961586 
	C108.918396,113.080345 116.006508,113.360565 122.935379,113.849297 
	C130.495865,114.382568 132.299576,113.601578 136.062485,106.848953 
	C164.163483,56.420895 207.229248,32.058159 264.836243,33.161865 
	C265.992279,33.184017 267.143890,33.435902 268.650024,33.792549 
z"/>
<path fill="#00CFCE" opacity="1.000000" stroke="none" 
	d="
M401.035828,147.122772 
	C435.906586,137.568024 472.273651,160.280945 479.718292,196.263718 
	C487.015503,231.533905 462.706451,267.029816 427.375641,271.927765 
	C418.043335,273.221497 408.452942,272.653595 398.442169,272.541992 
	C395.216003,269.641235 392.528748,267.138977 389.629974,264.439789 
	C398.741394,260.794647 401.546295,253.748734 401.092010,244.446304 
	C400.654236,235.481140 400.986389,226.477951 400.997192,217.491486 
	C401.004883,211.093704 397.972809,206.422592 392.783417,202.983932 
	C391.759094,202.305161 390.651642,201.751846 388.874542,200.735962 
	C398.916595,196.782425 401.504883,189.509171 401.107971,180.065903 
	C400.647217,169.103210 401.023102,158.105362 401.035828,147.122772 
z"/>
<path fill="#FFD648" opacity="1.000000" stroke="none" 
	d="
M210.951019,145.165451 
	C244.747482,145.110321 278.543945,145.051315 312.340393,145.002411 
	C322.663605,144.987473 332.987030,144.962906 343.310028,145.013748 
	C350.119568,145.047287 352.950348,147.911026 352.987183,154.784225 
	C353.037140,164.108185 353.023895,173.432678 352.992188,182.756790 
	C352.966705,190.253342 350.253082,192.989334 342.758911,192.991241 
	C299.134949,193.002319 255.510971,192.986984 211.274048,192.564484 
	C210.108292,187.154053 209.555496,182.159729 209.466248,177.092133 
	C230.852341,177.018890 251.774872,177.018890 272.690430,177.018890 
	C272.690430,171.370224 272.690430,166.309097 272.690430,160.834610 
	C251.255859,160.834610 230.129303,160.834610 209.001892,160.385162 
	C209.651047,155.012283 210.301025,150.088867 210.951019,145.165451 
M335.259125,176.988388 
	C335.835876,176.381973 336.893280,175.790451 336.912567,175.166794 
	C337.054657,170.575378 336.989380,165.977554 336.989380,161.240448 
	C331.479034,161.240448 326.433685,161.240448 321.243774,161.240448 
	C321.243774,166.527939 321.243774,171.573349 321.243774,176.998215 
	C325.751831,176.998215 330.026489,176.998215 335.259125,176.988388 
M289.000610,173.338943 
	C289.799805,174.557709 290.517670,176.755280 291.411926,176.829559 
	C295.805054,177.194473 300.245026,176.995224 304.735260,176.995224 
	C304.735260,171.427490 304.735260,166.381973 304.735260,161.267853 
	C299.420959,161.267853 294.375305,161.267853 289.000458,161.267853 
	C289.000458,165.146973 289.000458,168.762939 289.000610,173.338943 
z"/>
<path fill="#FFD648" opacity="1.000000" stroke="none" 
	d="
M210.951019,209.165451 
	C244.747467,209.110321 278.543915,209.051331 312.340363,209.002426 
	C322.663574,208.987488 332.987030,208.962906 343.310028,209.013748 
	C350.119568,209.047287 352.950348,211.911026 352.987183,218.784210 
	C353.037140,228.108170 353.023865,237.432648 352.992188,246.756760 
	C352.966705,254.253265 350.253052,256.989319 342.758942,256.991241 
	C299.134979,257.002350 255.511002,256.987000 211.274063,256.564484 
	C210.108307,251.154053 209.555496,246.159714 209.466248,241.092133 
	C230.852341,241.018890 251.774872,241.018890 272.690430,241.018890 
	C272.690430,235.370224 272.690430,230.309097 272.690430,224.834610 
	C251.255859,224.834610 230.129303,224.834610 209.001892,224.385162 
	C209.651031,219.012283 210.301025,214.088867 210.951019,209.165451 
M321.000458,229.621185 
	C321.000458,233.358612 321.000458,237.096039 321.000458,240.652740 
	C326.742340,240.652740 331.791290,240.652740 336.649597,240.652740 
	C336.649597,235.250824 336.649597,230.203339 336.649597,225.000961 
	C332.331177,225.000961 328.348694,225.198608 324.396637,224.936935 
	C321.364227,224.736160 320.618958,226.039963 321.000458,229.621185 
M304.999573,231.546326 
	C304.999573,229.455643 304.999573,227.364960 304.999573,225.295319 
	C299.364502,225.295319 294.319458,225.295319 289.297302,225.295319 
	C289.297302,230.641357 289.297302,235.686035 289.297302,240.700623 
	C294.645416,240.700623 299.689941,240.700623 304.999573,240.700623 
	C304.999573,237.775726 304.999573,235.147110 304.999573,231.546326 
z"/>
<path fill="#FFD648" opacity="1.000000" stroke="none" 
	d="
M210.951019,273.165436 
	C244.747482,273.110321 278.543945,273.051300 312.340393,273.002380 
	C322.663605,272.987457 332.987030,272.962921 343.310028,273.013763 
	C350.119537,273.047302 352.950348,275.911041 352.987183,282.784241 
	C353.037140,292.108185 353.023865,301.432678 352.992188,310.756775 
	C352.966675,318.253296 350.253113,320.989319 342.758911,320.991241 
	C299.134949,321.002350 255.510986,320.987000 211.274048,320.564514 
	C210.108292,315.154083 209.555496,310.159729 209.466248,305.092163 
	C230.852341,305.018921 251.774872,305.018921 272.690430,305.018921 
	C272.690430,299.370239 272.690430,294.309113 272.690430,288.834625 
	C251.255890,288.834625 230.129303,288.834625 209.001892,288.385193 
	C209.651047,283.012299 210.301041,278.088867 210.951019,273.165436 
M336.988312,303.264160 
	C336.988312,298.535675 336.988312,293.807190 336.988312,289.382568 
	C331.183624,289.382568 326.130035,289.382568 321.386536,289.382568 
	C321.386536,294.822083 321.386536,299.875183 321.386536,305.380890 
	C326.832367,304.973572 331.867310,304.596985 336.988312,303.264160 
M291.698456,304.998199 
	C296.095154,304.998199 300.491821,304.998199 304.628540,304.998199 
	C304.628540,299.206818 304.628540,294.155365 304.628540,289.374878 
	C299.199921,289.374878 294.147247,289.374878 289.001617,289.374878 
	C289.001617,293.890869 288.895233,298.037598 289.080872,302.171173 
	C289.124115,303.133148 290.160950,304.050476 291.698456,304.998199 
z"/>
<path fill="#00A5AB" opacity="1.000000" stroke="none" 
	d="
M400.605194,147.114456 
	C401.023102,158.105362 400.647217,169.103210 401.107971,180.065903 
	C401.504883,189.509171 398.916595,196.782425 388.874542,200.735962 
	C390.651642,201.751846 391.759094,202.305161 392.783417,202.983932 
	C397.972809,206.422592 401.004883,211.093704 400.997192,217.491486 
	C400.986389,226.477951 400.654236,235.481140 401.092010,244.446304 
	C401.546295,253.748734 398.741394,260.794647 389.629974,264.439789 
	C392.528748,267.138977 395.216003,269.641235 397.982300,272.469788 
	C388.911438,272.862518 379.760986,272.890533 370.611725,273.009888 
	C365.259064,273.079681 366.313660,267.342834 363.259155,265.496033 
	C371.475159,249.588058 371.482239,213.807632 363.048126,200.816803 
	C369.660461,193.766708 369.132507,184.697784 369.018066,175.689468 
	C368.929260,168.700027 368.904205,161.706863 369.027924,154.718491 
	C369.141479,148.303741 367.438202,142.570648 363.203156,137.279190 
	C371.379425,136.986160 379.701569,137.002289 388.489197,137.003387 
	C392.081238,146.652008 393.037445,147.514282 400.605194,147.114456 
z"/>
<path fill="#FEB300" opacity="1.000000" stroke="none" 
	d="
M209.002686,177.165390 
	C209.555496,182.159729 210.108292,187.154053 210.807495,192.491531 
	C197.170868,192.887619 183.387436,193.022568 169.605011,192.953156 
	C164.082642,192.925323 161.087112,189.780182 161.031082,184.161224 
	C160.930038,174.029694 160.922256,163.895493 161.035019,153.764191 
	C161.099335,147.984711 164.192261,145.052841 170.167709,145.023087 
	C183.455917,144.956894 196.744736,145.013123 210.492157,145.092438 
	C210.301025,150.088867 209.651047,155.012283 208.538239,160.458252 
	C197.818787,160.980789 187.562134,160.980789 177.313721,160.980789 
	C177.313721,166.633728 177.313721,171.689789 177.313721,177.165390 
	C188.083267,177.165390 198.542984,177.165390 209.002686,177.165390 
z"/>
<path fill="#FEB300" opacity="1.000000" stroke="none" 
	d="
M210.491852,209.092438 
	C210.301025,214.088867 209.651031,219.012283 208.538239,224.458252 
	C197.818787,224.980789 187.562134,224.980789 177.313721,224.980789 
	C177.313721,230.633728 177.313721,235.689789 177.313721,241.165390 
	C188.083267,241.165390 198.542984,241.165390 209.002686,241.165390 
	C209.555496,246.159714 210.108307,251.154053 210.807495,256.491547 
	C197.170944,256.887634 183.387558,257.022583 169.605209,256.953217 
	C164.082840,256.925415 161.087173,253.780258 161.031113,248.161469 
	C160.930038,238.029984 160.922287,227.895828 161.035004,217.764572 
	C161.099319,211.984955 164.192047,209.052856 170.167267,209.023087 
	C183.455414,208.956848 196.744171,209.013107 210.491852,209.092438 
z"/>
<path fill="#FEB300" opacity="1.000000" stroke="none" 
	d="
M209.002686,305.165405 
	C209.555496,310.159729 210.108292,315.154083 210.807495,320.491516 
	C197.170883,320.887604 183.387436,321.022583 169.605026,320.953156 
	C164.082733,320.925323 161.087128,317.780121 161.031097,312.161255 
	C160.930054,302.029694 160.922241,291.895508 161.035004,281.764191 
	C161.099335,275.984680 164.192230,273.052856 170.167694,273.023102 
	C183.455917,272.956940 196.744720,273.013123 210.492157,273.092438 
	C210.301041,278.088867 209.651047,283.012299 208.538239,288.458252 
	C197.818787,288.980804 187.562134,288.980804 177.313721,288.980804 
	C177.313721,294.631958 177.313721,299.688934 177.313721,305.165405 
	C188.083633,305.165405 198.543152,305.165405 209.002686,305.165405 
z"/>
<path fill="#FAD248" opacity="1.000000" stroke="none" 
	d="
M129.940567,450.683167 
	C137.378616,447.553009 143.720871,448.765015 148.859253,454.446167 
	C153.396240,459.462433 154.266449,465.347198 151.518311,471.590912 
	C148.906769,477.524323 142.818939,481.221619 136.348389,480.970856 
	C129.347610,480.699585 123.449806,475.920471 121.538872,468.970428 
	C119.618301,461.985352 122.498932,455.517914 129.940567,450.683167 
z"/>
<path fill="#FAD248" opacity="1.000000" stroke="none" 
	d="
M253.693253,464.658997 
	C244.650757,461.525818 240.044418,454.882812 241.099762,446.959076 
	C242.093506,439.497711 248.354919,433.584808 255.841827,433.037598 
	C263.514069,432.476807 270.586029,437.551056 272.516327,445.192261 
	C275.380951,456.532013 265.210541,466.906097 253.693253,464.658997 
z"/>
<path fill="#FAD248" opacity="1.000000" stroke="none" 
	d="
M479.307312,384.055328 
	C475.380676,390.782593 469.809662,393.921295 462.473114,392.742920 
	C455.857697,391.680359 451.378754,387.634613 449.600555,381.054413 
	C447.871674,374.656494 449.783508,369.209625 454.657867,364.881165 
	C460.112488,360.037415 467.994232,359.705353 474.037781,363.848969 
	C480.385498,368.201172 482.355164,375.379791 479.307312,384.055328 
z"/>
<path fill="#FAD248" opacity="1.000000" stroke="none" 
	d="
M62.167603,367.982635 
	C66.271545,375.879974 65.772789,382.190796 60.843895,387.651825 
	C56.162025,392.839172 49.020195,394.412628 42.644180,391.661560 
	C36.578251,389.044342 32.675053,382.739288 33.026993,376.126404 
	C33.370640,369.669342 37.618973,364.073151 43.811974,361.919617 
	C50.476902,359.601959 56.470081,361.500977 62.167603,367.982635 
z"/>
<path fill="#FAD248" opacity="1.000000" stroke="none" 
	d="
M361.164978,467.499634 
	C360.875000,456.201172 367.808563,448.639954 377.682434,449.008911 
	C386.644165,449.343781 393.785858,457.517090 392.939301,466.469635 
	C392.231873,473.950897 386.171661,480.109924 378.717773,480.923065 
	C370.609985,481.807526 364.150421,477.003204 361.164978,467.499634 
z"/>
<path fill="#00074E" opacity="1.000000" stroke="none" 
	d="
M209.466248,177.092133 
	C198.542984,177.165390 188.083267,177.165390 177.313721,177.165390 
	C177.313721,171.689789 177.313721,166.633728 177.313721,160.980789 
	C187.562134,160.980789 197.818787,160.980789 208.539093,160.907700 
	C230.129303,160.834610 251.255859,160.834610 272.690430,160.834610 
	C272.690430,166.309097 272.690430,171.370224 272.690430,177.018890 
	C251.774872,177.018890 230.852341,177.018890 209.466248,177.092133 
z"/>
<path fill="#00074E" opacity="1.000000" stroke="none" 
	d="
M334.780151,176.993301 
	C330.026489,176.998215 325.751831,176.998215 321.243774,176.998215 
	C321.243774,171.573349 321.243774,166.527939 321.243774,161.240448 
	C326.433685,161.240448 331.479034,161.240448 336.989380,161.240448 
	C336.989380,165.977554 337.054657,170.575378 336.912567,175.166794 
	C336.893280,175.790451 335.835876,176.381973 334.780151,176.993301 
z"/>
<path fill="#00074E" opacity="1.000000" stroke="none" 
	d="
M289.000549,172.858917 
	C289.000458,168.762939 289.000458,165.146973 289.000458,161.267853 
	C294.375305,161.267853 299.420959,161.267853 304.735260,161.267853 
	C304.735260,166.381973 304.735260,171.427490 304.735260,176.995224 
	C300.245026,176.995224 295.805054,177.194473 291.411926,176.829559 
	C290.517670,176.755280 289.799805,174.557709 289.000549,172.858917 
z"/>
<path fill="#00074E" opacity="1.000000" stroke="none" 
	d="
M209.466248,241.092133 
	C198.542984,241.165390 188.083267,241.165390 177.313721,241.165390 
	C177.313721,235.689789 177.313721,230.633728 177.313721,224.980789 
	C187.562134,224.980789 197.818787,224.980789 208.539093,224.907700 
	C230.129303,224.834610 251.255859,224.834610 272.690430,224.834610 
	C272.690430,230.309097 272.690430,235.370224 272.690430,241.018890 
	C251.774872,241.018890 230.852341,241.018890 209.466248,241.092133 
z"/>
<path fill="#00074E" opacity="1.000000" stroke="none" 
	d="
M321.000519,229.141266 
	C320.618958,226.039963 321.364227,224.736160 324.396637,224.936935 
	C328.348694,225.198608 332.331177,225.000961 336.649597,225.000961 
	C336.649597,230.203339 336.649597,235.250824 336.649597,240.652740 
	C331.791290,240.652740 326.742340,240.652740 321.000458,240.652740 
	C321.000458,237.096039 321.000458,233.358612 321.000519,229.141266 
z"/>
<path fill="#00074E" opacity="1.000000" stroke="none" 
	d="
M304.999573,232.032410 
	C304.999573,235.147110 304.999573,237.775726 304.999573,240.700623 
	C299.689941,240.700623 294.645416,240.700623 289.297302,240.700623 
	C289.297302,235.686035 289.297302,230.641357 289.297302,225.295319 
	C294.319458,225.295319 299.364502,225.295319 304.999573,225.295319 
	C304.999573,227.364960 304.999573,229.455643 304.999573,232.032410 
z"/>
<path fill="#00074E" opacity="1.000000" stroke="none" 
	d="
M209.466248,305.092163 
	C198.543152,305.165405 188.083633,305.165405 177.313721,305.165405 
	C177.313721,299.688934 177.313721,294.631958 177.313721,288.980804 
	C187.562134,288.980804 197.818787,288.980804 208.539093,288.907715 
	C230.129303,288.834625 251.255890,288.834625 272.690430,288.834625 
	C272.690430,294.309113 272.690430,299.370239 272.690430,305.018921 
	C251.774872,305.018921 230.852341,305.018921 209.466248,305.092163 
z"/>
<path fill="#00074E" opacity="1.000000" stroke="none" 
	d="
M336.945251,303.742279 
	C331.867310,304.596985 326.832367,304.973572 321.386536,305.380890 
	C321.386536,299.875183 321.386536,294.822083 321.386536,289.382568 
	C326.130035,289.382568 331.183624,289.382568 336.988312,289.382568 
	C336.988312,293.807190 336.988312,298.535675 336.945251,303.742279 
z"/>
<path fill="#00074E" opacity="1.000000" stroke="none" 
	d="
M291.219543,304.993286 
	C290.160950,304.050476 289.124115,303.133148 289.080872,302.171173 
	C288.895233,298.037598 289.001617,293.890869 289.001617,289.374878 
	C294.147247,289.374878 299.199921,289.374878 304.628540,289.374878 
	C304.628540,294.155365 304.628540,299.206818 304.628540,304.998199 
	C300.491821,304.998199 296.095154,304.998199 291.219543,304.993286 
z"/>
</svg>