<svg version="1.1" id="Layer_1" xmlns="http://www.w3.org/2000/svg" xmlns:xlink="http://www.w3.org/1999/xlink" x="0px" y="0px"
	 width="100%" viewBox="0 0 512 512" enable-background="new 0 0 512 512" xml:space="preserve">
<path fill="#010101" opacity="1.000000" stroke="none" 
	d="
M282.000000,513.000000 
	C189.355820,513.000000 97.211617,512.979187 5.067554,513.085327 
	C1.792350,513.089111 0.894826,512.631775 0.897325,509.069336 
	C1.015169,341.110382 1.016903,173.151352 0.891511,5.192445 
	C0.888703,1.431156 1.854070,0.913809 5.305611,0.915790 
	C173.097961,1.012070 340.890350,1.011581 508.682709,0.918469 
	C512.102600,0.916571 513.113770,1.387098 513.110840,5.180738 
	C512.982605,173.139664 512.985107,341.098694 513.101318,509.057648 
	C513.103760,512.596191 512.244568,513.092529 508.944122,513.087524 
	C433.462860,512.973816 357.981415,513.000000 282.000000,513.000000 
z"/>
<path fill="#FE99A0" opacity="1.000000" stroke="none" 
	d="
M360.622864,348.521423 
	C359.426971,338.266907 361.039276,328.230072 359.255463,318.319672 
	C357.123535,306.475464 351.155121,296.949036 341.454956,289.864624 
	C332.586853,283.387909 323.638367,277.016998 314.607300,270.770111 
	C311.946014,268.929291 310.841614,267.608185 313.595184,264.798798 
	C322.515137,255.697906 326.157043,244.624344 325.060272,231.985001 
	C324.797852,228.960663 325.276825,227.209213 328.931488,226.608749 
	C332.839844,225.966568 335.412476,222.836044 337.597809,219.548737 
	C344.413788,209.295792 351.352844,199.124420 358.128540,188.845154 
	C359.621094,186.580872 361.166992,185.381439 364.106384,185.392532 
	C395.751862,185.512024 427.397949,185.478012 459.489563,185.616333 
	C461.901154,187.538834 461.707031,189.965881 461.709808,192.254852 
	C461.767090,239.603241 461.759308,286.951691 461.723114,334.300140 
	C461.721619,336.288269 461.742371,338.305603 460.328491,340.479614 
	C436.602081,340.900818 413.207397,341.016083 389.813232,340.946167 
	C384.871704,340.931396 381.420837,342.446625 380.020691,347.862854 
	C373.666718,350.704559 367.338684,349.931885 360.622864,348.521423 
z"/>
<path fill="#FD99A0" opacity="1.000000" stroke="none" 
	d="
M57.004875,267.752716 
	C89.491997,267.752625 121.480545,267.804138 153.468811,267.730621 
	C169.327667,267.694153 180.025177,256.659180 179.031021,241.655869 
	C178.687759,236.475174 176.304886,232.157928 173.485336,227.971024 
	C154.335510,199.534286 135.209915,171.081192 116.107697,142.612457 
	C115.221336,141.291473 113.865349,140.170731 113.750267,137.964127 
	C115.303856,137.964127 116.747467,137.964127 118.191071,137.964127 
	C180.501877,137.964142 242.812790,138.012665 305.123199,137.857315 
	C309.373047,137.846725 310.298096,138.986481 310.228210,143.068604 
	C309.969299,158.190002 310.125153,173.318512 310.125153,188.544144 
	C308.102142,188.543701 307.393127,187.038422 306.391907,186.108994 
	C297.600952,177.948608 288.902374,169.688690 280.108429,161.531540 
	C266.467590,148.878448 247.703629,148.773987 234.145538,161.332840 
	C223.635269,171.068481 213.270523,180.961075 202.798843,190.738632 
	C193.388580,199.525131 188.676514,210.275497 188.905899,223.184265 
	C188.985825,227.681198 189.006683,232.182892 188.899445,236.678711 
	C188.675110,246.084427 191.701340,254.270386 197.661423,261.511597 
	C203.040924,268.047485 202.969879,268.120270 195.931854,273.159760 
	C189.165237,278.004913 182.486130,282.981232 175.587021,287.630554 
	C160.699738,297.663086 153.527863,311.508575 153.906021,329.476349 
	C154.148468,340.995758 153.944748,341.000000 142.375748,341.000000 
	C110.887131,340.999969 79.398285,340.944336 47.910213,341.075256 
	C44.253063,341.090454 42.838730,340.503754 42.886288,336.334473 
	C43.131416,314.845062 43.063614,293.350922 42.930782,271.859528 
	C42.911106,268.676636 43.642685,267.373932 47.015606,267.690186 
	C50.153511,267.984375 53.340698,267.752838 57.004875,267.752716 
z"/>
<path fill="#F5F8F9" opacity="1.000000" stroke="none" 
	d="
M360.155273,348.567444 
	C366.485748,348.209442 372.725586,348.201477 379.427185,348.203247 
	C381.770996,354.725159 383.379944,355.988312 390.090393,355.994354 
	C413.081879,356.014954 436.073364,356.008850 459.527771,356.086487 
	C461.024719,357.122040 461.455902,358.381775 461.484161,359.721466 
	C461.672150,368.629639 461.971191,377.544830 461.301941,386.440765 
	C461.101807,389.101166 460.177826,391.619720 457.363342,393.503052 
	C455.159729,393.845154 453.331451,393.955688 451.503174,393.955811 
	C311.696106,393.963806 171.889008,393.963318 32.081932,393.962677 
	C19.619503,393.962616 16.001480,390.363342 16.001112,377.968536 
	C16.000065,342.641846 16.000744,307.315125 16.000744,271.988434 
	C16.000744,270.166260 16.000744,268.344086 16.000744,266.162994 
	C17.046659,266.414551 17.771460,266.635590 18.512524,266.758911 
	C21.582552,267.269775 26.099930,266.723694 27.366901,268.502380 
	C28.964272,270.744904 27.983906,274.876373 27.987288,278.192993 
	C28.010223,300.688751 27.993076,323.184540 28.002686,345.680298 
	C28.006105,353.683685 30.343790,355.996979 38.449314,355.997375 
	C142.263153,356.002350 246.076996,356.002228 349.890839,355.996857 
	C356.564880,355.996521 358.339417,354.735962 360.155273,348.567444 
z"/>
<path fill="#FC7F86" opacity="1.000000" stroke="none" 
	d="
M473.363800,169.821106 
	C470.991547,170.217911 469.003296,170.403915 467.015015,170.404907 
	C431.536163,170.422638 396.056854,170.505585 360.578857,170.329926 
	C354.803314,170.301346 350.977631,172.143600 347.867096,177.139114 
	C341.801605,186.880386 335.181610,196.277802 328.722961,205.771179 
	C327.846893,207.058884 327.391907,208.801392 325.123688,209.594635 
	C325.123688,207.936813 325.123688,206.518646 325.123688,205.100479 
	C325.123779,149.800095 325.121338,94.499702 325.126251,39.199310 
	C325.127136,29.124243 328.227966,25.966190 338.144348,25.966305 
	C382.784332,25.966827 427.424316,25.979582 472.526611,26.065046 
	C475.255005,27.632744 476.153992,29.889946 476.550507,32.442970 
	C477.162964,36.385639 477.721161,40.322834 477.719147,44.335651 
	C477.701263,80.072212 477.697174,115.808807 477.723022,151.545364 
	C477.726166,155.892822 477.065521,160.156006 476.509460,164.438019 
	C476.245483,166.470581 475.575134,168.321640 473.363800,169.821106 
z"/>
<path fill="#678C97" opacity="1.000000" stroke="none" 
	d="
M331.138611,300.841217 
	C342.029633,308.442688 345.610840,318.873535 345.121582,331.393890 
	C344.746674,340.988068 345.048157,340.999847 335.457886,340.999847 
	C281.668579,340.999817 227.879166,340.951508 174.090256,341.095367 
	C169.978424,341.106354 168.396347,340.157501 168.886322,335.921143 
	C169.247498,332.798401 168.926727,329.600586 168.976120,326.437256 
	C169.134583,316.288605 173.182999,308.031372 181.374252,302.026581 
	C190.903687,295.040771 200.622101,288.313080 210.169327,281.351044 
	C212.458710,279.681610 213.991943,279.668304 216.123352,281.737732 
	C223.170639,288.580078 230.444077,295.189209 237.616562,301.902954 
	C250.815659,314.257843 263.115570,314.312469 276.207245,302.073334 
	C283.261902,295.478058 290.442596,289.012115 297.338257,282.254944 
	C299.845367,279.798218 301.562408,279.555115 304.467438,281.732941 
	C313.120972,288.220337 322.037445,294.356995 331.138611,300.841217 
z"/>
<path fill="#FDD05A" opacity="1.000000" stroke="none" 
	d="
M140.251923,252.271515 
	C129.139603,252.578064 118.336716,252.728027 107.533646,252.742752 
	C80.754257,252.779282 53.974762,252.735611 27.195381,252.773392 
	C23.161730,252.779068 19.547274,252.069885 17.298569,248.301849 
	C14.768789,244.062851 16.397057,240.449585 18.871616,236.783051 
	C39.040157,206.899582 59.142300,176.971329 79.555481,146.867554 
	C82.219948,147.228302 83.088364,149.339355 84.275070,151.061279 
	C87.171135,155.263474 90.029091,159.494232 92.779388,163.793259 
	C93.810303,165.404709 95.278404,167.003677 93.767426,169.401855 
	C85.783775,170.572998 83.834480,172.584030 83.594009,180.517563 
	C83.352104,188.498184 83.390480,196.490051 83.581093,204.472366 
	C83.741737,211.199799 86.130005,214.690689 90.103790,214.584671 
	C94.148895,214.476746 96.346878,210.906372 96.489815,204.382156 
	C96.693680,195.076553 96.008858,185.758148 97.039047,176.097351 
	C99.563568,173.430252 100.785820,175.720398 101.807053,177.161606 
	C103.916557,180.138596 106.033569,183.116501 108.069412,186.148849 
	C118.155548,201.171951 128.038681,216.330048 138.280106,231.250717 
	C142.683319,237.665741 145.389297,244.510086 140.251923,252.271515 
z"/>
<path fill="#E8EDF2" opacity="1.000000" stroke="none" 
	d="
M295.238495,487.512909 
	C263.227386,487.916931 231.462418,487.945526 199.697952,488.087708 
	C196.938049,488.100037 196.818237,487.053833 197.267410,484.842468 
	C202.190887,460.603790 207.158401,436.372803 211.810501,412.081604 
	C212.490768,408.529602 214.397781,408.960571 216.691818,408.961792 
	C237.150681,408.972534 257.609528,408.975433 278.530579,409.060394 
	C280.789001,410.382812 281.310669,412.294067 281.708282,414.280029 
	C286.276398,437.095947 290.847565,459.911255 295.384369,482.733398 
	C295.674774,484.194275 295.973785,485.678314 295.238495,487.512909 
z"/>
<path fill="#F4F7F8" opacity="1.000000" stroke="none" 
	d="
M28.001669,141.018204 
	C28.001669,157.514236 27.823967,173.516922 28.107613,189.511414 
	C28.195169,194.448532 27.094105,198.523926 24.067858,202.372620 
	C21.421080,205.738724 19.205889,209.444183 15.998551,214.184204 
	C15.998551,211.417877 15.998554,209.865509 15.998550,208.313141 
	C15.998484,180.980606 15.996736,153.648087 15.999146,126.315559 
	C16.000158,114.814575 19.798845,110.964371 31.174822,110.963905 
	C113.505730,110.960533 195.836639,110.948868 278.167511,110.992172 
	C283.585632,110.995026 288.755341,111.012314 290.041565,104.090462 
	C290.308197,102.655426 291.517456,103.023788 292.419861,103.017143 
	C297.419434,102.980286 302.422943,103.108383 307.417755,102.949921 
	C309.716248,102.877007 310.213379,103.797585 310.162811,105.859962 
	C310.048492,110.523697 310.021454,115.195526 310.171295,119.857231 
	C310.245209,122.155167 309.692749,123.328087 307.166290,122.991280 
	C306.020050,122.838455 304.836456,122.965652 303.669830,122.965652 
	C215.839096,122.965675 128.008347,122.965454 40.177612,122.965973 
	C29.634134,122.966034 28.002575,124.583344 28.001701,135.021713 
	C28.001547,136.855042 28.001673,138.688370 28.001669,141.018204 
z"/>
<path fill="#E7ECF0" opacity="1.000000" stroke="none" 
	d="
M457.450989,393.868347 
	C459.921234,389.074677 460.205109,383.884888 460.054016,378.508362 
	C459.853394,371.369690 460.001709,364.221252 459.995422,356.618530 
	C464.652863,356.106354 469.314941,356.017303 473.977203,356.006104 
	C484.314606,355.981232 485.998657,354.280334 485.998718,343.738068 
	C485.998993,293.075043 486.056885,242.411819 485.900208,191.749283 
	C485.886108,187.184494 486.449982,184.514664 491.807098,184.998154 
	C493.697479,185.168777 495.681549,184.301117 498.001129,183.830811 
	C498.001129,185.684067 498.001129,187.330994 498.001129,188.977905 
	C498.001129,252.306686 498.003387,315.635468 497.998993,378.964264 
	C497.998230,389.897705 493.907257,393.957886 482.912109,393.963867 
	C474.579407,393.968414 466.246704,393.955627 457.450989,393.868347 
z"/>
<path fill="#FE646F" opacity="1.000000" stroke="none" 
	d="
M473.437897,170.235764 
	C475.781799,165.144180 475.842010,159.527924 475.871918,154.177948 
	C476.080994,116.743340 476.043213,79.306793 475.911224,41.871479 
	C475.893311,36.793442 475.459381,31.613308 473.047516,26.514009 
	C477.643250,26.084385 482.298462,25.939337 486.951660,25.988842 
	C494.323151,26.067276 497.952728,29.697838 497.980591,37.098164 
	C498.037537,52.238003 497.998260,67.378204 497.998322,82.518257 
	C497.998383,107.807137 498.010742,133.096039 497.991302,158.384903 
	C497.984619,167.082657 494.681580,170.337631 485.873810,170.396896 
	C481.881500,170.423767 477.888611,170.370438 473.437897,170.235764 
z"/>
<path fill="#668C97" opacity="1.000000" stroke="none" 
	d="
M289.774933,213.988495 
	C286.874573,212.284393 284.050140,212.267807 281.199768,212.271301 
	C265.707672,212.290314 250.214203,212.396408 234.724228,212.215134 
	C229.541412,212.154495 224.955795,213.224014 220.549805,216.013336 
	C215.400085,219.273468 209.971237,222.092712 204.068359,225.440781 
	C203.369003,216.419067 205.649353,209.079330 211.467743,203.366074 
	C222.517456,192.516068 233.814713,181.906570 245.282181,171.497955 
	C252.209137,165.210617 261.983521,165.333710 268.950836,171.685226 
	C280.273285,182.007004 291.461426,192.486496 302.422577,203.189957 
	C308.318237,208.947006 310.427765,216.394806 310.002899,225.506073 
	C303.012756,221.514114 296.569336,217.834366 289.774933,213.988495 
z"/>
<path fill="#F9BF43" opacity="1.000000" stroke="none" 
	d="
M140.401733,252.606827 
	C143.620621,243.604279 140.398132,236.464539 135.210022,229.052704 
	C123.319717,212.066055 112.112381,194.601593 100.594398,177.353378 
	C100.056755,176.548264 99.196152,175.958847 98.161156,175.145691 
	C95.155663,174.336212 94.767746,171.867691 93.888359,169.501465 
	C90.464676,161.186371 84.696327,154.647781 79.994537,147.008987 
	C80.781731,145.129669 81.581039,143.476334 82.676697,142.050781 
	C86.868713,136.596497 93.162300,136.503494 97.405785,141.845062 
	C98.951637,143.790939 100.252640,145.932953 101.642937,148.000565 
	C121.388741,177.365952 141.110535,206.747513 160.898621,236.084366 
	C163.420685,239.823441 165.521332,243.494247 163.049347,248.028870 
	C160.582626,252.553833 156.322220,252.901688 151.836121,252.785522 
	C148.179642,252.690842 144.519440,252.739120 140.401733,252.606827 
z"/>
<path fill="#658B95" opacity="1.000000" stroke="none" 
	d="
M253.662003,270.296509 
	C270.442993,272.226837 292.164093,260.196411 292.676208,232.881622 
	C298.145752,236.027878 303.361603,238.726181 308.227051,241.952866 
	C310.704651,243.595963 308.705750,246.039001 307.682312,247.673065 
	C303.699982,254.031418 298.996033,259.943420 293.697235,265.180420 
	C284.234985,274.532288 274.307678,283.418030 264.472565,292.386536 
	C258.830597,297.531311 255.105225,297.671814 249.706512,292.514038 
	C236.017609,279.436035 220.863251,267.811310 209.548050,252.357483 
	C208.958786,251.552704 208.274307,250.816818 207.697128,250.004135 
	C203.505539,244.102066 203.735062,242.948349 209.820953,239.452042 
	C213.136093,237.547531 216.470764,235.676865 219.805145,233.806122 
	C220.085648,233.648743 220.430939,233.606812 221.136353,233.392883 
	C222.548080,253.751373 232.345093,266.915405 253.662003,270.296509 
z"/>
<path fill="#D8E6EB" opacity="1.000000" stroke="none" 
	d="
M295.455078,487.939819 
	C290.660370,466.382416 286.336823,444.905029 281.989777,423.432343 
	C281.075287,418.915161 280.074554,414.415466 279.053162,409.523956 
	C285.463013,409.081299 291.936310,409.118805 298.402008,408.915039 
	C300.914154,408.835876 301.680084,409.707275 302.163666,412.180115 
	C306.902130,436.410217 311.784576,460.612457 316.738281,484.799652 
	C317.313995,487.610413 316.448730,488.159271 313.847198,488.087372 
	C307.874725,487.922302 301.894775,488.026550 295.455078,487.939819 
z"/>
<path fill="#F67E85" opacity="1.000000" stroke="none" 
	d="
M460.454132,340.924744 
	C459.994202,289.428619 459.991852,238.005692 459.962402,186.164703 
	C471.009949,184.502640 471.009949,184.502640 471.009949,195.426315 
	C471.009949,241.636154 471.009949,287.846008 471.009888,334.055847 
	C471.009888,341.013519 471.009735,341.013916 463.903625,341.009460 
	C462.906311,341.008820 461.908997,341.001923 460.454132,340.924744 
z"/>
<path fill="#F7C7B9" opacity="1.000000" stroke="none" 
	d="
M276.575470,241.312042 
	C271.869476,252.597473 261.844238,257.839813 251.248505,254.833725 
	C241.040634,251.937698 234.640015,241.010040 236.323807,229.675156 
	C236.625610,227.643600 237.549545,227.286880 239.261734,227.291260 
	C251.047913,227.321350 262.834625,227.360153 274.620117,227.264236 
	C277.137726,227.243729 277.692322,228.333603 277.665070,230.562454 
	C277.622314,234.056976 277.549255,237.530380 276.575470,241.312042 
z"/>
<path fill="#FB979E" opacity="1.000000" stroke="none" 
	d="
M63.400127,137.960190 
	C65.290825,138.080368 67.749664,137.335403 65.730064,140.321991 
	C58.433067,151.112793 51.167336,161.924744 43.003422,174.044601 
	C43.003422,161.676590 43.030968,150.829193 42.982243,139.982117 
	C42.971329,137.553329 44.619762,137.974136 46.040676,137.969025 
	C51.683395,137.948730 57.326233,137.960266 63.400127,137.960190 
z"/>
<path fill="#020202" opacity="1.000000" stroke="none" 
	d="
M245.246643,366.959839 
	C253.876434,366.959991 262.038635,366.920288 270.200226,366.974640 
	C275.672546,367.011108 278.950256,369.793579 279.031921,374.296173 
	C279.117645,379.023071 275.776672,381.917297 269.994873,381.954529 
	C261.666687,382.008179 253.337906,381.980682 245.009445,381.964386 
	C238.307632,381.951294 234.882019,379.323395 234.965729,374.308807 
	C235.045303,369.541351 238.297073,367.106171 245.246643,366.959839 
z"/>
<path fill="#020101" opacity="1.000000" stroke="none" 
	d="
M371.000732,138.735443 
	C370.999969,126.779602 370.997803,115.291306 371.000519,103.803009 
	C371.003998,89.138626 377.210083,83.002686 392.043915,82.998634 
	C403.698700,82.995445 415.355988,82.864571 427.006744,83.081490 
	C430.375763,83.144211 431.319641,82.078636 431.054779,78.892731 
	C430.793518,75.750565 431.103943,72.565155 430.956573,69.408371 
	C430.641235,62.653515 426.182129,56.941750 419.825104,54.933819 
	C413.404083,52.905674 406.679138,55.021465 402.429108,60.419594 
	C402.018707,60.940826 401.691437,61.526943 401.289154,62.055206 
	C398.135406,66.196960 394.173859,67.184105 390.522186,64.749168 
	C386.739929,62.227165 386.214935,57.971348 389.118286,53.368263 
	C396.483734,41.690742 411.231354,36.385792 424.451477,40.658390 
	C437.136200,44.757950 445.661133,56.160702 445.987091,69.484550 
	C446.027802,71.148590 446.113678,72.823387 445.982025,74.477562 
	C445.564606,79.722343 445.756714,83.954994 451.952850,86.649025 
	C456.985016,88.836975 459.037689,94.362503 459.049652,100.085678 
	C459.077515,113.405266 459.185852,126.726540 459.017212,140.044037 
	C458.899963,149.300156 451.889618,156.682510 442.612518,156.821671 
	C424.302094,157.096313 405.982147,157.089645 387.671234,156.833206 
	C378.056549,156.698593 371.613251,149.499939 371.000732,138.735443 
z"/>
<path fill="#070602" opacity="1.000000" stroke="none" 
	d="
M93.601097,169.098724 
	C95.405685,170.761536 97.091240,172.202637 97.634941,174.768005 
	C97.790695,185.181747 97.758148,195.341156 97.686234,205.500290 
	C97.674492,207.158157 97.696777,208.860764 97.342567,210.462936 
	C96.469406,214.412445 93.822594,216.526596 89.817986,216.347458 
	C85.569588,216.157394 82.854004,213.706192 82.787964,209.410339 
	C82.613876,198.085938 82.524612,186.751831 82.816650,175.432297 
	C82.959320,169.902374 87.009949,167.702972 93.601097,169.098724 
z"/>
<path fill="#080703" opacity="1.000000" stroke="none" 
	d="
M96.138435,229.821533 
	C98.400917,233.810532 97.983124,237.168716 94.800568,239.928757 
	C92.306862,242.091370 89.386917,242.345184 86.504021,240.723648 
	C83.410706,238.983765 82.282822,236.179672 82.874359,232.733536 
	C83.927818,226.596405 90.287712,225.036957 96.138435,229.821533 
z"/>
<path fill="#FDEEAC" opacity="1.000000" stroke="none" 
	d="
M406.000793,98.000336 
	C417.310394,98.000343 428.122833,98.137558 438.928467,97.926224 
	C442.729187,97.851891 444.261963,98.772858 444.167053,102.913597 
	C443.904175,114.382576 443.976013,125.862900 444.136475,137.335648 
	C444.184601,140.773697 443.102386,142.014816 439.577148,141.984451 
	C423.280518,141.844086 406.981598,141.861664 390.684540,141.973206 
	C387.365723,141.995911 385.880554,141.121964 385.936340,137.482712 
	C386.114716,125.844154 386.102753,114.199745 385.941010,102.560699 
	C385.892792,99.091049 387.025085,97.784248 390.536133,97.943367 
	C395.515045,98.168999 400.511810,98.000443 406.000793,98.000336 
z"/>
<path fill="#070705" opacity="1.000000" stroke="none" 
	d="
M407.252380,117.666443 
	C409.076691,113.753937 411.794830,112.062073 415.767883,112.692307 
	C418.899261,113.189026 420.765656,115.202377 421.633820,118.073593 
	C422.540741,121.073090 421.451111,123.651413 419.178253,125.640205 
	C416.831909,127.693336 413.973267,127.946205 411.274139,126.685722 
	C407.686401,125.010277 406.448486,121.911003 407.252380,117.666443 
z"/>
</svg>