<svg version="1.1" id="Layer_1" xmlns="http://www.w3.org/2000/svg" xmlns:xlink="http://www.w3.org/1999/xlink" x="0px" y="0px"
	 width="100%" viewBox="0 0 512 512" enable-background="new 0 0 512 512" xml:space="preserve">
<path fill="#010101" opacity="1.000000" stroke="none" 
	d="
M513.000000,468.000000 
	C513.000000,482.887726 513.000000,497.775482 513.000000,513.000000 
	C508.320496,513.000000 503.632904,513.000000 498.448242,512.532959 
	C497.893127,506.712189 497.835022,501.358521 497.856140,495.545776 
	C497.935333,491.167664 497.935333,487.248688 497.935333,483.090210 
	C495.412903,483.090210 493.596985,483.090210 491.781067,483.090210 
	C434.327576,483.090210 376.874054,483.109283 319.420685,483.031281 
	C316.669434,483.027527 313.734619,482.633942 311.196960,481.632294 
	C280.451050,469.496887 249.762405,457.216370 219.065948,444.955933 
	C217.776352,444.440857 216.555908,443.752716 214.927628,442.963074 
	C215.857208,442.427246 216.237335,442.141663 216.663589,441.971893 
	C248.606247,429.248322 280.541229,416.505188 312.524719,403.885040 
	C314.600098,403.066132 317.050537,402.929596 319.326935,402.927612 
	C376.780396,402.877655 434.233887,402.888336 491.687378,402.888336 
	C493.633759,402.888336 495.580139,402.888336 497.775482,402.888336 
	C497.775482,398.230652 497.775482,394.110413 497.851196,389.527039 
	C497.926880,283.468933 497.926880,177.873962 497.926880,72.155632 
	C369.361359,72.155632 241.211761,72.155632 113.069778,72.155632 
	C113.069778,100.005486 113.069778,127.479378 112.969955,155.413269 
	C112.870140,159.453445 112.870140,163.033600 112.870140,166.646484 
	C118.114235,166.646484 122.919113,166.646484 127.653694,166.646484 
	C127.653694,162.463593 127.653694,158.689697 127.737961,154.459595 
	C127.822220,131.756821 127.822220,109.510246 127.822220,87.305885 
	C246.554825,87.305885 364.597382,87.305885 482.648499,87.305885 
	C482.648499,132.323013 482.648499,177.044235 482.648499,222.036224 
	C480.370636,222.036224 478.391266,222.036224 476.411926,222.036224 
	C389.271057,222.036224 302.130188,222.035141 214.989334,222.042953 
	C212.993668,222.043137 210.998001,222.143875 208.543701,222.120361 
	C204.188187,222.043030 200.291290,222.043030 196.397095,222.043030 
	C196.397095,227.357147 196.397095,232.046585 196.397095,236.867676 
	C200.801620,236.867676 204.899078,236.867676 209.460541,236.939392 
	C237.486740,237.011124 265.048920,237.011124 292.613464,237.011124 
	C292.613464,272.367249 292.613464,307.066315 292.613464,342.073029 
	C290.346436,342.073029 288.370850,342.069183 286.395294,342.073578 
	C260.598236,342.130981 234.801193,342.189545 208.545532,342.166901 
	C204.168762,342.085968 200.250595,342.085968 196.090195,342.085968 
	C196.090195,344.615112 196.090195,346.431183 196.090195,348.247253 
	C196.089844,394.700745 196.113708,441.154236 196.074814,487.607697 
	C196.062729,502.032349 188.213593,510.693176 173.568710,512.109619 
	C151.730408,512.022095 130.357132,511.995178 108.984032,512.046631 
	C107.655266,512.049805 106.327972,512.667908 105.000000,513.000000 
	C77.645775,513.000000 50.291542,513.000000 22.332687,512.616455 
	C19.239676,511.724670 16.620375,511.552765 14.287623,510.644745 
	C7.491999,507.999420 3.776072,502.386017 1.000000,496.000000 
	C1.000000,391.979095 1.000000,287.958221 1.357577,183.363022 
	C3.873284,174.003250 12.908524,166.802856 21.991001,166.907059 
	C45.487137,167.176651 68.988419,167.001419 92.487640,166.987701 
	C93.924286,166.986862 95.360840,166.845886 97.000000,166.759430 
	C97.000000,111.284370 97.000000,56.142185 97.000000,1.000000 
	C235.593811,1.000000 374.187622,1.000000 513.000000,1.000000 
	C513.000000,139.687485 513.000000,278.375092 512.533691,417.480408 
	C452.880493,417.898132 393.693634,417.898132 333.468201,417.898132 
	C341.491211,426.786682 348.698975,434.771942 356.090607,442.960999 
	C348.653290,451.227936 341.400269,459.290039 333.564392,468.000000 
	C394.113129,468.000000 453.556580,468.000000 513.000000,468.000000 
M208.115723,252.066086 
	C204.198044,252.066086 200.280365,252.066086 196.371841,252.066086 
	C196.371841,277.414612 196.371841,301.995850 196.371841,326.891541 
	C200.775665,326.891541 204.897751,326.891541 209.946930,327.019745 
	C232.518494,327.019745 255.090057,327.019745 277.637878,327.019745 
	C277.637878,301.695984 277.637878,277.110962 277.637878,252.207504 
	C254.593826,252.207504 231.817505,252.207504 208.115723,252.066086 
M181.074051,253.094742 
	C181.074051,249.182816 181.074051,245.270889 181.074051,241.376709 
	C125.689568,241.376709 71.077980,241.376709 16.185211,241.376709 
	C16.185211,245.817993 16.185211,249.939423 16.071472,254.984085 
	C16.071472,306.209686 16.071472,357.435303 16.071472,408.754883 
	C27.487452,408.754883 38.371525,408.754883 49.683659,408.754883 
	C49.683659,406.814819 49.683495,405.182617 49.683685,403.550415 
	C49.685181,390.729919 49.719006,377.909332 49.680397,365.088959 
	C49.628311,347.793976 56.393429,333.821625 70.001328,323.169373 
	C71.760025,321.792694 73.638046,320.568451 75.508698,319.239563 
	C51.387436,295.196869 64.557426,262.041382 89.696976,254.783157 
	C96.839668,252.334000 103.978912,252.865356 111.813728,255.021027 
	C123.330933,259.122253 131.433319,266.779907 135.276001,278.434937 
	C140.420486,294.038422 136.106140,307.451599 124.728966,318.894714 
	C125.367645,319.499023 125.669250,319.892609 126.062523,320.140991 
	C143.523972,331.169922 151.348343,347.203247 151.028412,367.631165 
	C150.840698,379.616272 150.994232,391.606720 150.994247,403.594788 
	C150.994247,405.350433 150.994232,407.106079 150.994232,408.694611 
	C161.431442,408.694611 171.160828,408.694611 181.084183,408.694611 
	C181.084183,400.510590 181.091232,392.695984 181.083008,384.881378 
	C181.037079,341.260864 180.987457,297.640381 181.074051,253.094742 
M142.898483,155.901108 
	C142.898483,159.498932 142.898483,163.096756 142.898483,167.030807 
	C153.061905,167.030807 162.678040,166.953201 172.292450,167.049026 
	C186.663742,167.192230 195.913620,176.485046 196.078949,190.851135 
	C196.139572,196.118881 196.088730,201.387909 196.088730,206.861069 
	C200.766281,206.861069 204.887329,206.861069 209.934494,207.007431 
	C295.832397,207.007431 381.730316,207.007431 467.619568,207.007431 
	C467.619568,171.707413 467.619568,136.991562 467.619568,102.309540 
	C359.251190,102.309540 251.208832,102.309540 143.086563,102.309540 
	C143.086563,120.063507 143.086563,137.524872 142.898483,155.901108 
M446.500000,15.996185 
	C335.436096,15.996185 224.372223,15.996185 113.256683,15.996185 
	C113.256683,29.800327 113.256683,43.149990 113.256683,56.429073 
	C241.661362,56.429073 369.668976,56.429073 497.666870,56.429073 
	C497.666870,42.827000 497.666870,29.578789 497.666870,15.996185 
	C480.756317,15.996185 464.128143,15.996185 446.500000,15.996185 
M19.724304,424.073181 
	C16.394974,423.467834 15.987218,425.243744 16.001472,428.065552 
	C16.101603,447.885345 16.021929,467.705994 16.073191,487.526154 
	C16.091249,494.509216 18.735939,497.072723 25.844936,497.075958 
	C74.313095,497.098083 122.781288,497.096863 171.249451,497.076843 
	C178.656494,497.073792 181.067307,494.629913 181.077789,487.174011 
	C181.105423,467.520294 181.092072,447.866486 181.076889,428.212738 
	C181.075897,426.939484 180.920914,425.666351 180.816620,424.073120 
	C127.213326,424.073120 73.946899,424.073120 19.724304,424.073181 
M181.022888,189.109497 
	C179.341934,183.326706 177.545929,182.041260 170.816650,182.037903 
	C139.511017,182.022324 108.205376,182.030640 76.899742,182.030518 
	C60.081287,182.030441 43.262806,182.012985 26.444389,182.038391 
	C18.531061,182.050339 16.093145,184.553177 16.053288,192.569061 
	C16.035900,196.065872 16.050184,199.562866 16.050169,203.059769 
	C16.050137,210.648758 16.050159,218.237747 16.050159,225.719635 
	C71.430183,225.719635 126.130928,225.719635 181.076370,225.719635 
	C181.076370,213.605942 181.076370,201.804337 181.022888,189.109497 
M135.982742,373.507721 
	C135.967422,370.010559 136.091965,366.506287 135.913528,363.017456 
	C134.937973,343.940735 121.477501,329.908630 102.589401,328.183319 
	C85.633392,326.634430 67.820099,338.852020 65.809570,356.479309 
	C63.849072,373.667908 65.383415,391.255157 65.383415,408.744537 
	C88.697151,408.744537 112.230148,408.744537 135.982742,408.744537 
	C135.982742,397.116943 135.982742,385.811096 135.982742,373.507721 
M119.819977,301.110535 
	C123.912872,292.355225 123.522804,283.942902 117.306252,276.349396 
	C111.673058,269.468414 104.204887,266.764191 95.461807,268.592743 
	C85.173721,270.744446 78.245605,279.047577 77.723618,289.328217 
	C77.201942,299.602600 83.505745,308.811310 93.162384,311.881409 
	C103.271713,315.095428 112.982063,311.342834 119.819977,301.110535 
M309.432922,421.088470 
	C308.358032,421.524414 307.281189,421.955597 306.208618,422.397186 
	C302.224518,424.037292 296.611450,424.632996 294.699951,427.606903 
	C292.633606,430.821747 293.925018,436.259247 293.932770,440.726959 
	C293.943146,446.696167 291.961578,454.225494 294.829956,458.207367 
	C297.865417,462.421265 305.587036,463.259491 311.261841,465.572144 
	C311.568878,465.697235 311.899353,465.967010 312.179016,465.921906 
	C313.357086,465.731934 314.951355,465.851990 315.621826,465.136047 
	C322.408539,457.889435 329.043457,450.500580 335.894318,442.960846 
	C329.444305,435.865906 323.142395,429.263428 317.264252,422.303101 
	C314.965149,419.580780 312.961212,419.159271 309.432922,421.088470 
M273.879791,450.758514 
	C275.378296,451.217529 276.876770,451.676544 278.654114,452.220947 
	C278.654114,445.782288 278.654114,440.047150 278.654114,433.418488 
	C270.743042,436.574432 263.397644,439.504700 254.696915,442.975647 
	C261.858795,445.864166 267.509369,448.143158 273.879791,450.758514 
z"/>
<path fill="#FFFFFF" opacity="1.000000" stroke="none" 
	d="
M96.531342,1.000000 
	C97.000000,56.142185 97.000000,111.284370 97.000000,166.759430 
	C95.360840,166.845886 93.924286,166.986862 92.487640,166.987701 
	C68.988419,167.001419 45.487137,167.176651 21.991001,166.907059 
	C12.908524,166.802856 3.873284,174.003250 1.357577,182.894363 
	C1.000000,122.428925 1.000000,61.857853 1.000000,1.000000 
	C32.686985,1.000000 64.374832,1.000000 96.531342,1.000000 
z"/>
<path fill="#64B3F3" opacity="1.000000" stroke="none" 
	d="
M497.775482,389.990173 
	C497.775482,394.110413 497.775482,398.230652 497.775482,402.888336 
	C495.580139,402.888336 493.633759,402.888336 491.687378,402.888336 
	C434.233887,402.888336 376.780396,402.877655 319.326935,402.927612 
	C317.050537,402.929596 314.600098,403.066132 312.524719,403.885040 
	C280.541229,416.505188 248.606247,429.248322 216.663589,441.971893 
	C216.237335,442.141663 215.857208,442.427246 214.927628,442.963074 
	C216.555908,443.752716 217.776352,444.440857 219.065948,444.955933 
	C249.762405,457.216370 280.451050,469.496887 311.196960,481.632294 
	C313.734619,482.633942 316.669434,483.027527 319.420685,483.031281 
	C376.874054,483.109283 434.327576,483.090210 491.781067,483.090210 
	C493.596985,483.090210 495.412903,483.090210 497.935333,483.090210 
	C497.935333,487.248688 497.935333,491.167664 497.401978,495.542816 
	C437.238342,495.991791 377.608063,495.992035 317.977783,495.947449 
	C315.852234,495.945862 313.550049,495.951355 311.628387,495.195404 
	C285.363098,484.862793 259.151062,474.394745 232.924316,463.964050 
	C225.278122,460.923065 217.626907,457.894745 208.977631,454.463776 
	C208.977631,457.012390 208.977631,458.602142 208.977631,460.191895 
	C208.977600,468.020447 208.885727,475.850372 208.999863,483.677246 
	C209.156860,494.444244 206.899460,504.422028 200.000000,513.000000 
	C191.645767,513.000000 183.291534,513.000000 174.480316,512.797119 
	C174.023331,512.594299 174.033768,512.188110 174.033768,512.188110 
	C188.213593,510.693176 196.062729,502.032349 196.074814,487.607697 
	C196.113708,441.154236 196.089844,394.700745 196.090195,348.247253 
	C196.090195,346.431183 196.090195,344.615112 196.090195,342.085968 
	C200.250595,342.085968 204.168762,342.085968 208.544098,342.619446 
	C209.001282,372.334381 209.001282,401.515808 209.001282,430.863861 
	C210.535965,430.728058 211.060699,430.798218 211.488953,430.627045 
	C238.786453,419.715179 266.192596,409.062408 293.314880,397.730377 
	C305.924408,392.461975 318.460632,389.645447 332.330139,389.785492 
	C387.473663,390.342316 442.626251,389.999664 497.775482,389.990173 
z"/>
<path fill="#F44336" opacity="1.000000" stroke="none" 
	d="
M513.000000,467.531342 
	C453.556580,468.000000 394.113129,468.000000 333.564392,468.000000 
	C341.400269,459.290039 348.653290,451.227936 356.090607,442.960999 
	C348.698975,434.771942 341.491211,426.786682 333.468201,417.898132 
	C393.693634,417.898132 452.880493,417.898132 512.533691,417.949066 
	C513.000000,434.354218 513.000000,450.708466 513.000000,467.531342 
z"/>
<path fill="#90CAF9" opacity="1.000000" stroke="none" 
	d="
M200.468658,513.000000 
	C206.899460,504.422028 209.156860,494.444244 208.999863,483.677246 
	C208.885727,475.850372 208.977600,468.020447 208.977631,460.191895 
	C208.977631,458.602142 208.977631,457.012390 208.977631,454.463776 
	C217.626907,457.894745 225.278122,460.923065 232.924316,463.964050 
	C259.151062,474.394745 285.363098,484.862793 311.628387,495.195404 
	C313.550049,495.951355 315.852234,495.945862 317.977783,495.947449 
	C377.608063,495.992035 437.238342,495.991791 497.322784,496.001892 
	C497.835022,501.358521 497.893127,506.712189 497.975586,512.532959 
	C398.979095,513.000000 299.958221,513.000000 200.468658,513.000000 
z"/>
<path fill="#FFFFFF" opacity="1.000000" stroke="none" 
	d="
M1.000000,496.470459 
	C3.776072,502.386017 7.491999,507.999420 14.287623,510.644745 
	C16.620375,511.552765 19.239676,511.724670 21.864031,512.616455 
	C15.082305,513.000000 8.164609,513.000000 1.000000,513.000000 
	C1.000000,507.649475 1.000000,502.295197 1.000000,496.470459 
z"/>
<path fill="#5499CF" opacity="1.000000" stroke="none" 
	d="
M173.568710,512.109619 
	C174.033768,512.188110 174.023331,512.594299 174.011658,512.797119 
	C151.312439,513.000000 128.624878,513.000000 105.468658,513.000000 
	C106.327972,512.667908 107.655266,512.049805 108.984032,512.046631 
	C130.357132,511.995178 151.730408,512.022095 173.568710,512.109619 
z"/>
<path fill="#90CAF8" opacity="1.000000" stroke="none" 
	d="
M497.851196,389.527039 
	C442.626251,389.999664 387.473663,390.342316 332.330139,389.785492 
	C318.460632,389.645447 305.924408,392.461975 293.314880,397.730377 
	C266.192596,409.062408 238.786453,419.715179 211.488953,430.627045 
	C211.060699,430.798218 210.535965,430.728058 209.001282,430.863861 
	C209.001282,401.515808 209.001282,372.334381 209.002716,342.700378 
	C234.801193,342.189545 260.598236,342.130981 286.395294,342.073578 
	C288.370850,342.069183 290.346436,342.073029 292.613464,342.073029 
	C292.613464,307.066315 292.613464,272.367249 292.613464,237.011124 
	C265.048920,237.011124 237.486740,237.011124 209.453918,236.482849 
	C208.989639,231.368958 208.995987,226.783325 209.002350,222.197693 
	C210.998001,222.143875 212.993668,222.043137 214.989334,222.042953 
	C302.130188,222.035141 389.271057,222.036224 476.411926,222.036224 
	C478.391266,222.036224 480.370636,222.036224 482.648499,222.036224 
	C482.648499,177.044235 482.648499,132.323013 482.648499,87.305885 
	C364.597382,87.305885 246.554825,87.305885 127.822220,87.305885 
	C127.822220,109.510246 127.822220,131.756821 127.294685,154.469910 
	C122.201363,154.942047 117.635567,154.947662 113.069778,154.953262 
	C113.069778,127.479378 113.069778,100.005486 113.069778,72.155632 
	C241.211761,72.155632 369.361359,72.155632 497.926880,72.155632 
	C497.926880,177.873962 497.926880,283.468933 497.851196,389.527039 
M317.905212,254.501190 
	C317.905212,283.588043 317.905212,312.674896 317.905212,341.788208 
	C373.189758,341.788208 427.900940,341.788208 482.658630,341.788208 
	C482.658630,306.786316 482.658630,272.069244 482.658630,237.312424 
	C427.648285,237.312424 372.932465,237.312424 317.905212,237.312424 
	C317.905212,242.893951 317.905212,248.197845 317.905212,254.501190 
M444.536224,358.023773 
	C442.449280,358.023773 440.362335,358.023773 438.292877,358.023773 
	C438.292877,363.440002 438.292877,368.010162 438.292877,372.698914 
	C443.247406,372.698914 447.813354,372.698914 452.623383,372.698914 
	C452.623383,367.784180 452.623383,363.215973 452.623383,358.023804 
	C450.050293,358.023804 447.770721,358.023804 444.536224,358.023773 
M422.924713,369.279816 
	C422.924713,365.700165 422.924713,362.120514 422.924713,358.456390 
	C417.570374,358.456390 412.906799,358.456390 408.263794,358.456390 
	C408.263794,363.439026 408.263794,367.981323 408.263794,373.021088 
	C412.534912,373.021088 416.474945,373.193054 420.378723,372.893005 
	C421.287933,372.823151 422.073761,371.148102 422.924713,369.279816 
M392.925964,364.551178 
	C392.925964,362.474976 392.925964,360.398804 392.925964,358.438416 
	C387.430847,358.438416 382.856384,358.438416 378.287659,358.438416 
	C378.287659,363.429382 378.287659,367.999573 378.287659,372.703979 
	C383.236938,372.703979 387.803162,372.703979 392.925842,372.703979 
	C392.925842,370.081757 392.925842,367.792542 392.925964,364.551178 
M357.393982,373.044769 
	C359.139465,372.942719 360.884949,372.840637 362.500000,372.746216 
	C362.500000,367.530060 362.500000,362.961548 362.500000,358.402283 
	C357.502838,358.402283 352.930237,358.402283 348.238617,358.402283 
	C348.238617,363.355225 348.238617,367.923645 348.238617,373.044861 
	C351.196960,373.044861 353.819733,373.044861 357.393982,373.044769 
z"/>
<path fill="#FDCC16" opacity="1.000000" stroke="none" 
	d="
M143.086563,154.986237 
	C143.086563,137.524872 143.086563,120.063507 143.086563,102.309540 
	C251.208832,102.309540 359.251190,102.309540 467.619568,102.309540 
	C467.619568,136.991562 467.619568,171.707413 467.619568,207.007431 
	C381.730316,207.007431 295.832397,207.007431 209.466461,206.474976 
	C208.666367,198.850388 208.454300,191.750168 207.977448,184.667786 
	C206.957809,169.523346 191.496216,155.036728 176.436356,155.003571 
	C165.319794,154.979095 154.203171,154.990707 143.086563,154.986237 
M403.500000,193.033646 
	C419.260529,193.033646 435.021057,193.033646 450.919678,193.033646 
	C450.919678,187.786957 450.919678,183.093018 450.919678,178.396164 
	C408.898468,178.396164 367.245728,178.396164 325.497314,178.396164 
	C325.497314,183.349792 325.497314,187.932632 325.497314,193.033661 
	C351.346344,193.033661 376.923187,193.033661 403.500000,193.033646 
M339.500000,163.033768 
	C366.610626,163.033768 393.721252,163.033768 420.845947,163.033768 
	C420.845947,157.719498 420.845947,153.018784 420.845947,148.338867 
	C382.185883,148.338867 343.938293,148.338867 305.626160,148.338867 
	C305.626160,153.364944 305.626160,158.073639 305.626160,163.033783 
	C316.852570,163.033783 327.676270,163.033783 339.500000,163.033768 
M388.499969,133.268173 
	C409.287445,133.268173 430.074951,133.268173 451.138031,133.268173 
	C451.138031,128.106857 451.138031,123.392715 451.138031,118.660767 
	C418.256927,118.660767 385.749664,118.660767 353.308105,118.660767 
	C353.308105,123.685852 353.308105,128.280838 353.308105,133.268448 
	C364.911804,133.268448 376.205872,133.268448 388.499969,133.268173 
M450.032562,162.993576 
	C450.728363,158.202057 451.424133,153.410538 452.172699,148.255737 
	C446.277832,148.255737 441.569885,148.255737 436.562408,148.255737 
	C436.562408,153.180252 436.562408,157.869659 436.562408,163.038300 
	C440.936218,163.038300 445.029236,163.038300 450.032562,162.993576 
M268.736328,193.042358 
	C272.475189,193.042358 276.214050,193.042358 279.814209,193.042358 
	C279.814209,187.633698 279.814209,182.952133 279.814209,178.310730 
	C274.824097,178.310730 270.265015,178.310730 265.230286,178.310730 
	C265.230286,182.686478 265.099701,186.791565 265.346344,190.873871 
	C265.392700,191.641373 266.944366,192.317963 268.736328,193.042358 
M295.207062,185.505295 
	C295.207062,187.919006 295.207062,190.332733 295.207062,192.630859 
	C300.646423,192.630859 305.341949,192.630859 309.954224,192.630859 
	C309.954224,187.643967 309.954224,183.074371 309.954224,178.361420 
	C304.982910,178.361420 300.303467,178.361420 295.207245,178.361420 
	C295.207245,180.654053 295.207245,182.607498 295.207062,185.505295 
z"/>
<path fill="#ADBBC2" opacity="1.000000" stroke="none" 
	d="
M447.000000,15.996185 
	C464.128143,15.996185 480.756317,15.996185 497.666870,15.996185 
	C497.666870,29.578789 497.666870,42.827000 497.666870,56.429073 
	C369.668976,56.429073 241.661362,56.429073 113.256683,56.429073 
	C113.256683,43.149990 113.256683,29.800327 113.256683,15.996185 
	C224.372223,15.996185 335.436096,15.996185 447.000000,15.996185 
M434.500000,43.907982 
	C450.287323,43.907982 466.074646,43.907982 481.995972,43.907982 
	C481.995972,38.664570 481.995972,33.952206 481.995972,29.150787 
	C397.248352,29.150787 312.831512,29.150787 228.300705,29.150787 
	C228.300705,34.121849 228.300705,38.847000 228.300705,43.907970 
	C296.899109,43.907970 365.199554,43.907970 434.500000,43.907982 
M172.230438,28.952927 
	C168.314606,28.952927 164.398773,28.952927 160.359680,28.952927 
	C160.359680,34.270016 160.359680,38.930714 160.359680,43.632591 
	C165.338684,43.632591 169.881897,43.632591 174.965103,43.632591 
	C174.965103,40.197903 175.167633,37.079281 174.885269,34.005196 
	C174.728714,32.300987 173.761719,30.671227 172.230438,28.952927 
M190.241486,43.063061 
	C195.008026,43.451954 199.774567,43.840847 204.620667,44.236233 
	C204.620667,38.570488 204.620667,34.024120 204.620667,29.379282 
	C199.604477,29.379282 194.939590,29.379282 189.999283,29.379282 
	C189.999283,33.931759 189.999283,38.048748 190.241486,43.063061 
M144.963745,32.706558 
	C144.261795,31.468420 143.645920,29.228945 142.843445,29.159954 
	C138.658295,28.800144 134.425674,28.992140 130.301041,28.992140 
	C130.301041,34.405804 130.301041,38.949326 130.301041,43.509262 
	C135.353836,43.509262 140.019089,43.509262 144.964966,43.509262 
	C144.964966,39.916454 144.964966,36.783138 144.963745,32.706558 
z"/>
<path fill="#AFBDC4" opacity="1.000000" stroke="none" 
	d="
M20.202391,424.073151 
	C73.946899,424.073120 127.213326,424.073120 180.816620,424.073120 
	C180.920914,425.666351 181.075897,426.939484 181.076889,428.212738 
	C181.092072,447.866486 181.105423,467.520294 181.077789,487.174011 
	C181.067307,494.629913 178.656494,497.073792 171.249451,497.076843 
	C122.781288,497.096863 74.313095,497.098083 25.844936,497.075958 
	C18.735939,497.072723 16.091249,494.509216 16.073191,487.526154 
	C16.021929,467.705994 16.101603,447.885345 16.001472,428.065552 
	C15.987218,425.243744 16.394974,423.467834 20.202391,424.073151 
M79.070290,468.077332 
	C79.397789,468.840393 79.676094,469.629181 80.060158,470.362640 
	C85.976807,481.661530 98.594170,486.187561 109.696777,481.006805 
	C120.515068,475.958679 125.486549,463.556732 121.142365,452.454376 
	C116.819565,441.406677 104.602898,435.628998 93.314270,439.293518 
	C81.687767,443.067719 75.533440,455.014771 79.070290,468.077332 
z"/>
<path fill="#1BB8D9" opacity="1.000000" stroke="none" 
	d="
M88.896629,254.819199 
	C64.557426,262.041382 51.387436,295.196869 75.508698,319.239563 
	C73.638046,320.568451 71.760025,321.792694 70.001328,323.169373 
	C56.393429,333.821625 49.628311,347.793976 49.680397,365.088959 
	C49.719006,377.909332 49.685181,390.729919 49.683685,403.550415 
	C49.683495,405.182617 49.683659,406.814819 49.683659,408.754883 
	C38.371525,408.754883 27.487452,408.754883 16.071472,408.754883 
	C16.071472,357.435303 16.071472,306.209686 16.583523,254.489380 
	C39.628685,253.975189 62.161819,253.939896 84.694847,253.974213 
	C86.095871,253.976334 87.496056,254.524872 88.896629,254.819199 
z"/>
<path fill="#1BB9DA" opacity="1.000000" stroke="none" 
	d="
M180.939087,254.019882 
	C180.987457,297.640381 181.037079,341.260864 181.083008,384.881378 
	C181.091232,392.695984 181.084183,400.510590 181.084183,408.694611 
	C171.160828,408.694611 161.431442,408.694611 150.994232,408.694611 
	C150.994232,407.106079 150.994247,405.350433 150.994247,403.594788 
	C150.994232,391.606720 150.840698,379.616272 151.028412,367.631165 
	C151.348343,347.203247 143.523972,331.169922 126.062523,320.140991 
	C125.669250,319.892609 125.367645,319.499023 124.728966,318.894714 
	C136.106140,307.451599 140.420486,294.038422 135.276001,278.434937 
	C131.433319,266.779907 123.330933,259.122253 111.762115,254.634552 
	C134.786697,254.172012 157.862885,254.095947 180.939087,254.019882 
z"/>
<path fill="#AEBCC3" opacity="1.000000" stroke="none" 
	d="
M181.049622,189.556122 
	C181.076370,201.804337 181.076370,213.605942 181.076370,225.719635 
	C126.130928,225.719635 71.430183,225.719635 16.050159,225.719635 
	C16.050159,218.237747 16.050137,210.648758 16.050169,203.059769 
	C16.050184,199.562866 16.035900,196.065872 16.053288,192.569061 
	C16.093145,184.553177 18.531061,182.050339 26.444389,182.038391 
	C43.262806,182.012985 60.081287,182.030441 76.899742,182.030518 
	C108.205376,182.030640 139.511017,182.022324 170.816650,182.037903 
	C177.545929,182.041260 179.341934,183.326706 181.049622,189.556122 
M107.500229,196.554291 
	C96.884422,196.554291 86.268623,196.554291 75.510544,196.554291 
	C75.510544,201.802322 75.510544,206.505890 75.510544,211.283600 
	C102.198593,211.283600 128.550385,211.283600 155.031433,211.283600 
	C155.031433,206.300949 155.031433,201.682953 155.031433,196.554611 
	C139.386719,196.554611 123.943489,196.554611 107.500229,196.554291 
M45.141090,200.802032 
	C45.141090,204.246765 45.141090,207.691513 45.141090,211.337158 
	C50.410698,211.337158 55.135521,211.337158 59.843937,211.337158 
	C59.843937,206.293823 59.843937,201.579941 59.843937,196.548676 
	C55.667522,196.548676 51.833973,196.306976 48.067146,196.701813 
	C46.992474,196.814453 46.111465,198.774643 45.141090,200.802032 
z"/>
<path fill="#FEDFB1" opacity="1.000000" stroke="none" 
	d="
M135.982742,374.006470 
	C135.982742,385.811096 135.982742,397.116943 135.982742,408.744537 
	C112.230148,408.744537 88.697151,408.744537 65.383415,408.744537 
	C65.383415,391.255157 63.849072,373.667908 65.809570,356.479309 
	C67.820099,338.852020 85.633392,326.634430 102.589401,328.183319 
	C121.477501,329.908630 134.937973,343.940735 135.913528,363.017456 
	C136.091965,366.506287 135.967422,370.010559 135.982742,374.006470 
z"/>
<path fill="#9BCB65" opacity="1.000000" stroke="none" 
	d="
M209.041183,252.207504 
	C231.817505,252.207504 254.593826,252.207504 277.637878,252.207504 
	C277.637878,277.110962 277.637878,301.695984 277.637878,327.019745 
	C255.090057,327.019745 232.518494,327.019745 209.466980,326.494629 
	C209.005081,301.382202 209.023132,276.794861 209.041183,252.207504 
z"/>
<path fill="#0780A6" opacity="1.000000" stroke="none" 
	d="
M181.006561,253.557312 
	C157.862885,254.095947 134.786697,254.172012 111.413498,254.528046 
	C103.978912,252.865356 96.839668,252.334000 89.296799,254.801178 
	C87.496056,254.524872 86.095871,253.976334 84.694847,253.974213 
	C62.161819,253.939896 39.628685,253.975189 16.640392,254.027740 
	C16.185211,249.939423 16.185211,245.817993 16.185211,241.376709 
	C71.077980,241.376709 125.689568,241.376709 181.074051,241.376709 
	C181.074051,245.270889 181.074051,249.182816 181.006561,253.557312 
z"/>
<path fill="#FCDDB0" opacity="1.000000" stroke="none" 
	d="
M119.613708,301.424713 
	C112.982063,311.342834 103.271713,315.095428 93.162384,311.881409 
	C83.505745,308.811310 77.201942,299.602600 77.723618,289.328217 
	C78.245605,279.047577 85.173721,270.744446 95.461807,268.592743 
	C104.204887,266.764191 111.673058,269.468414 117.306252,276.349396 
	C123.522804,283.942902 123.912872,292.355225 119.613708,301.424713 
z"/>
<path fill="#FDDEB0" opacity="1.000000" stroke="none" 
	d="
M309.789856,420.988312 
	C312.961212,419.159271 314.965149,419.580780 317.264252,422.303101 
	C323.142395,429.263428 329.444305,435.865906 335.894318,442.960846 
	C329.043457,450.500580 322.408539,457.889435 315.621826,465.136047 
	C314.951355,465.851990 313.357086,465.731934 312.179016,465.921906 
	C311.899353,465.967010 311.568878,465.697235 311.261841,465.572144 
	C305.587036,463.259491 297.865417,462.421265 294.829956,458.207367 
	C291.961578,454.225494 293.943146,446.696167 293.932770,440.726959 
	C293.925018,436.259247 292.633606,430.821747 294.699951,427.606903 
	C296.611450,424.632996 302.224518,424.037292 306.208618,422.397186 
	C307.281189,421.955597 308.358032,421.524414 309.789856,420.988312 
z"/>
<path fill="#F4B11B" opacity="1.000000" stroke="none" 
	d="
M142.992523,155.443665 
	C154.203171,154.990707 165.319794,154.979095 176.436356,155.003571 
	C191.496216,155.036728 206.957809,169.523346 207.977448,184.667786 
	C208.454300,191.750168 208.666367,198.850388 209.003418,206.401794 
	C204.887329,206.861069 200.766281,206.861069 196.088730,206.861069 
	C196.088730,201.387909 196.139572,196.118881 196.078949,190.851135 
	C195.913620,176.485046 186.663742,167.192230 172.292450,167.049026 
	C162.678040,166.953201 153.061905,167.030807 142.898483,167.030807 
	C142.898483,163.096756 142.898483,159.498932 142.992523,155.443665 
z"/>
<path fill="#7BB142" opacity="1.000000" stroke="none" 
	d="
M208.578461,252.136795 
	C209.023132,276.794861 209.005081,301.382202 209.003448,326.430542 
	C204.897751,326.891541 200.775665,326.891541 196.371841,326.891541 
	C196.371841,301.995850 196.371841,277.414612 196.371841,252.066086 
	C200.280365,252.066086 204.198044,252.066086 208.578461,252.136795 
z"/>
<path fill="#5D5D5D" opacity="1.000000" stroke="none" 
	d="
M273.519897,450.590332 
	C267.509369,448.143158 261.858795,445.864166 254.696915,442.975647 
	C263.397644,439.504700 270.743042,436.574432 278.654114,433.418488 
	C278.654114,440.047150 278.654114,445.782288 278.654114,452.220947 
	C276.876770,451.676544 275.378296,451.217529 273.519897,450.590332 
z"/>
<path fill="#64B3F2" opacity="1.000000" stroke="none" 
	d="
M208.543716,222.120361 
	C208.995987,226.783325 208.989639,231.368958 208.989899,236.411133 
	C204.899078,236.867676 200.801620,236.867676 196.397095,236.867676 
	C196.397095,232.046585 196.397095,227.357147 196.397095,222.043030 
	C200.291290,222.043030 204.188187,222.043030 208.543716,222.120361 
z"/>
<path fill="#66ADE5" opacity="1.000000" stroke="none" 
	d="
M112.969955,155.413269 
	C117.635567,154.947662 122.201363,154.942047 127.210419,154.926117 
	C127.653694,158.689697 127.653694,162.463593 127.653694,166.646484 
	C122.919113,166.646484 118.114235,166.646484 112.870140,166.646484 
	C112.870140,163.033600 112.870140,159.453445 112.969955,155.413269 
z"/>
<path fill="#010101" opacity="1.000000" stroke="none" 
	d="
M317.905212,254.001465 
	C317.905212,248.197845 317.905212,242.893951 317.905212,237.312424 
	C372.932465,237.312424 427.648285,237.312424 482.658630,237.312424 
	C482.658630,272.069244 482.658630,306.786316 482.658630,341.788208 
	C427.900940,341.788208 373.189758,341.788208 317.905212,341.788208 
	C317.905212,312.674896 317.905212,283.588043 317.905212,254.001465 
M430.500000,327.045868 
	C442.909729,327.045868 455.319427,327.045868 467.682373,327.045868 
	C467.682373,301.692291 467.682373,277.107208 467.682373,252.347260 
	C422.712921,252.347260 378.010010,252.347260 333.265961,252.347260 
	C333.265961,277.351624 333.265961,302.058594 333.265961,327.045868 
	C365.576996,327.045868 397.538513,327.045868 430.500000,327.045868 
z"/>
<path fill="#FCFEFF" opacity="1.000000" stroke="none" 
	d="
M445.013672,358.023804 
	C447.770721,358.023804 450.050293,358.023804 452.623383,358.023804 
	C452.623383,363.215973 452.623383,367.784180 452.623383,372.698914 
	C447.813354,372.698914 443.247406,372.698914 438.292877,372.698914 
	C438.292877,368.010162 438.292877,363.440002 438.292877,358.023773 
	C440.362335,358.023773 442.449280,358.023773 445.013672,358.023804 
z"/>
<path fill="#FCFEFF" opacity="1.000000" stroke="none" 
	d="
M422.920532,369.745728 
	C422.073761,371.148102 421.287933,372.823151 420.378723,372.893005 
	C416.474945,373.193054 412.534912,373.021088 408.263794,373.021088 
	C408.263794,367.981323 408.263794,363.439026 408.263794,358.456390 
	C412.906799,358.456390 417.570374,358.456390 422.924713,358.456390 
	C422.924713,362.120514 422.924713,365.700165 422.920532,369.745728 
z"/>
<path fill="#FCFEFF" opacity="1.000000" stroke="none" 
	d="
M392.925903,365.027252 
	C392.925842,367.792542 392.925842,370.081757 392.925842,372.703979 
	C387.803162,372.703979 383.236938,372.703979 378.287659,372.703979 
	C378.287659,367.999573 378.287659,363.429382 378.287659,358.438416 
	C382.856384,358.438416 387.430847,358.438416 392.925964,358.438416 
	C392.925964,360.398804 392.925964,362.474976 392.925903,365.027252 
z"/>
<path fill="#FCFEFF" opacity="1.000000" stroke="none" 
	d="
M356.918243,373.044800 
	C353.819733,373.044861 351.196960,373.044861 348.238617,373.044861 
	C348.238617,367.923645 348.238617,363.355225 348.238617,358.402283 
	C352.930237,358.402283 357.502838,358.402283 362.500000,358.402283 
	C362.500000,362.961548 362.500000,367.530060 362.500000,372.746216 
	C360.884949,372.840637 359.139465,372.942719 356.918243,373.044800 
z"/>
<path fill="#FFFFFD" opacity="1.000000" stroke="none" 
	d="
M403.000000,193.033661 
	C376.923187,193.033661 351.346344,193.033661 325.497314,193.033661 
	C325.497314,187.932632 325.497314,183.349792 325.497314,178.396164 
	C367.245728,178.396164 408.898468,178.396164 450.919678,178.396164 
	C450.919678,183.093018 450.919678,187.786957 450.919678,193.033646 
	C435.021057,193.033646 419.260529,193.033646 403.000000,193.033661 
z"/>
<path fill="#FFFFFD" opacity="1.000000" stroke="none" 
	d="
M339.000000,163.033783 
	C327.676270,163.033783 316.852570,163.033783 305.626160,163.033783 
	C305.626160,158.073639 305.626160,153.364944 305.626160,148.338867 
	C343.938293,148.338867 382.185883,148.338867 420.845947,148.338867 
	C420.845947,153.018784 420.845947,157.719498 420.845947,163.033768 
	C393.721252,163.033768 366.610626,163.033768 339.000000,163.033783 
z"/>
<path fill="#FFFEF9" opacity="1.000000" stroke="none" 
	d="
M387.999939,133.268311 
	C376.205872,133.268448 364.911804,133.268448 353.308105,133.268448 
	C353.308105,128.280838 353.308105,123.685852 353.308105,118.660767 
	C385.749664,118.660767 418.256927,118.660767 451.138031,118.660767 
	C451.138031,123.392715 451.138031,128.106857 451.138031,133.268173 
	C430.074951,133.268173 409.287445,133.268173 387.999939,133.268311 
z"/>
<path fill="#FFFDF8" opacity="1.000000" stroke="none" 
	d="
M449.577423,163.015930 
	C445.029236,163.038300 440.936218,163.038300 436.562408,163.038300 
	C436.562408,157.869659 436.562408,153.180252 436.562408,148.255737 
	C441.569885,148.255737 446.277832,148.255737 452.172699,148.255737 
	C451.424133,153.410538 450.728363,158.202057 449.577423,163.015930 
z"/>
<path fill="#FFFEF9" opacity="1.000000" stroke="none" 
	d="
M268.268860,193.039429 
	C266.944366,192.317963 265.392700,191.641373 265.346344,190.873871 
	C265.099701,186.791565 265.230286,182.686478 265.230286,178.310730 
	C270.265015,178.310730 274.824097,178.310730 279.814209,178.310730 
	C279.814209,182.952133 279.814209,187.633698 279.814209,193.042358 
	C276.214050,193.042358 272.475189,193.042358 268.268860,193.039429 
z"/>
<path fill="#FFFEF9" opacity="1.000000" stroke="none" 
	d="
M295.207153,185.033127 
	C295.207245,182.607498 295.207245,180.654053 295.207245,178.361420 
	C300.303467,178.361420 304.982910,178.361420 309.954224,178.361420 
	C309.954224,183.074371 309.954224,187.643967 309.954224,192.630859 
	C305.341949,192.630859 300.646423,192.630859 295.207062,192.630859 
	C295.207062,190.332733 295.207062,187.919006 295.207153,185.033127 
z"/>
<path fill="#020202" opacity="1.000000" stroke="none" 
	d="
M434.000000,43.907974 
	C365.199554,43.907970 296.899109,43.907970 228.300705,43.907970 
	C228.300705,38.847000 228.300705,34.121849 228.300705,29.150787 
	C312.831512,29.150787 397.248352,29.150787 481.995972,29.150787 
	C481.995972,33.952206 481.995972,38.664570 481.995972,43.907982 
	C466.074646,43.907982 450.287323,43.907982 434.000000,43.907974 
z"/>
<path fill="#FDFEFE" opacity="1.000000" stroke="none" 
	d="
M172.695221,28.980417 
	C173.761719,30.671227 174.728714,32.300987 174.885269,34.005196 
	C175.167633,37.079281 174.965103,40.197903 174.965103,43.632591 
	C169.881897,43.632591 165.338684,43.632591 160.359680,43.632591 
	C160.359680,38.930714 160.359680,34.270016 160.359680,28.952927 
	C164.398773,28.952927 168.314606,28.952927 172.695221,28.980417 
z"/>
<path fill="#FDFEFE" opacity="1.000000" stroke="none" 
	d="
M190.120392,42.614399 
	C189.999283,38.048748 189.999283,33.931759 189.999283,29.379282 
	C194.939590,29.379282 199.604477,29.379282 204.620667,29.379282 
	C204.620667,34.024120 204.620667,38.570488 204.620667,44.236233 
	C199.774567,43.840847 195.008026,43.451954 190.120392,42.614399 
z"/>
<path fill="#FDFEFE" opacity="1.000000" stroke="none" 
	d="
M144.964355,33.178188 
	C144.964966,36.783138 144.964966,39.916454 144.964966,43.509262 
	C140.019089,43.509262 135.353836,43.509262 130.301041,43.509262 
	C130.301041,38.949326 130.301041,34.405804 130.301041,28.992140 
	C134.425674,28.992140 138.658295,28.800144 142.843445,29.159954 
	C143.645920,29.228945 144.261795,31.468420 144.964355,33.178188 
z"/>
<path fill="#030303" opacity="1.000000" stroke="none" 
	d="
M78.984375,467.677734 
	C75.533440,455.014771 81.687767,443.067719 93.314270,439.293518 
	C104.602898,435.628998 116.819565,441.406677 121.142365,452.454376 
	C125.486549,463.556732 120.515068,475.958679 109.696777,481.006805 
	C98.594170,486.187561 85.976807,481.661530 80.060158,470.362640 
	C79.676094,469.629181 79.397789,468.840393 78.984375,467.677734 
M98.247643,453.614014 
	C94.617821,454.775238 92.397354,457.380035 93.115829,461.035950 
	C93.563995,463.316376 95.325905,466.300476 97.256165,467.071533 
	C99.415001,467.933929 103.292030,467.549683 104.842659,466.062225 
	C106.558075,464.416718 107.406837,460.749573 106.978676,458.245758 
	C106.311562,454.344574 102.885895,452.991699 98.247643,453.614014 
z"/>
<path fill="#060606" opacity="1.000000" stroke="none" 
	d="
M108.000244,196.554443 
	C123.943489,196.554611 139.386719,196.554611 155.031433,196.554611 
	C155.031433,201.682953 155.031433,206.300949 155.031433,211.283600 
	C128.550385,211.283600 102.198593,211.283600 75.510544,211.283600 
	C75.510544,206.505890 75.510544,201.802322 75.510544,196.554291 
	C86.268623,196.554291 96.884422,196.554291 108.000244,196.554443 
z"/>
<path fill="#080808" opacity="1.000000" stroke="none" 
	d="
M45.141369,200.344833 
	C46.111465,198.774643 46.992474,196.814453 48.067146,196.701813 
	C51.833973,196.306976 55.667522,196.548676 59.843937,196.548676 
	C59.843937,201.579941 59.843937,206.293823 59.843937,211.337158 
	C55.135521,211.337158 50.410698,211.337158 45.141090,211.337158 
	C45.141090,207.691513 45.141090,204.246765 45.141369,200.344833 
z"/>
<path fill="#C45E9A" opacity="1.000000" stroke="none" 
	d="
M430.000000,327.045868 
	C397.538513,327.045868 365.576996,327.045868 333.265961,327.045868 
	C333.265961,302.058594 333.265961,277.351624 333.265961,252.347260 
	C378.010010,252.347260 422.712921,252.347260 467.682373,252.347260 
	C467.682373,277.107208 467.682373,301.692291 467.682373,327.045868 
	C455.319427,327.045868 442.909729,327.045868 430.000000,327.045868 
z"/>
<path fill="#F6F6F6" opacity="1.000000" stroke="none" 
	d="
M98.611641,453.487488 
	C102.885895,452.991699 106.311562,454.344574 106.978676,458.245758 
	C107.406837,460.749573 106.558075,464.416718 104.842659,466.062225 
	C103.292030,467.549683 99.415001,467.933929 97.256165,467.071533 
	C95.325905,466.300476 93.563995,463.316376 93.115829,461.035950 
	C92.397354,457.380035 94.617821,454.775238 98.611641,453.487488 
z"/>
</svg>