<svg version="1.1" id="Layer_1" xmlns="http://www.w3.org/2000/svg" xmlns:xlink="http://www.w3.org/1999/xlink" x="0px" y="0px"
	 width="100%" viewBox="0 0 512 512" enable-background="new 0 0 512 512" xml:space="preserve">
<path fill="#8D1BA5" opacity="1.000000" stroke="none" 
	d="
M1.000001,289.000000 
	C1.000000,267.979095 1.000000,246.958206 1.406483,225.608856 
	C3.201128,218.645935 4.663600,212.026016 5.964736,205.374542 
	C11.973631,174.656799 24.287004,146.557739 41.149189,120.333420 
	C52.743858,102.301208 67.037720,86.562157 82.632774,71.988487 
	C87.367020,67.564301 92.794121,63.881516 97.841621,60.255943 
	C94.378998,77.187576 91.255096,93.754295 91.816879,111.004318 
	C86.889534,115.876427 89.128098,121.791389 88.441086,127.463692 
	C79.113518,133.179321 72.953728,140.905258 69.660568,151.014511 
	C56.472492,191.498886 43.033257,231.902405 30.043535,272.450073 
	C21.688562,298.530243 22.367109,324.669250 32.239449,350.234619 
	C44.080135,380.897217 65.212158,403.038849 95.368294,416.244415 
	C108.920181,422.178802 124.386696,415.393890 128.712830,401.732727 
	C132.274109,390.486786 135.234299,379.050476 138.626678,367.421509 
	C139.212448,365.550201 139.596344,363.945404 140.057983,362.363342 
	C144.400375,347.481659 148.756042,332.603912 153.455612,317.835022 
	C156.309586,319.192566 158.741348,320.628418 161.335236,321.654358 
	C171.372833,325.624329 181.560257,327.315613 192.365097,323.044983 
	C194.763382,322.328308 196.797623,321.656158 199.038773,321.258301 
	C237.114273,347.873138 279.209686,362.164062 325.134430,364.897614 
	C349.167023,366.328094 373.062195,364.451172 396.737122,359.264771 
	C400.610168,372.997253 404.279022,386.424255 408.070984,399.816376 
	C410.841888,409.602386 417.151886,415.975525 427.203583,417.900269 
	C431.004852,418.628174 435.060516,418.027374 438.888123,418.350708 
	C427.167603,429.950409 416.180328,441.974030 403.799927,452.332550 
	C386.769165,466.581940 367.364288,477.259369 346.921906,486.086914 
	C318.413300,498.397705 288.548767,504.473297 257.713959,505.901917 
	C240.536667,506.697815 223.467926,504.909821 206.457886,502.133514 
	C186.446121,498.867310 167.173752,493.147644 148.816971,484.831940 
	C126.173851,474.574524 105.068680,461.736969 86.348724,445.051056 
	C72.710426,432.894684 60.092125,419.885712 49.215019,405.262421 
	C36.140221,387.684570 25.655144,368.601868 17.634851,348.195343 
	C10.424620,329.849884 5.372640,310.945557 2.917764,291.359924 
	C2.810802,290.506592 1.662973,289.783661 1.000001,289.000000 
z"/>
<path fill="#000000" opacity="1.000000" stroke="none" 
	d="
M97.903885,59.859158 
	C92.794121,63.881516 87.367020,67.564301 82.632774,71.988487 
	C67.037720,86.562157 52.743858,102.301208 41.149189,120.333420 
	C24.287004,146.557739 11.973631,174.656799 5.964736,205.374542 
	C4.663600,212.026016 3.201128,218.645935 1.406483,225.140198 
	C1.000000,150.365280 1.000000,75.730560 1.000000,1.047918 
	C171.561691,1.047918 342.123413,1.047918 513.000000,1.047918 
	C513.000000,96.020660 513.000000,191.041672 512.642334,286.423035 
	C511.873962,285.771851 511.386078,284.784180 511.064667,283.744995 
	C508.406952,275.151672 505.780029,266.548859 503.066711,257.569183 
	C501.262207,251.696075 499.534882,246.202682 497.866119,240.298462 
	C496.607971,229.702042 495.840515,219.408371 493.862091,209.352982 
	C489.527161,187.320740 482.611145,166.024216 472.365448,146.016708 
	C464.730743,131.107834 455.916443,116.916481 445.477997,103.642494 
	C433.157684,87.975449 419.381256,73.869141 403.869171,61.535324 
	C384.665924,46.266609 363.440277,34.285385 340.605164,25.241899 
	C314.004028,14.706928 286.291626,8.942031 257.790070,8.240206 
	C242.880035,7.873060 227.764404,9.035848 213.005112,11.257753 
	C197.835419,13.541442 182.528976,16.668194 168.120895,21.786430 
	C152.476822,27.343723 137.528290,35.109768 122.801872,42.905243 
	C113.982368,47.573883 106.169312,54.143806 97.903885,59.859158 
z"/>
<path fill="#000000" opacity="1.000000" stroke="none" 
	d="
M1.000001,289.468658 
	C1.662973,289.783661 2.810802,290.506592 2.917764,291.359924 
	C5.372640,310.945557 10.424620,329.849884 17.634851,348.195343 
	C25.655144,368.601868 36.140221,387.684570 49.215019,405.262421 
	C60.092125,419.885712 72.710426,432.894684 86.348724,445.051056 
	C105.068680,461.736969 126.173851,474.574524 148.816971,484.831940 
	C167.173752,493.147644 186.446121,498.867310 206.457886,502.133514 
	C223.467926,504.909821 240.536667,506.697815 257.713959,505.901917 
	C288.548767,504.473297 318.413300,498.397705 346.921906,486.086914 
	C367.364288,477.259369 386.769165,466.581940 403.799927,452.332550 
	C416.180328,441.974030 427.167603,429.950409 439.249817,418.285828 
	C454.349182,412.627411 466.998779,404.006134 477.932465,393.277191 
	C494.655640,376.867157 505.455139,356.855316 510.869507,333.987946 
	C511.205231,332.569977 512.272888,331.325287 513.000000,330.000000 
	C513.000000,390.970947 513.000000,451.941895 513.000000,512.956421 
	C342.443695,512.956421 171.887360,512.956421 1.000000,512.956421 
	C1.000000,438.646088 1.000000,364.291718 1.000001,289.468658 
z"/>
<path fill="#2C282D" opacity="1.000000" stroke="none" 
	d="
M513.000000,329.531342 
	C512.272888,331.325287 511.205231,332.569977 510.869507,333.987946 
	C505.455139,356.855316 494.655640,376.867157 477.932465,393.277191 
	C466.998779,404.006134 454.349182,412.627411 439.361938,417.967346 
	C435.060516,418.027374 431.004852,418.628174 427.203583,417.900269 
	C417.151886,415.975525 410.841888,409.602386 408.070984,399.816376 
	C404.279022,386.424255 400.610168,372.997253 396.674622,358.857849 
	C392.322723,343.750671 388.184723,329.370819 384.217987,314.709167 
	C392.738251,306.638214 398.091827,297.236938 399.018555,285.747955 
	C400.787201,263.820679 389.992218,247.641663 368.084045,238.462296 
	C371.914825,229.941727 373.439636,221.414795 373.125244,212.386856 
	C372.929871,206.776001 373.211517,201.022079 374.253479,195.516785 
	C378.460236,173.289368 396.543091,157.087006 419.868774,154.151230 
	C439.598236,151.668076 461.435455,163.974731 470.869934,182.583267 
	C475.731354,192.172028 475.751129,202.352112 476.172333,212.732254 
	C476.805084,228.325211 471.312592,241.108871 461.714447,253.026657 
	C451.709869,265.449097 446.857971,280.107971 449.915955,295.983124 
	C452.772034,310.810394 457.297852,325.318756 461.168823,339.946289 
	C462.462097,344.833405 464.002563,349.655090 465.578552,355.011414 
	C467.144745,353.870117 468.046387,353.414032 468.685547,352.717194 
	C478.073273,342.482483 486.263000,331.421631 491.937927,318.651031 
	C499.361755,301.944824 502.962067,284.515991 502.101593,266.182922 
	C501.973816,263.460571 502.773346,260.694672 503.143829,257.948914 
	C505.780029,266.548859 508.406952,275.151672 511.064667,283.744995 
	C511.386078,284.784180 511.873962,285.771851 512.642334,286.891693 
	C513.000000,301.020905 513.000000,315.041779 513.000000,329.531342 
M419.961212,241.769394 
	C431.410004,244.454559 440.577637,236.075150 437.537323,225.704529 
	C435.808807,219.808533 430.566315,215.903564 424.520599,216.008774 
	C418.700745,216.110046 413.524567,220.093338 411.974792,225.663315 
	C410.183685,232.100693 412.657013,237.449158 419.961212,241.769394 
M440.405518,216.242874 
	C445.442322,219.794464 450.681305,220.053757 455.786591,216.652115 
	C460.311584,213.637146 462.359650,209.175308 461.569916,203.728745 
	C460.704803,197.761902 456.342590,193.518417 450.397766,192.501617 
	C444.931702,191.566711 439.306152,194.422928 436.648712,199.482315 
	C433.722717,205.053101 434.731659,210.262634 440.405518,216.242874 
M410.916199,196.679276 
	C404.807343,191.464066 398.787811,190.860275 393.248871,194.907120 
	C388.325043,198.504547 386.454102,204.836472 388.714996,210.471359 
	C390.769684,215.592133 394.675415,218.457001 400.085785,218.895569 
	C405.310150,219.319077 409.585236,217.182358 412.293884,212.655518 
	C415.428345,207.416977 415.023376,202.201691 410.916199,196.679276 
M429.434570,194.394272 
	C436.476715,190.757324 439.499329,184.679276 437.490326,178.195190 
	C435.548462,171.927841 430.016724,168.263260 423.358612,168.833435 
	C417.018066,169.376419 412.033142,174.403793 411.499939,180.920303 
	C410.786316,189.641434 418.759277,197.412003 429.434570,194.394272 
z"/>
<path fill="#B930D6" opacity="1.000000" stroke="none" 
	d="
M97.841621,60.255943 
	C106.169312,54.143806 113.982368,47.573883 122.801872,42.905243 
	C137.528290,35.109768 152.476822,27.343723 168.120895,21.786430 
	C182.528976,16.668194 197.835419,13.541442 213.005112,11.257753 
	C227.764404,9.035848 242.880035,7.873060 257.790070,8.240206 
	C286.291626,8.942031 314.004028,14.706928 340.605164,25.241899 
	C363.440277,34.285385 384.665924,46.266609 403.869171,61.535324 
	C419.381256,73.869141 433.157684,87.975449 445.477997,103.642494 
	C455.916443,116.916481 464.730743,131.107834 472.365448,146.016708 
	C482.611145,166.024216 489.527161,187.320740 493.862091,209.352982 
	C495.840515,219.408371 496.607971,229.702042 497.636597,240.056961 
	C496.810883,238.836716 496.209686,237.468048 495.745087,236.054474 
	C486.873322,209.063751 477.818817,182.130585 469.258698,155.041229 
	C465.936768,144.528671 460.782135,135.626022 451.913757,128.580994 
	C451.974091,125.789795 451.994965,123.464012 451.991211,121.138268 
	C451.976257,111.921593 449.330872,109.240036 440.159607,109.225990 
	C427.367432,109.206390 414.575195,109.220802 401.782990,109.220795 
	C386.942657,109.220787 385.473267,110.755516 385.853180,125.774185 
	C381.606110,129.606735 377.262085,132.950989 373.765472,137.022888 
	C371.830597,139.276123 370.241119,140.423599 367.280060,140.367905 
	C359.496552,140.221588 351.707428,140.374008 343.688110,140.136444 
	C340.817780,134.025635 335.998047,132.519272 330.000793,132.533234 
	C289.764709,132.626846 249.527969,132.664078 209.292343,132.498825 
	C202.761246,132.472000 198.032181,134.591858 194.620255,140.407455 
	C186.338577,140.344635 178.523254,140.479675 170.723602,140.191284 
	C168.906769,140.124100 166.809418,138.980652 165.419342,137.703217 
	C161.661865,134.250229 158.215591,130.458572 154.658920,126.358620 
	C154.679779,124.586967 154.695663,123.257957 154.694138,121.928963 
	C154.682358,111.677841 152.259506,109.225990 142.092896,109.219589 
	C128.137741,109.210808 114.181686,109.135529 100.228188,109.287704 
	C97.480843,109.317673 94.743347,110.250687 92.001305,110.767227 
	C91.255096,93.754295 94.378998,77.187576 97.841621,60.255943 
z"/>
<path fill="#2C282E" opacity="1.000000" stroke="none" 
	d="
M138.460876,367.698547 
	C135.234299,379.050476 132.274109,390.486786 128.712830,401.732727 
	C124.386696,415.393890 108.920181,422.178802 95.368294,416.244415 
	C65.212158,403.038849 44.080135,380.897217 32.239449,350.234619 
	C22.367109,324.669250 21.688562,298.530243 30.043535,272.450073 
	C43.033257,231.902405 56.472492,191.498886 69.660568,151.014511 
	C72.953728,140.905258 79.113518,133.179321 88.759834,127.381752 
	C101.749573,120.791336 115.020363,122.664169 128.085907,123.378616 
	C127.703354,130.612900 126.927193,137.426254 127.130722,144.210190 
	C127.339752,151.177887 129.231613,156.944473 136.962021,160.390610 
	C142.939819,163.055450 148.253830,168.036743 152.773987,172.983292 
	C164.647110,185.976440 165.137054,202.372467 164.138870,218.604034 
	C163.668427,226.254196 160.858932,233.760544 158.874313,241.558868 
	C156.291458,243.476654 153.943604,245.167633 151.274902,246.919861 
	C146.903198,251.955307 142.852325,256.929504 138.437134,261.945312 
	C129.619400,265.655670 120.876984,267.507202 111.608871,268.409607 
	C94.628601,270.062958 84.388489,284.581451 88.017982,301.174103 
	C93.675491,327.037903 106.550018,348.720337 127.002571,365.754639 
	C130.497314,368.665314 133.576248,373.296295 138.460876,367.698547 
M97.292778,195.096436 
	C90.868797,191.296661 85.501366,191.408279 80.686333,195.441742 
	C76.391357,199.039581 74.785027,204.673126 76.572098,209.870804 
	C78.381325,215.132904 83.074341,218.807739 88.540138,218.942795 
	C94.215225,219.083008 98.486458,216.558731 101.076912,211.479904 
	C103.736404,206.265778 102.568954,200.765671 97.292778,195.096436 
M127.451302,195.915497 
	C122.522789,201.761307 121.810410,207.320541 125.289558,212.785110 
	C128.433670,217.723465 134.563416,220.098343 140.067810,218.441254 
	C145.551682,216.790344 148.845703,213.012619 149.684860,207.443100 
	C150.501450,202.023346 148.376068,197.524734 143.795563,194.573318 
	C138.456680,191.133255 133.082352,191.568924 127.451302,195.915497 
M102.140305,237.216171 
	C106.156387,242.121735 111.254158,243.877533 117.261688,241.811783 
	C122.413177,240.040375 125.420914,236.193100 126.006882,230.718277 
	C126.624519,224.947433 123.574257,219.622849 118.497345,217.257248 
	C113.352325,214.859894 107.297951,215.975204 103.332870,220.050797 
	C99.044533,224.458649 98.495552,230.112015 102.140305,237.216171 
M101.849289,174.503952 
	C98.525764,180.882202 98.979691,186.633179 103.156792,191.069443 
	C106.900787,195.045731 112.778534,196.331711 117.816330,194.276764 
	C122.981758,192.169754 126.185898,187.405045 126.070381,181.799408 
	C125.952347,176.071793 123.154350,172.019775 117.954430,169.739822 
	C112.507645,167.351624 107.224625,168.826065 101.849289,174.503952 
z"/>
<path fill="#B930D6" opacity="1.000000" stroke="none" 
	d="
M384.046722,314.990967 
	C388.184723,329.370819 392.322723,343.750671 396.523224,358.537445 
	C373.062195,364.451172 349.167023,366.328094 325.134430,364.897614 
	C279.209686,362.164062 237.114273,347.873138 199.294571,321.020203 
	C210.863922,314.113434 218.074005,304.304321 222.478546,291.910095 
	C252.627701,291.911499 282.305756,291.902222 312.180969,292.195801 
	C314.051331,296.276611 315.416565,300.229858 317.449860,303.802979 
	C327.494629,321.454529 351.375458,330.246490 369.304138,322.887878 
	C374.457916,320.223114 379.252319,317.607056 384.046722,314.990967 
z"/>
<path fill="#453D49" opacity="1.000000" stroke="none" 
	d="
M138.626678,367.421509 
	C133.576248,373.296295 130.497314,368.665314 127.002571,365.754639 
	C106.550018,348.720337 93.675491,327.037903 88.017982,301.174103 
	C84.388489,284.581451 94.628601,270.062958 111.608871,268.409607 
	C120.876984,267.507202 129.619400,265.655670 138.386292,262.307800 
	C133.986160,273.474701 133.454544,284.512848 137.139297,295.759308 
	C140.102356,304.803040 146.418091,311.397034 153.107880,317.725006 
	C148.756042,332.603912 144.400375,347.481659 140.057983,362.363342 
	C139.596344,363.945404 139.212448,365.550201 138.626678,367.421509 
z"/>
<path fill="#F43C99" opacity="1.000000" stroke="none" 
	d="
M222.007446,291.899414 
	C218.074005,304.304321 210.863922,314.113434 199.087662,320.745911 
	C196.797623,321.656158 194.763382,322.328308 192.342636,322.679382 
	C191.455750,321.358154 191.208649,320.028137 190.410767,319.415497 
	C187.114899,316.884979 188.829742,315.356079 191.310135,313.908783 
	C192.735107,313.077332 194.280060,312.439575 195.657776,311.541016 
	C203.605331,306.357666 208.279343,299.199646 208.765182,289.151001 
	C210.982056,272.415100 205.511673,260.077332 192.717606,253.855972 
	C179.777267,247.563507 167.860672,250.123932 156.881943,258.769928 
	C156.639954,256.962067 156.203049,255.425064 156.523453,254.066711 
	C157.548065,249.722748 156.123016,247.291306 151.595749,246.858612 
	C153.943604,245.167633 156.291458,243.476654 159.251343,241.488281 
	C165.628357,239.816101 171.355850,237.471497 177.165314,237.246811 
	C195.181976,236.550095 208.471863,245.067673 217.954712,260.469910 
	C223.098602,270.707275 223.886703,281.132538 222.007446,291.899414 
z"/>
<path fill="#DD248A" opacity="1.000000" stroke="none" 
	d="
M208.732224,289.547089 
	C208.279343,299.199646 203.605331,306.357666 195.657776,311.541016 
	C194.280060,312.439575 192.735107,313.077332 191.310135,313.908783 
	C188.829742,315.356079 187.114899,316.884979 190.410767,319.415497 
	C191.208649,320.028137 191.455750,321.358154 191.978592,322.723907 
	C181.560257,327.315613 171.372833,325.624329 161.335236,321.654358 
	C158.741348,320.628418 156.309586,319.192566 153.455612,317.835022 
	C146.418091,311.397034 140.102356,304.803040 137.139297,295.759308 
	C133.454544,284.512848 133.986160,273.474701 138.750610,262.266205 
	C142.852325,256.929504 146.903198,251.955307 151.274902,246.919861 
	C156.123016,247.291306 157.548065,249.722748 156.523453,254.066711 
	C156.203049,255.425064 156.639954,256.962067 156.740601,259.070984 
	C147.484360,270.253021 145.100494,282.102539 151.333588,294.763733 
	C157.149490,306.577454 167.280045,312.558105 180.460953,311.839447 
	C194.821548,311.056580 203.777374,302.650513 208.732224,289.547089 
z"/>
<path fill="#0BC5F9" opacity="1.000000" stroke="none" 
	d="
M128.122437,122.944771 
	C115.020363,122.664169 101.749573,120.791336 89.022110,127.136139 
	C89.128098,121.791389 86.889534,115.876427 91.816879,111.004326 
	C94.743347,110.250687 97.480843,109.317673 100.228188,109.287704 
	C114.181686,109.135529 128.137741,109.210808 142.092896,109.219589 
	C152.259506,109.225990 154.682358,111.677841 154.694138,121.928963 
	C154.695663,123.257957 154.679779,124.586967 154.345901,126.228584 
	C145.836548,122.107864 137.030746,122.157288 128.122437,122.944771 
z"/>
<path fill="#453D49" opacity="1.000000" stroke="none" 
	d="
M128.085907,123.378616 
	C137.030746,122.157288 145.836548,122.107864 154.332855,126.671234 
	C158.215591,130.458572 161.661865,134.250229 165.419342,137.703217 
	C166.809418,138.980652 168.906769,140.124100 170.723602,140.191284 
	C178.523254,140.479675 186.338577,140.344635 194.608337,140.846359 
	C195.045074,163.820831 195.013535,186.312851 195.001785,208.804871 
	C194.996094,219.697540 199.214783,223.959106 210.095505,223.967758 
	C238.752411,223.990524 267.409363,223.977188 296.066284,223.975510 
	C307.728973,223.974823 319.393341,224.087921 331.053741,223.922379 
	C339.553558,223.801712 343.956360,219.491180 343.972839,211.382141 
	C344.021027,187.724030 343.946808,164.065674 343.920563,140.407410 
	C351.707428,140.374008 359.496552,140.221588 367.280060,140.367905 
	C370.241119,140.423599 371.830597,139.276123 373.765472,137.022888 
	C377.262085,132.950989 381.606110,129.606735 386.241943,125.648605 
	C391.894379,124.426659 396.871155,123.031494 401.915131,122.717995 
	C409.175140,122.266754 416.492584,122.825180 423.770050,122.547676 
	C433.771942,122.166306 443.203064,123.831062 451.863037,129.046432 
	C460.782135,135.626022 465.936768,144.528671 469.258698,155.041229 
	C477.818817,182.130585 486.873322,209.063751 495.745087,236.054474 
	C496.209686,237.468048 496.810883,238.836716 497.578064,240.467804 
	C499.534882,246.202682 501.262207,251.696075 503.066711,257.569183 
	C502.773346,260.694672 501.973816,263.460571 502.101593,266.182922 
	C502.962067,284.515991 499.361755,301.944824 491.937927,318.651031 
	C486.263000,331.421631 478.073273,342.482483 468.685547,352.717194 
	C468.046387,353.414032 467.144745,353.870117 465.578552,355.011414 
	C464.002563,349.655090 462.462097,344.833405 461.168823,339.946289 
	C457.297852,325.318756 452.772034,310.810394 449.915955,295.983124 
	C446.857971,280.107971 451.709869,265.449097 461.714447,253.026657 
	C471.312592,241.108871 476.805084,228.325211 476.172333,212.732254 
	C475.751129,202.352112 475.731354,192.172028 470.869934,182.583267 
	C461.435455,163.974731 439.598236,151.668076 419.868774,154.151230 
	C396.543091,157.087006 378.460236,173.289368 374.253479,195.516785 
	C373.211517,201.022079 372.929871,206.776001 373.125244,212.386856 
	C373.439636,221.414795 371.914825,229.941727 367.696228,238.441101 
	C352.760498,235.023315 339.536438,237.286148 327.523865,247.022064 
	C323.519684,251.450821 319.835297,255.792496 315.793701,259.903687 
	C313.969757,259.459564 312.503204,259.061279 311.036163,259.059448 
	C281.741791,259.022736 252.447357,259.013214 223.153122,259.077667 
	C221.394974,259.081543 219.638306,259.750153 217.880951,260.109436 
	C208.471863,245.067673 195.181976,236.550095 177.165314,237.246811 
	C171.355850,237.471497 165.628357,239.816101 159.486343,241.261475 
	C160.858932,233.760544 163.668427,226.254196 164.138870,218.604034 
	C165.137054,202.372467 164.647110,185.976440 152.773987,172.983292 
	C148.253830,168.036743 142.939819,163.055450 136.962021,160.390610 
	C129.231613,156.944473 127.339752,151.177887 127.130722,144.210190 
	C126.927193,137.426254 127.703354,130.612900 128.085907,123.378616 
M165.053864,166.594589 
	C165.359802,169.559128 165.472916,172.559631 166.017487,175.479660 
	C166.808502,179.721115 169.730942,182.345932 173.828705,182.736618 
	C178.188324,183.152283 182.347488,180.979431 182.890869,176.628860 
	C183.676926,170.335251 183.705139,163.744217 182.703430,157.497040 
	C181.960297,152.862457 177.517792,151.375214 172.869186,152.030075 
	C168.697647,152.617691 166.447006,155.134460 165.933777,159.282700 
	C165.669052,161.422440 165.356354,163.556244 165.053864,166.594589 
M355.995270,177.304001 
	C359.006500,181.022675 362.859619,181.950882 367.181305,180.229614 
	C371.427826,178.538269 372.127777,174.794464 372.049774,170.718018 
	C371.973297,166.720581 372.127106,162.717056 371.988037,158.722885 
	C371.809479,153.594650 369.223724,150.627869 364.731903,150.082565 
	C359.834717,149.488022 355.117249,152.058090 354.756775,156.955093 
	C354.277771,163.461487 355.226288,170.072983 355.995270,177.304001 
z"/>
<path fill="#F43C98" opacity="1.000000" stroke="none" 
	d="
M327.843628,246.934952 
	C339.536438,237.286148 352.760498,235.023315 367.618164,238.790421 
	C389.992218,247.641663 400.787201,263.820679 399.018555,285.747955 
	C398.091827,297.236938 392.738251,306.638214 384.217987,314.709167 
	C379.252319,317.607056 374.457916,320.223114 369.282654,322.530731 
	C367.805115,320.080200 365.306030,317.264038 365.936584,315.952240 
	C366.909943,313.927277 370.106934,313.042297 372.217041,311.479675 
	C379.243622,306.276184 384.617584,300.025604 384.844666,290.260254 
	C384.930817,288.852753 384.890808,287.833801 385.085541,286.861847 
	C388.334930,270.643616 378.323853,254.880600 362.269836,251.281235 
	C351.186249,248.796310 341.569641,252.085037 332.979950,258.986755 
	C332.750397,257.001190 332.344208,255.326401 332.639648,253.786209 
	C333.421265,249.711472 332.202545,247.289871 327.843628,246.934952 
z"/>
<path fill="#BB59B6" opacity="1.000000" stroke="none" 
	d="
M419.616760,241.606598 
	C412.657013,237.449158 410.183685,232.100693 411.974792,225.663315 
	C413.524567,220.093338 418.700745,216.110046 424.520599,216.008774 
	C430.566315,215.903564 435.808807,219.808533 437.537323,225.704529 
	C440.577637,236.075150 431.410004,244.454559 419.616760,241.606598 
z"/>
<path fill="#F33C98" opacity="1.000000" stroke="none" 
	d="
M440.106110,216.015564 
	C434.731659,210.262634 433.722717,205.053101 436.648712,199.482315 
	C439.306152,194.422928 444.931702,191.566711 450.397766,192.501617 
	C456.342590,193.518417 460.704803,197.761902 461.569916,203.728745 
	C462.359650,209.175308 460.311584,213.637146 455.786591,216.652115 
	C450.681305,220.053757 445.442322,219.794464 440.106110,216.015564 
z"/>
<path fill="#59B1FB" opacity="1.000000" stroke="none" 
	d="
M411.157074,196.971939 
	C415.023376,202.201691 415.428345,207.416977 412.293884,212.655518 
	C409.585236,217.182358 405.310150,219.319077 400.085785,218.895569 
	C394.675415,218.457001 390.769684,215.592133 388.714996,210.471359 
	C386.454102,204.836472 388.325043,198.504547 393.248871,194.907120 
	C398.787811,190.860275 404.807343,191.464066 411.157074,196.971939 
z"/>
<path fill="#FCC106" opacity="1.000000" stroke="none" 
	d="
M429.057312,194.555969 
	C418.759277,197.412003 410.786316,189.641434 411.499939,180.920303 
	C412.033142,174.403793 417.018066,169.376419 423.358612,168.833435 
	C430.016724,168.263260 435.548462,171.927841 437.490326,178.195190 
	C439.499329,184.679276 436.476715,190.757324 429.057312,194.555969 
z"/>
<path fill="#2B282D" opacity="1.000000" stroke="none" 
	d="
M343.688110,140.136444 
	C343.946808,164.065674 344.021027,187.724030 343.972839,211.382141 
	C343.956360,219.491180 339.553558,223.801712 331.053741,223.922379 
	C319.393341,224.087921 307.728973,223.974823 296.066284,223.975510 
	C267.409363,223.977188 238.752411,223.990524 210.095505,223.967758 
	C199.214783,223.959106 194.996094,219.697540 195.001785,208.804871 
	C195.013535,186.312851 195.045074,163.820831 195.080414,140.889908 
	C198.032181,134.591858 202.761246,132.472000 209.292343,132.498825 
	C249.527969,132.664078 289.764709,132.626846 330.000793,132.533234 
	C335.998047,132.519272 340.817780,134.025635 343.688110,140.136444 
M271.500000,153.050583 
	C254.364944,153.051193 237.229004,152.975159 220.096207,153.171967 
	C218.398941,153.191452 216.720810,154.877838 215.033813,155.790573 
	C216.757706,156.843124 218.476532,158.804123 220.206238,158.813751 
	C252.978043,158.996323 285.751404,158.995819 318.523285,158.819962 
	C320.311279,158.810364 322.089233,156.937210 323.871857,155.931519 
	C322.052979,154.971451 320.245880,153.205063 318.413361,153.178268 
	C303.111542,152.954498 287.805084,153.050827 271.500000,153.050583 
z"/>
<path fill="#0AC7FA" opacity="1.000000" stroke="none" 
	d="
M451.913757,128.580994 
	C443.203064,123.831062 433.771942,122.166306 423.770050,122.547676 
	C416.492584,122.825180 409.175140,122.266754 401.915131,122.717995 
	C396.871155,123.031494 391.894379,124.426659 386.498840,125.464157 
	C385.473267,110.755516 386.942657,109.220787 401.782990,109.220795 
	C414.575195,109.220802 427.367432,109.206390 440.159607,109.225990 
	C449.330872,109.240036 451.976257,111.921593 451.991211,121.138268 
	C451.994965,123.464012 451.974091,125.789795 451.913757,128.580994 
z"/>
<path fill="#59B1FB" opacity="1.000000" stroke="none" 
	d="
M97.579544,195.329315 
	C102.568954,200.765671 103.736404,206.265778 101.076912,211.479904 
	C98.486458,216.558731 94.215225,219.083008 88.540138,218.942795 
	C83.074341,218.807739 78.381325,215.132904 76.572098,209.870804 
	C74.785027,204.673126 76.391357,199.039581 80.686333,195.441742 
	C85.501366,191.408279 90.868797,191.296661 97.579544,195.329315 
z"/>
<path fill="#F33C98" opacity="1.000000" stroke="none" 
	d="
M127.731812,195.668457 
	C133.082352,191.568924 138.456680,191.133255 143.795563,194.573318 
	C148.376068,197.524734 150.501450,202.023346 149.684860,207.443100 
	C148.845703,213.012619 145.551682,216.790344 140.067810,218.441254 
	C134.563416,220.098343 128.433670,217.723465 125.289558,212.785110 
	C121.810410,207.320541 122.522789,201.761307 127.731812,195.668457 
z"/>
<path fill="#BB59B7" opacity="1.000000" stroke="none" 
	d="
M101.933395,236.904602 
	C98.495552,230.112015 99.044533,224.458649 103.332870,220.050797 
	C107.297951,215.975204 113.352325,214.859894 118.497345,217.257248 
	C123.574257,219.622849 126.624519,224.947433 126.006882,230.718277 
	C125.420914,236.193100 122.413177,240.040375 117.261688,241.811783 
	C111.254158,243.877533 106.156387,242.121735 101.933395,236.904602 
z"/>
<path fill="#FCC105" opacity="1.000000" stroke="none" 
	d="
M102.066772,174.199768 
	C107.224625,168.826065 112.507645,167.351624 117.954430,169.739822 
	C123.154350,172.019775 125.952347,176.071793 126.070381,181.799408 
	C126.185898,187.405045 122.981758,192.169754 117.816330,194.276764 
	C112.778534,196.331711 106.900787,195.045731 103.156792,191.069443 
	C98.979691,186.633179 98.525764,180.882202 102.066772,174.199768 
z"/>
<path fill="#2C282E" opacity="1.000000" stroke="none" 
	d="
M217.954712,260.469910 
	C219.638306,259.750153 221.394974,259.081543 223.153122,259.077667 
	C252.447357,259.013214 281.741791,259.022736 311.036163,259.059448 
	C312.503204,259.061279 313.969757,259.459564 315.710999,260.262329 
	C310.902344,270.715271 310.166199,281.139526 311.983795,291.892975 
	C282.305756,291.902222 252.627701,291.911499 222.478546,291.910095 
	C223.886703,281.132538 223.098602,270.707275 217.954712,260.469910 
z"/>
<path fill="#DD248A" opacity="1.000000" stroke="none" 
	d="
M312.180969,292.195801 
	C310.166199,281.139526 310.902344,270.715271 316.068176,260.492798 
	C319.835297,255.792496 323.519684,251.450821 327.523865,247.022064 
	C332.202545,247.289871 333.421265,249.711472 332.639648,253.786209 
	C332.344208,255.326401 332.750397,257.001190 332.846741,259.286621 
	C332.028107,260.996582 331.129822,261.986847 330.381775,263.079926 
	C323.158356,273.634827 322.203735,284.835175 328.324860,295.986725 
	C334.451172,307.147644 344.466217,312.659027 357.207581,311.839752 
	C370.892792,310.959778 379.590912,302.911499 384.827728,290.670654 
	C384.617584,300.025604 379.243622,306.276184 372.217041,311.479675 
	C370.106934,313.042297 366.909943,313.927277 365.936584,315.952240 
	C365.306030,317.264038 367.805115,320.080200 368.923340,322.579407 
	C351.375458,330.246490 327.494629,321.454529 317.449860,303.802979 
	C315.416565,300.229858 314.051331,296.276611 312.180969,292.195801 
z"/>
<path fill="#302930" opacity="1.000000" stroke="none" 
	d="
M208.765182,289.151001 
	C203.777374,302.650513 194.821548,311.056580 180.460953,311.839447 
	C167.280045,312.558105 157.149490,306.577454 151.333588,294.763733 
	C145.100494,282.102539 147.484360,270.253021 156.892349,259.423645 
	C167.860672,250.123932 179.777267,247.563507 192.717606,253.855972 
	C205.511673,260.077332 210.982056,272.415100 208.765182,289.151001 
M199.039078,294.411713 
	C200.169754,291.653625 201.626205,288.980591 202.372131,286.122101 
	C204.970367,276.165344 199.324936,264.608887 189.750381,259.797974 
	C179.769089,254.782684 167.250275,257.113861 160.596512,265.226807 
	C151.794952,275.958557 153.204315,291.671631 163.722382,300.077087 
	C174.368744,308.585083 190.210892,306.293701 199.039078,294.411713 
z"/>
<path fill="#2C292E" opacity="1.000000" stroke="none" 
	d="
M165.059601,166.143646 
	C165.356354,163.556244 165.669052,161.422440 165.933777,159.282700 
	C166.447006,155.134460 168.697647,152.617691 172.869186,152.030075 
	C177.517792,151.375214 181.960297,152.862457 182.703430,157.497040 
	C183.705139,163.744217 183.676926,170.335251 182.890869,176.628860 
	C182.347488,180.979431 178.188324,183.152283 173.828705,182.736618 
	C169.730942,182.345932 166.808502,179.721115 166.017487,175.479660 
	C165.472916,172.559631 165.359802,169.559128 165.059601,166.143646 
z"/>
<path fill="#2C282E" opacity="1.000000" stroke="none" 
	d="
M355.778381,176.971649 
	C355.226288,170.072983 354.277771,163.461487 354.756775,156.955093 
	C355.117249,152.058090 359.834717,149.488022 364.731903,150.082565 
	C369.223724,150.627869 371.809479,153.594650 371.988037,158.722885 
	C372.127106,162.717056 371.973297,166.720581 372.049774,170.718018 
	C372.127777,174.794464 371.427826,178.538269 367.181305,180.229614 
	C362.859619,181.950882 359.006500,181.022675 355.778381,176.971649 
z"/>
<path fill="#302930" opacity="1.000000" stroke="none" 
	d="
M384.844666,290.260254 
	C379.590912,302.911499 370.892792,310.959778 357.207581,311.839752 
	C344.466217,312.659027 334.451172,307.147644 328.324860,295.986725 
	C322.203735,284.835175 323.158356,273.634827 330.381775,263.079926 
	C331.129822,261.986847 332.028107,260.996582 332.989929,259.658752 
	C341.569641,252.085037 351.186249,248.796310 362.269836,251.281235 
	C378.323853,254.880600 388.334930,270.643616 385.085541,286.861847 
	C384.890808,287.833801 384.930817,288.852753 384.844666,290.260254 
M334.167694,293.142853 
	C339.402191,301.840759 347.171875,305.595673 357.205383,305.071350 
	C370.911682,304.355103 380.541626,292.225037 378.965942,277.582428 
	C377.602386,264.911591 364.197540,255.116196 351.554718,257.319000 
	C335.157196,260.176056 326.074951,277.895386 334.167694,293.142853 
z"/>
<path fill="#58ADF5" opacity="1.000000" stroke="none" 
	d="
M272.000000,153.050583 
	C287.805084,153.050827 303.111542,152.954498 318.413361,153.178268 
	C320.245880,153.205063 322.052979,154.971451 323.871857,155.931519 
	C322.089233,156.937210 320.311279,158.810364 318.523285,158.819962 
	C285.751404,158.995819 252.978043,158.996323 220.206238,158.813751 
	C218.476532,158.804123 216.757706,156.843124 215.033813,155.790558 
	C216.720810,154.877838 218.398941,153.191452 220.096207,153.171967 
	C237.229004,152.975159 254.364944,153.051193 272.000000,153.050583 
z"/>
<path fill="#584C5D" opacity="1.000000" stroke="none" 
	d="
M198.836945,294.719574 
	C190.210892,306.293701 174.368744,308.585083 163.722382,300.077087 
	C153.204315,291.671631 151.794952,275.958557 160.596512,265.226807 
	C167.250275,257.113861 179.769089,254.782684 189.750381,259.797974 
	C199.324936,264.608887 204.970367,276.165344 202.372131,286.122101 
	C201.626205,288.980591 200.169754,291.653625 198.836945,294.719574 
M192.596191,286.837463 
	C195.324661,280.975311 193.850342,275.835297 189.744736,271.270905 
	C185.906662,267.003937 181.051361,264.943848 175.429932,266.549774 
	C169.729294,268.178375 165.252609,271.546631 164.148529,277.900879 
	C162.772491,285.820251 166.846558,292.950806 173.995697,295.393646 
	C181.413483,297.928223 188.188507,295.011292 192.596191,286.837463 
z"/>
<path fill="#584C5D" opacity="1.000000" stroke="none" 
	d="
M333.993652,292.809967 
	C326.074951,277.895386 335.157196,260.176056 351.554718,257.319000 
	C364.197540,255.116196 377.602386,264.911591 378.965942,277.582428 
	C380.541626,292.225037 370.911682,304.355103 357.205383,305.071350 
	C347.171875,305.595673 339.402191,301.840759 333.993652,292.809967 
M346.870789,293.853668 
	C347.914612,294.361145 348.918365,294.986633 350.008820,295.356781 
	C356.590546,297.591064 363.805908,295.180664 367.622559,289.532227 
	C371.220276,284.207794 370.840698,276.108917 366.772491,271.394714 
	C362.445892,266.381073 355.116150,264.783447 349.083679,267.539093 
	C338.541168,272.355011 337.169159,284.831360 346.870789,293.853668 
z"/>
<path fill="#453D49" opacity="1.000000" stroke="none" 
	d="
M192.424637,287.185242 
	C188.188507,295.011292 181.413483,297.928223 173.995697,295.393646 
	C166.846558,292.950806 162.772491,285.820251 164.148529,277.900879 
	C165.252609,271.546631 169.729294,268.178375 175.429932,266.549774 
	C181.051361,264.943848 185.906662,267.003937 189.744736,271.270905 
	C193.850342,275.835297 195.324661,280.975311 192.424637,287.185242 
z"/>
<path fill="#453D49" opacity="1.000000" stroke="none" 
	d="
M346.552856,293.648682 
	C337.169159,284.831360 338.541168,272.355011 349.083679,267.539093 
	C355.116150,264.783447 362.445892,266.381073 366.772491,271.394714 
	C370.840698,276.108917 371.220276,284.207794 367.622559,289.532227 
	C363.805908,295.180664 356.590546,297.591064 350.008820,295.356781 
	C348.918365,294.986633 347.914612,294.361145 346.552856,293.648682 
z"/>
</svg>