<svg version="1.1" id="Layer_1" xmlns="http://www.w3.org/2000/svg" xmlns:xlink="http://www.w3.org/1999/xlink" x="0px" y="0px"
	 width="100%" viewBox="0 0 512 512" enable-background="new 0 0 512 512" xml:space="preserve">
<path fill="#000000" opacity="1.000000" stroke="none" 
	d="
M161.215302,512.668030 
	C109.012360,513.000000 57.024620,512.960632 5.037313,513.091553 
	C1.695832,513.099976 0.898411,512.539307 0.900779,509.038910 
	C1.014399,341.078918 1.018442,173.118835 0.884479,5.158878 
	C0.881402,1.301122 1.984852,0.922706 5.339232,0.924427 
	C173.132629,1.010533 340.926086,1.013128 508.719452,0.910147 
	C512.239136,0.907986 513.105957,1.525465 513.103333,5.217563 
	C512.984192,173.010910 512.982239,340.804382 513.107971,508.597717 
	C513.110962,512.564148 511.974030,513.095520 508.404083,513.085388 
	C462.915436,512.955872 417.426331,513.000000 371.468658,513.000000 
	C370.604156,512.250610 370.896790,511.605499 371.552216,510.717102 
	C376.559357,508.128357 381.422913,505.977753 385.789185,502.289978 
	C391.085327,498.048340 395.415802,493.291046 400.252502,488.560547 
	C405.534241,484.574127 409.927460,480.026978 415.516602,476.418030 
	C421.228668,472.333984 427.256104,469.532440 433.468811,466.332153 
	C439.566193,463.442596 445.236877,460.495087 451.242645,457.435486 
	C457.336426,453.968750 463.298859,450.894226 467.235229,444.726929 
	C472.313904,436.782928 471.977753,433.072479 465.511902,425.626801 
	C463.459900,422.481293 461.080994,420.195343 457.928894,418.868317 
	C445.557556,413.660034 438.874695,403.419769 433.816467,391.732483 
	C432.945312,389.719757 432.733704,387.569427 432.725494,385.396545 
	C432.695251,377.368500 428.804626,370.801880 424.719574,364.316345 
	C424.373901,363.767548 423.842224,363.319336 422.343933,363.049500 
	C420.921997,371.320312 416.421143,378.051270 410.203918,384.139587 
	C408.077332,386.249969 405.975037,387.821960 403.501526,389.516785 
	C402.567017,390.126373 401.905853,390.476593 400.917236,391.033203 
	C389.529877,397.543457 378.214691,399.267670 366.097778,392.999573 
	C360.357880,388.827759 358.295959,383.177307 357.660950,376.402283 
	C357.568115,374.975555 357.604126,373.942291 357.615051,372.537506 
	C357.547180,368.821808 357.522369,365.389313 358.859375,362.329254 
	C360.572021,358.409515 359.918549,355.858093 355.516113,354.179993 
	C354.191925,350.777222 354.607635,347.615509 354.819092,344.464050 
	C356.013397,326.664764 356.712158,308.864197 353.407410,291.200134 
	C349.876678,272.328430 342.482422,255.244400 329.421722,240.892380 
	C327.832123,239.145645 326.297333,237.307388 325.934174,234.931793 
	C322.704956,213.806000 313.335968,195.027435 303.485046,176.006165 
	C301.273041,169.896393 298.917236,164.268951 296.412598,158.289307 
	C295.880676,155.286301 297.884521,153.093109 297.664734,150.114319 
	C297.891052,147.227112 298.718262,144.797028 298.616882,141.882645 
	C298.627289,140.321457 298.600800,139.130600 298.222992,137.625427 
	C297.741180,133.835648 294.125671,133.048065 292.502625,130.207062 
	C294.292511,124.669479 298.194489,120.310692 298.646240,114.180565 
	C298.704010,113.072174 298.819305,112.340973 299.009033,111.245934 
	C299.874878,108.250198 299.822113,105.591957 299.226868,102.568405 
	C298.892242,101.269249 298.817596,100.299706 298.682556,98.978073 
	C298.601868,97.918991 298.540619,97.218040 298.217743,96.207092 
	C297.410889,92.166931 295.780762,88.876060 293.404358,85.544373 
	C289.006653,79.093979 283.547607,75.150818 275.398926,75.315063 
	C272.176086,75.106430 269.580170,75.958099 266.827576,77.539818 
	C262.194855,80.709579 258.114441,83.945320 255.837021,89.314621 
	C252.320526,94.498100 253.543137,100.099472 253.183380,105.439758 
	C253.095383,106.746063 254.167847,107.441177 255.245239,108.507965 
	C256.489166,110.613701 257.421448,112.457222 257.151184,114.959206 
	C253.932800,116.854530 251.291473,114.600143 248.437637,114.431412 
	C246.492828,114.316429 244.582199,113.744102 242.226654,114.009895 
	C240.319763,114.295578 238.779144,114.339417 236.859680,114.428619 
	C233.424866,114.624466 230.660553,116.242737 227.239075,116.048454 
	C226.276962,114.925819 226.407318,113.911507 226.942184,113.075462 
	C232.285873,104.722855 229.071838,97.092896 224.828705,89.223892 
	C222.984055,85.862625 220.535034,83.517242 217.571899,81.203049 
	C215.282501,79.651917 213.134201,78.701569 210.312546,78.860229 
	C209.562683,78.992287 209.134003,79.070023 208.384094,79.218018 
	C204.926941,79.976608 202.345993,81.469933 200.534851,84.649399 
	C197.816071,88.268044 197.008347,92.034988 197.468384,96.522385 
	C197.542023,101.646904 197.513107,106.374252 197.510040,111.502319 
	C197.447006,119.043236 199.956116,125.249199 204.469254,131.130142 
	C204.744720,133.718506 203.044220,135.053238 201.878143,137.033783 
	C198.122284,141.576447 195.167984,145.995468 197.737030,152.198486 
	C199.821228,154.831635 203.107101,155.900574 204.067932,159.532990 
	C203.660614,165.385040 203.303833,170.850388 203.449829,176.735535 
	C202.762314,183.025284 200.643982,188.371933 197.388870,193.307159 
	C192.907959,200.100800 188.102432,206.680161 183.872452,213.638092 
	C181.093918,218.208527 178.970123,223.062653 177.906738,228.737976 
	C176.416489,231.851990 176.109726,234.844269 176.270340,237.807129 
	C176.598480,243.859726 174.891739,249.132965 171.175568,253.903549 
	C169.978256,255.440582 168.946655,257.180817 167.972260,259.362427 
	C156.960663,279.499207 148.587479,300.177887 145.049652,322.592133 
	C143.989395,329.309448 143.160889,336.053864 143.384842,342.894653 
	C143.476364,345.690765 143.770645,348.544525 142.584808,351.631744 
	C138.617798,353.605072 137.275604,350.562378 135.814545,348.333496 
	C131.688980,342.039917 130.423920,334.856140 129.528961,327.514099 
	C127.543983,311.229614 131.696014,296.225281 138.693146,281.790009 
	C142.897522,273.116272 146.654709,264.185120 152.855133,256.192719 
	C153.743195,255.244858 154.416794,254.604904 155.288452,253.714813 
	C155.929535,253.053345 156.395325,252.649582 156.591492,251.737137 
	C156.452209,251.051163 157.433060,251.401260 156.903076,251.118622 
	C156.456818,251.840118 156.422729,252.448944 155.844238,253.128601 
	C155.033676,253.951279 154.435043,254.554810 153.596069,255.402878 
	C146.252380,264.015656 141.421326,273.669128 137.646210,283.872742 
	C136.318085,287.462463 134.771500,290.955750 133.378983,294.514313 
	C130.114365,302.856934 128.409637,311.326813 129.377121,320.362915 
	C129.857559,324.850159 129.324875,329.416260 125.512405,332.754791 
	C123.928909,334.141449 123.748573,335.352173 125.669548,336.722076 
	C129.705383,339.600098 132.140579,343.713501 134.579895,347.958496 
	C137.234482,352.578064 140.535828,356.879608 146.777344,357.948975 
	C152.047134,360.421021 155.280533,364.837128 159.280090,368.286041 
	C169.993225,377.524200 181.106766,386.254517 192.073532,395.172028 
	C196.618591,398.867798 200.736252,402.954010 203.512894,408.212952 
	C210.732559,421.886902 203.407318,433.700378 187.956573,433.292725 
	C186.957611,433.266327 185.961182,433.219269 184.621002,432.888153 
	C178.776306,429.081665 176.684036,422.751282 172.497131,417.589233 
	C162.767059,400.252258 152.493820,383.694550 140.486664,367.831299 
	C137.867920,364.176849 135.379852,360.865540 132.846237,357.591431 
	C125.874733,348.582367 119.119179,347.565063 109.532684,354.273010 
	C105.085312,357.962189 102.093483,362.341431 99.527206,367.023682 
	C94.399536,376.379242 86.732811,381.070343 75.890198,380.440094 
	C72.090187,380.219208 68.238235,380.110077 64.441460,380.707581 
	C56.125668,382.016235 51.832092,386.683594 51.313801,395.108185 
	C50.832596,402.929962 51.876312,410.693024 52.466526,418.878601 
	C53.820709,425.386963 53.895676,431.488190 52.433708,437.990143 
	C51.335457,445.749939 47.009987,451.859375 44.528000,459.072601 
	C43.040768,463.940582 42.576973,468.386810 45.559258,472.888611 
	C49.628010,477.874939 55.444614,478.247070 61.015202,480.052704 
	C67.739891,481.991364 73.967514,484.282806 80.778381,485.988312 
	C87.377502,488.202515 93.823303,489.416382 100.609177,490.903900 
	C109.140472,493.165344 117.491417,494.522461 125.881790,497.310120 
	C134.318314,499.349457 141.848038,502.745117 149.845200,506.000916 
	C152.626297,507.254669 155.167206,508.040833 157.640213,509.001831 
	C159.266098,509.633667 161.324509,509.917633 161.215302,512.668030 
z"/>
<path fill="#010101" opacity="1.000000" stroke="none" 
	d="
M346.214661,512.678711 
	C291.312439,513.000000 236.624878,513.000000 181.468658,513.000000 
	C179.763138,510.317596 182.137451,509.937378 183.588974,509.226654 
	C187.641235,507.242401 191.499542,505.046509 194.783112,501.869690 
	C201.196396,495.665100 204.748230,488.269379 204.617996,478.861328 
	C204.566162,473.446594 204.810547,468.391602 202.983612,463.151947 
	C202.527298,459.889679 199.978668,457.610016 200.834915,454.139587 
	C203.090256,452.495178 204.889297,453.621704 206.730392,454.334839 
	C243.796005,468.692871 277.245819,462.694336 307.044739,436.430450 
	C310.160217,433.684509 313.631378,431.311829 316.521484,427.737091 
	C320.321838,424.719757 323.184418,421.280487 326.476807,418.299164 
	C327.835358,417.068970 329.007965,415.059631 331.639618,416.577423 
	C332.342712,424.868286 330.759247,432.610016 329.490784,440.805634 
	C327.826996,448.635651 326.984528,456.177307 325.538574,464.042908 
	C324.914551,470.072754 324.202972,475.675751 324.470825,481.743103 
	C324.250000,496.562531 328.730988,503.263092 342.195221,508.827271 
	C343.928406,509.543549 346.270813,509.686829 346.214661,512.678711 
z"/>
<path fill="#462800" opacity="1.000000" stroke="none" 
	d="
M346.468628,513.000000 
	C345.891693,510.325409 343.437500,510.695160 341.956818,510.167084 
	C328.882507,505.504242 323.105774,497.591400 323.020905,483.427979 
	C325.031189,481.400940 326.773590,482.586487 328.490295,483.521729 
	C330.077911,484.386719 331.604858,485.362457 333.675018,486.093231 
	C340.274292,492.744507 348.445831,495.867432 356.885864,499.247864 
	C359.992950,502.888641 364.119293,504.489044 367.625427,506.953705 
	C369.107574,507.995575 370.790497,508.793579 371.955017,510.700043 
	C371.754089,511.511841 371.449646,511.983459 371.072632,512.727539 
	C362.979095,513.000000 354.958191,513.000000 346.468628,513.000000 
z"/>
<path fill="#482A00" opacity="1.000000" stroke="none" 
	d="
M205.701584,478.775116 
	C205.874985,493.192383 198.670776,502.780762 186.508362,509.270752 
	C184.679428,510.246735 182.301010,510.288696 181.015671,512.639893 
	C174.645599,513.000000 168.291214,513.000000 161.468414,513.000000 
	C160.269852,509.857788 157.218063,510.661163 155.242783,509.654633 
	C153.679962,508.858215 152.000687,508.290283 150.161011,507.332092 
	C150.584396,504.535309 152.464172,503.221039 154.996429,502.068787 
	C159.506454,501.871277 163.572845,502.687164 167.722549,502.721008 
	C179.906403,502.820282 188.476974,497.105499 194.485382,486.916199 
	C195.658173,484.927338 196.437485,482.700928 198.380737,480.743530 
	C200.815155,479.504547 202.849030,478.170471 205.701584,478.775116 
z"/>
<path fill="#FCFCF9" opacity="1.000000" stroke="none" 
	d="
M318.189819,427.449707 
	C301.667328,445.165009 282.874847,458.203552 258.762878,462.018372 
	C238.957611,465.151825 219.994354,462.320251 201.121658,453.840576 
	C200.179962,453.744598 199.962997,453.661377 199.453674,453.390625 
	C194.966385,450.229645 193.464966,445.036011 189.473541,441.445557 
	C187.519852,438.165192 184.571854,435.925781 183.797546,432.062256 
	C184.259842,431.785583 184.587128,431.846863 184.917175,431.882874 
	C192.172134,432.674225 199.205872,432.316742 203.216110,425.042877 
	C207.335876,417.570374 204.227524,410.869781 199.729126,404.745605 
	C194.639633,397.816742 187.457382,393.124481 180.843185,387.861115 
	C169.403122,378.757477 158.200012,369.384644 147.230316,359.225647 
	C144.552399,357.359131 141.481812,356.242340 141.616028,352.205780 
	C140.828278,318.598206 150.098907,288.076813 166.855606,259.273865 
	C172.869949,253.063751 179.742050,248.668472 187.430099,244.817413 
	C191.619812,242.717056 195.537476,240.893417 200.520386,239.658310 
	C195.780594,240.620010 191.755859,240.361862 187.363739,240.124420 
	C181.705414,238.411835 177.662613,235.524490 176.496017,229.274536 
	C178.472336,218.185791 184.770386,209.564224 190.802414,200.818649 
	C195.518204,193.981445 200.646484,187.369873 202.009064,178.427643 
	C204.851196,178.435684 204.873795,181.041275 205.758743,182.809921 
	C210.039551,191.365417 216.265884,198.115479 224.289917,203.230927 
	C230.060974,206.910049 236.076447,207.872589 242.103729,203.949066 
	C255.154449,195.453583 270.139557,189.974625 281.373688,178.635254 
	C285.811890,174.155487 291.231232,172.666824 297.405762,174.233307 
	C299.372009,174.732132 301.374664,174.512756 303.734375,174.589417 
	C314.550446,193.163406 323.697296,212.235748 326.943542,233.575424 
	C327.236420,235.500580 327.953125,236.987076 329.244476,238.384796 
	C346.818573,257.406738 354.750183,280.449158 356.858185,305.762329 
	C358.173553,321.557648 357.369507,337.346283 355.324188,353.524414 
	C352.784210,356.135803 350.208832,354.587219 347.729340,354.079865 
	C340.229126,352.545197 338.723572,353.411407 336.686584,361.073578 
	C332.810974,365.166870 332.104187,369.791199 332.396423,374.793243 
	C332.541382,377.274414 332.567047,379.784760 332.049469,382.670898 
	C331.808075,383.328796 331.680359,383.580444 331.263000,384.141968 
	C329.180359,385.578827 327.119415,385.318909 325.157776,385.585419 
	C319.815277,386.311157 317.168091,389.012085 316.606049,394.349854 
	C316.342865,396.849243 316.609314,399.328430 316.965546,401.811066 
	C318.169403,410.201263 319.054230,418.614441 318.189819,427.449707 
z"/>
<path fill="#FFBD00" opacity="1.000000" stroke="none" 
	d="
M108.824577,353.582092 
	C117.640419,346.253082 125.835548,346.972870 132.761124,355.528748 
	C135.578644,359.009521 138.076294,362.749207 140.858154,366.680023 
	C150.936707,383.414795 159.515869,400.689331 171.667847,416.168640 
	C176.643616,424.010071 181.239014,431.645172 185.169647,440.099304 
	C187.963593,448.750793 190.078720,457.109009 188.958313,465.931061 
	C186.355362,486.426849 168.394073,494.078033 152.055435,490.704742 
	C149.113892,490.097412 146.218155,489.256409 143.466583,488.064575 
	C131.010086,482.669128 118.040047,479.091675 104.666321,476.897888 
	C90.988472,474.654175 77.908470,469.980103 64.412209,466.975159 
	C57.661152,465.472046 53.118977,461.427917 52.309479,453.668549 
	C51.957886,449.841522 53.525585,446.984619 55.311394,443.794861 
	C61.344952,437.321808 59.719788,429.804169 59.139053,422.607056 
	C58.919193,419.882355 58.249866,417.007721 56.429916,414.222961 
	C55.280132,409.482880 54.407726,405.080383 54.628284,400.571259 
	C55.091164,391.108215 61.438839,384.860535 70.838531,384.591217 
	C75.152260,384.467621 79.439629,384.676117 83.744003,385.236664 
	C95.283844,386.739410 101.260201,382.299988 103.652901,370.889801 
	C104.865021,365.109528 104.477188,358.855164 108.824577,353.582092 
z"/>
<path fill="#FEBF00" opacity="1.000000" stroke="none" 
	d="
M335.649475,361.355957 
	C336.348999,352.070709 339.069916,350.220032 347.830902,352.657806 
	C350.021637,353.267334 352.287201,353.607941 354.889099,354.025848 
	C357.648926,354.473755 360.037994,354.967957 362.698029,355.518219 
	C360.482819,360.515778 358.785553,365.628326 358.482269,371.522644 
	C356.752563,374.619385 355.222961,377.323059 355.859070,380.975586 
	C356.048523,381.778992 356.131134,382.247772 356.236298,383.086121 
	C356.350800,384.949738 356.299072,386.443817 356.124268,388.306946 
	C356.063568,393.509125 356.223206,398.323364 357.265717,403.068390 
	C359.017487,411.041382 365.413574,416.158875 373.589050,416.711456 
	C387.040070,417.620575 395.726440,410.021820 403.359741,400.483002 
	C407.058258,395.861267 409.982910,390.867737 408.759705,384.204681 
	C412.958374,379.272797 417.327728,374.913483 419.499329,368.999115 
	C420.478516,366.332367 420.919098,363.564301 420.924835,360.347198 
	C423.245941,360.860809 425.164429,362.066223 426.112244,363.762787 
	C429.348633,369.555969 433.777740,375.457092 433.480225,382.058655 
	C433.079895,390.940521 438.300354,397.055908 441.730652,404.022949 
	C444.842743,410.343689 450.763580,414.078094 457.077087,417.021393 
	C460.627899,418.676788 464.187134,420.365997 466.049255,424.551575 
	C466.729034,426.193146 467.280304,427.504669 466.993347,429.412292 
	C462.924957,439.694092 455.618744,446.040527 445.779480,449.668640 
	C440.147827,451.745239 434.365936,453.308990 428.476288,454.447205 
	C419.517242,456.178619 411.332672,459.625610 403.933411,465.013855 
	C391.519287,474.053955 378.203094,480.895447 362.501709,482.082153 
	C358.123352,482.413086 353.876434,482.420410 349.681824,481.057861 
	C339.578156,477.775879 335.034149,470.237091 336.066071,459.579102 
	C337.345612,446.363342 338.820160,433.113708 336.581329,419.418518 
	C336.425018,416.741089 335.836456,414.541534 335.615479,411.852722 
	C334.752167,403.020996 336.264954,394.707703 336.495544,385.910706 
	C336.596283,378.603027 336.630280,371.733551 334.910370,365.007324 
	C334.604218,363.809875 334.826111,362.754486 335.649475,361.355957 
z"/>
<path fill="#B7B7B5" opacity="1.000000" stroke="none" 
	d="
M304.131958,174.241974 
	C302.300964,176.974365 299.795990,176.197754 297.731354,175.558487 
	C291.879944,173.746735 286.804321,174.912399 282.651947,179.208328 
	C274.647919,187.489075 264.517303,192.512909 254.683167,198.024216 
	C252.223816,199.402512 249.777481,200.816498 247.413040,202.349594 
	C235.632996,209.987701 228.770126,209.621841 218.253601,200.550903 
	C211.227478,194.490540 205.675354,187.347290 202.377319,178.243011 
	C202.211334,171.964050 202.140656,165.865494 203.260483,159.412476 
	C206.614807,159.078125 208.075974,161.765274 209.873337,163.808014 
	C212.497437,166.790375 214.809631,170.040558 217.315567,173.132523 
	C224.790787,182.355789 234.299423,185.286285 245.706696,182.802750 
	C248.454956,182.204407 251.268158,181.843918 254.160980,180.420349 
	C259.409668,178.446396 264.174561,176.348114 268.390442,172.520813 
	C275.107605,167.713165 281.182861,162.545197 289.141418,159.795258 
	C291.862030,159.621445 293.712708,157.929337 296.349396,157.606613 
	C300.225555,162.573898 301.685516,168.461227 304.131958,174.241974 
z"/>
<path fill="#E79901" opacity="1.000000" stroke="none" 
	d="
M290.105530,160.651321 
	C282.357300,163.404053 276.352142,168.346268 269.813965,172.991592 
	C260.897858,177.617310 251.639481,176.726852 242.450073,176.242737 
	C240.485672,176.139252 238.551575,175.585419 236.767166,173.846054 
	C235.736710,169.292679 240.523376,169.106934 241.879364,165.997238 
	C243.594299,163.584320 246.044708,163.455231 248.230392,162.896591 
	C256.454529,160.794510 264.219574,157.743454 271.184448,152.190033 
	C271.551483,151.790573 271.682861,151.621826 272.031799,151.227158 
	C272.554901,150.741989 272.876556,150.505127 273.455536,150.152954 
	C273.843140,149.913162 273.995422,149.819138 274.365479,149.580353 
	C274.719513,149.332581 274.855865,149.229553 275.369385,148.792450 
	C275.866211,148.341522 275.985809,148.224686 276.463989,147.753235 
	C276.947174,147.282806 277.071747,147.167023 277.394043,146.885635 
	C277.732727,146.618698 277.873718,146.517349 278.236481,146.273285 
	C278.608368,146.034637 278.758484,145.938690 279.134460,145.689026 
	C279.510590,145.424362 279.660919,145.313431 280.038818,145.029205 
	C280.584259,144.617676 280.910065,144.390747 281.508484,144.003815 
	C284.370270,142.666611 286.691895,140.840530 289.988953,140.604355 
	C293.413666,142.056244 296.465668,139.330643 299.812561,140.785507 
	C300.683594,143.860825 299.430542,146.466324 298.870789,149.572479 
	C296.527191,153.908844 293.720032,157.397858 290.105530,160.651321 
z"/>
<path fill="#F8F7F5" opacity="1.000000" stroke="none" 
	d="
M299.431519,97.776566 
	C299.748138,99.099075 299.911469,100.156433 300.016724,101.613708 
	C300.021790,104.755180 299.997803,107.496956 299.963348,110.612350 
	C299.954865,111.739311 299.960419,112.492638 299.859558,113.609726 
	C297.450928,119.978020 294.830750,125.767212 288.863708,129.681000 
	C284.104858,130.145554 280.168701,129.059570 276.834747,125.585419 
	C277.306671,124.235748 278.283447,123.968033 279.247437,123.724716 
	C285.921844,122.039955 288.452850,116.954353 289.266174,110.873840 
	C290.072723,104.843987 287.868774,99.692017 282.979309,96.023422 
	C276.843719,91.419899 269.634399,93.308022 266.421356,100.280388 
	C264.501099,104.447357 263.752289,108.796448 265.186768,113.363419 
	C265.777039,115.242699 266.746429,117.057487 266.494171,119.476822 
	C264.383514,121.597443 262.697113,119.961288 260.598450,119.165550 
	C259.249908,118.340416 258.348511,117.559914 257.642487,116.147324 
	C256.669708,113.911606 255.779465,112.023933 254.855591,109.754387 
	C252.383194,104.000168 253.645401,98.851387 255.868500,93.813217 
	C256.655396,92.029854 257.635651,90.321709 258.772339,88.229721 
	C259.919312,86.256691 261.567932,85.792755 263.585266,85.157196 
	C265.071442,84.781746 266.174652,84.679901 267.695007,84.621025 
	C269.732025,84.516518 271.360199,84.594086 273.389954,84.580467 
	C278.419159,84.315689 282.791016,85.252182 287.271729,87.491760 
	C289.447021,88.357689 290.971069,89.581512 292.898468,90.799095 
	C294.823486,92.099800 296.291016,93.405197 297.807404,95.128922 
	C298.442078,96.080025 298.840698,96.807259 299.431519,97.776566 
z"/>
<path fill="#CB8400" opacity="1.000000" stroke="none" 
	d="
M108.771225,353.323181 
	C106.715027,359.480896 106.067886,366.061646 104.849876,372.536255 
	C102.750168,383.697815 94.325783,388.984619 82.600227,386.622589 
	C77.801170,385.655853 72.989853,385.731140 68.234871,386.099823 
	C59.658215,386.764801 54.303669,395.879120 56.317806,406.141357 
	C56.770527,408.448029 56.969215,410.719849 57.102379,413.470276 
	C57.581367,414.597931 57.839943,415.341492 57.595753,416.566345 
	C55.969296,418.661530 54.163586,419.670135 51.491730,419.216827 
	C50.483692,410.883545 49.447079,402.817841 49.972244,394.649841 
	C50.677013,383.688477 57.846527,379.458679 66.406708,379.032898 
	C69.886482,378.859772 73.393242,378.822845 76.868286,379.037994 
	C86.895645,379.658752 93.681946,374.980774 98.229576,366.402679 
	C100.852547,361.455017 104.057083,356.950165 108.771225,353.323181 
z"/>
<path fill="#FED504" opacity="1.000000" stroke="none" 
	d="
M276.756012,124.992096 
	C280.450165,127.175468 284.221680,128.394455 288.556244,129.120865 
	C289.984314,128.953247 290.992157,128.951355 292.110229,129.780212 
	C295.012848,131.607529 298.510345,132.321640 299.225342,136.560776 
	C297.166077,139.136200 294.162048,138.806305 291.196045,139.685883 
	C287.516357,140.072983 285.009491,142.175293 281.967407,143.892517 
	C281.126740,144.422592 280.602631,144.804764 280.163208,145.718567 
	C279.957489,145.971695 279.994019,146.004227 279.987366,145.980789 
	C279.571564,146.427429 278.974335,146.469604 278.200012,146.808105 
	C277.967529,146.978287 278.001068,147.000610 277.993103,146.982117 
	C277.778351,147.207138 277.558777,147.438599 277.146423,147.815735 
	C276.966339,147.973465 277.001221,147.999252 276.987396,147.982239 
	C276.774719,148.210037 276.559875,148.439865 276.149384,148.807983 
	C275.969727,148.961197 276.001038,148.999908 276.000275,148.974991 
	C275.785248,149.200348 275.558563,149.438782 275.134155,149.828491 
	C274.948914,149.991608 275.004150,150.004196 275.002625,149.975906 
	C274.582886,150.417435 273.981201,150.470245 273.192688,150.808350 
	C272.955078,150.978180 273.001251,150.999908 272.991882,150.976166 
	C269.525055,153.518997 266.700836,157.252045 261.481201,156.745209 
	C258.406219,150.720566 260.215088,144.483887 259.107422,138.170731 
	C258.880096,134.875671 259.076965,131.948715 258.303711,128.685654 
	C258.764435,124.939468 257.915466,121.453468 259.767975,117.955261 
	C261.809082,118.465294 263.533356,119.263084 265.601166,120.158295 
	C270.119202,120.224983 273.218506,122.810715 276.756012,124.992096 
z"/>
<path fill="#F8F7F5" opacity="1.000000" stroke="none" 
	d="
M224.969330,87.522789 
	C230.563873,96.549591 234.343994,105.492027 226.885162,115.824966 
	C225.665970,117.464470 224.507568,117.878220 222.842911,117.127731 
	C221.371170,114.900154 221.850449,112.677422 221.623276,110.555862 
	C221.139984,106.043053 220.245483,101.687027 216.833878,98.310905 
	C211.879898,93.408455 206.334686,94.754425 204.318192,101.370117 
	C201.373306,111.031746 205.280823,118.146652 212.943054,124.249146 
	C213.473358,125.331749 213.302414,126.048691 212.691101,127.049454 
	C211.315079,128.386734 210.018219,129.163635 208.195999,129.753265 
	C202.173492,128.585846 200.124878,124.008171 198.408844,119.321968 
	C197.739975,117.495392 197.308990,115.531113 196.606964,113.294037 
	C195.767136,107.600327 195.390396,102.229942 195.766602,96.371193 
	C197.407974,93.546295 199.137024,91.374985 201.668915,89.439987 
	C203.868973,88.150085 205.843704,87.202263 208.202576,86.177414 
	C209.833176,85.721436 211.131424,85.649651 212.836517,85.620789 
	C214.594009,85.519203 215.951126,85.556290 217.724991,85.599747 
	C220.466461,85.530876 222.606537,86.139137 224.969330,87.522789 
z"/>
<path fill="#F8C400" opacity="1.000000" stroke="none" 
	d="
M227.003510,115.853264 
	C229.802734,114.959137 232.534149,114.079071 235.634659,113.224197 
	C236.813553,113.934059 237.238831,114.858040 237.315842,115.864227 
	C238.496979,131.295898 239.142639,146.739502 238.202469,162.211868 
	C238.182861,162.534531 238.011139,162.847153 237.671051,163.580856 
	C234.673325,165.969116 231.695694,166.756271 227.993500,165.339706 
	C226.052872,162.650009 226.466293,159.934158 226.402161,157.310028 
	C226.122742,145.878189 226.939697,134.430206 225.823456,122.550842 
	C225.675400,121.481049 225.640488,120.867348 225.654694,119.795105 
	C225.703094,118.415802 225.902802,117.538551 226.653809,116.373734 
	C226.912262,116.003838 226.935699,115.867325 227.003510,115.853264 
z"/>
<path fill="#EEA700" opacity="1.000000" stroke="none" 
	d="
M408.651276,384.022400 
	C412.722748,391.092590 408.154266,396.264252 404.311523,401.285736 
	C397.171295,410.616089 388.800690,417.661438 375.946808,418.184265 
	C364.337585,418.656494 355.650360,410.451599 355.001373,397.862091 
	C354.857697,395.074738 354.651001,392.290588 354.726501,389.250366 
	C355.190216,388.873932 355.400665,388.752106 355.944183,388.778809 
	C357.783905,391.906097 359.841858,394.525513 361.851074,397.593536 
	C364.791779,406.269501 373.207336,412.269073 381.236481,411.642395 
	C390.446045,410.923584 398.474182,403.541626 400.311829,393.742981 
	C400.311523,393.164856 400.324829,392.933716 400.415222,392.364136 
	C400.959442,390.955017 401.958984,390.290436 402.721680,389.023010 
	C404.708008,387.203339 406.529388,385.679932 408.651276,384.022400 
z"/>
<path fill="#787879" opacity="1.000000" stroke="none" 
	d="
M365.772186,252.827240 
	C381.395782,263.343842 388.470184,278.213776 390.070038,296.263641 
	C391.422516,311.522278 386.550079,325.454926 381.691467,339.457611 
	C381.160675,340.987335 379.468994,342.515228 381.336975,344.532318 
	C383.269348,345.523193 382.970306,346.784119 382.077026,348.335205 
	C377.696289,348.219055 373.647980,348.559296 368.357269,349.214386 
	C380.904053,343.505096 380.692169,332.064026 383.259247,322.522491 
	C387.799042,305.648651 388.187195,288.740234 380.063171,272.497101 
	C376.506226,265.385468 371.635590,259.405212 365.250610,254.188721 
	C364.897705,253.444565 365.017365,253.034134 365.772186,252.827240 
z"/>
<path fill="#6C6C6C" opacity="1.000000" stroke="none" 
	d="
M141.424011,351.928467 
	C142.125854,355.026245 144.876343,356.375488 146.837570,358.725800 
	C140.263519,358.706665 136.602509,354.183655 133.773834,348.983612 
	C130.729050,343.386353 127.447021,338.165985 120.855728,335.200623 
	C128.239746,330.643311 129.326477,324.148804 128.334198,316.756866 
	C127.619949,311.436005 127.993561,306.120819 129.927124,301.048920 
	C134.295990,289.589081 138.075180,277.880859 143.931061,267.036499 
	C146.391785,262.479553 149.516937,258.401947 153.531906,254.590546 
	C154.018311,254.431366 154.230560,254.489197 154.559189,254.855804 
	C144.679977,270.899323 135.733337,287.190643 131.626984,305.534729 
	C128.707947,318.574707 129.748611,331.611572 134.899734,344.076752 
	C136.179871,347.174561 137.456146,350.581421 141.424011,351.928467 
z"/>
<path fill="#A56608" opacity="1.000000" stroke="none" 
	d="
M255.320847,180.808197 
	C239.039505,188.712006 223.951263,184.620728 216.201584,174.206329 
	C212.374603,169.063446 208.766861,163.645447 203.558624,159.208710 
	C201.858337,156.506073 198.938324,155.747787 196.918777,153.427673 
	C197.658951,151.874969 198.991180,151.859711 200.717239,151.927429 
	C203.498962,152.672089 205.613052,153.896912 207.805267,155.695160 
	C208.548523,156.414948 208.964905,156.955460 209.602646,157.735199 
	C210.096756,158.306976 210.386826,158.624359 210.917099,159.158112 
	C211.302872,159.534607 211.454971,159.688782 211.824142,160.086212 
	C213.667511,162.814560 217.240479,162.929321 218.738373,166.058990 
	C225.531631,175.232376 234.981445,177.967651 245.438232,178.680328 
	C248.776535,178.907852 252.487045,177.390289 255.320847,180.808197 
z"/>
<path fill="#FBD411" opacity="1.000000" stroke="none" 
	d="
M259.964355,117.466858 
	C259.671448,121.248367 260.563629,124.894699 259.241913,128.730591 
	C254.755554,131.626083 250.583939,134.234375 247.204742,137.927643 
	C246.207382,139.017731 244.883270,139.830643 242.891907,138.956451 
	C239.617783,130.445511 239.719681,122.067093 241.692230,113.235291 
	C247.186386,111.929031 251.956375,113.903473 257.193176,115.529175 
	C258.321289,116.288261 259.082611,116.777245 259.964355,117.466858 
z"/>
<path fill="#787879" opacity="1.000000" stroke="none" 
	d="
M281.513031,44.393242 
	C283.574768,39.666523 284.611603,35.329178 281.995789,30.765516 
	C280.613647,28.354225 281.113739,25.961540 283.240204,24.025478 
	C285.641235,21.839457 287.662445,23.589989 289.452179,24.870462 
	C295.657471,29.309996 300.816040,34.786263 305.356781,40.915283 
	C304.626495,41.475693 304.226837,41.870678 304.160309,41.820847 
	C298.787994,37.797928 294.438934,39.223797 289.982635,43.727802 
	C287.510193,46.226734 284.089172,47.875271 280.576843,49.034756 
	C279.604095,47.243813 281.174408,46.126541 281.513031,44.393242 
z"/>
<path fill="#7F7F80" opacity="1.000000" stroke="none" 
	d="
M334.550995,175.573639 
	C330.134827,178.472916 327.212646,176.015869 324.852539,173.170181 
	C321.360321,168.959442 319.235962,163.862122 316.740845,159.023499 
	C315.878723,157.351624 316.118500,155.693497 317.505920,154.504486 
	C318.961639,153.256943 320.635498,153.750793 322.124634,154.653397 
	C325.796631,156.879089 329.553070,158.989639 333.069458,161.442001 
	C337.915405,164.821594 338.412903,169.548111 334.550995,175.573639 
z"/>
<path fill="#DA9101" opacity="1.000000" stroke="none" 
	d="
M361.296875,398.279663 
	C359.362793,395.229797 356.021606,393.491119 356.009430,389.366699 
	C355.894867,387.162415 356.056549,385.300659 355.247864,383.252869 
	C355.009583,382.553284 355.004333,382.109833 355.001099,381.333801 
	C355.176239,378.784271 355.272919,376.525879 358.237549,375.806030 
	C359.478638,381.727692 360.546082,387.411133 365.948608,391.399323 
	C373.485352,400.279816 378.028229,401.496552 388.332611,397.637695 
	C390.019989,397.005829 391.656097,396.044098 393.925323,396.703064 
	C395.400116,398.828125 394.493622,400.371704 393.359558,401.889587 
	C387.776550,409.361786 377.150543,410.668518 370.141418,404.407776 
	C367.496979,402.045685 364.009918,401.119171 361.296875,398.279663 
z"/>
<path fill="#F8CC07" opacity="1.000000" stroke="none" 
	d="
M241.530518,112.747467 
	C242.231079,121.406174 241.245255,130.032578 243.750977,138.737885 
	C245.450867,141.988388 242.830139,143.793747 241.888306,146.045563 
	C240.506683,149.348740 239.341934,152.490158 242.616638,155.814850 
	C244.093445,158.151428 244.508011,160.292892 243.585419,162.989349 
	C241.766327,165.166107 239.854980,165.552475 237.329330,164.281113 
	C237.565353,147.344833 236.560715,130.752167 236.003677,113.699966 
	C237.706955,113.046371 239.410126,112.843369 241.530518,112.747467 
z"/>
<path fill="#434343" opacity="1.000000" stroke="none" 
	d="
M382.174194,348.711182 
	C381.765625,347.478180 381.781952,346.388916 381.729065,344.988495 
	C392.509125,345.486908 403.283020,346.920410 413.335419,351.264496 
	C419.167450,353.784760 420.089874,358.269897 416.450439,363.970673 
	C413.528259,363.149414 411.165314,361.595093 408.318909,360.252838 
	C401.953705,350.859833 391.996124,350.496246 382.174194,348.711182 
z"/>
<path fill="#503000" opacity="1.000000" stroke="none" 
	d="
M372.420532,510.986908 
	C367.084930,507.518646 360.943756,505.667908 357.045654,500.209900 
	C357.888641,498.968994 359.029022,498.612152 360.176331,498.680878 
	C366.897278,499.083649 373.209930,497.241364 379.922119,495.325897 
	C383.175903,497.135223 386.842987,498.068909 387.221893,502.536926 
	C382.726868,506.366058 378.151733,509.351227 372.420532,510.986908 
z"/>
<path fill="#D0D0CE" opacity="1.000000" stroke="none" 
	d="
M176.145279,229.254700 
	C179.321671,232.544891 181.000443,237.532684 186.704819,238.831238 
	C188.945908,240.718597 189.683258,242.734879 188.186920,245.553833 
	C180.421646,249.044983 174.484863,254.598770 167.465424,259.038452 
	C173.924835,250.384949 175.336990,240.096832 176.145279,229.254700 
z"/>
<path fill="#A16800" opacity="1.000000" stroke="none" 
	d="
M171.300980,417.197571 
	C158.886612,401.808594 149.605026,384.953796 140.951630,367.366089 
	C150.344299,377.951538 157.579437,390.349304 165.085175,402.556763 
	C167.852020,407.056824 170.364456,411.713287 173.102600,416.640198 
	C172.771088,417.396973 172.253647,417.544281 171.300980,417.197571 
z"/>
<path fill="#895500" opacity="1.000000" stroke="none" 
	d="
M452.244049,457.761719 
	C446.561798,461.589050 440.615936,464.151245 434.431061,466.997742 
	C430.410950,467.061249 428.216736,465.180115 427.263306,461.350220 
	C432.193420,455.683838 438.825623,453.583710 445.660400,451.151489 
	C448.913239,452.514771 452.047394,453.576294 452.244049,457.761719 
z"/>
<path fill="#AAAAAA" opacity="1.000000" stroke="none" 
	d="
M293.319885,91.628357 
	C291.538239,91.060921 290.050629,90.190849 288.284119,89.156464 
	C287.553619,88.516853 287.196869,87.990288 286.940155,87.375397 
	C283.842804,79.955849 279.968506,79.325859 274.142456,85.529938 
	C272.169891,85.776230 270.478882,85.821709 268.368103,85.810760 
	C267.141205,81.337944 269.212189,77.764374 274.722412,74.333908 
	C283.380554,73.557411 289.262726,77.721916 294.061829,84.431000 
	C294.642700,86.998642 294.690582,89.208229 293.319885,91.628357 
z"/>
<path fill="#7B4C00" opacity="1.000000" stroke="none" 
	d="
M427.660217,460.645874 
	C428.124634,464.370605 431.553467,464.846954 433.764374,466.895264 
	C428.295441,470.357849 422.517944,473.665741 416.389832,477.036072 
	C413.237640,476.818909 411.238068,474.999207 408.894348,473.157501 
	C408.628357,471.338776 409.474640,470.267090 410.593719,469.554810 
	C415.963776,466.136566 420.624512,461.394073 427.660217,460.645874 
z"/>
<path fill="#986000" opacity="1.000000" stroke="none" 
	d="
M452.384003,458.036621 
	C451.735504,454.714569 448.113617,454.458557 446.245972,452.116150 
	C445.710785,451.006744 446.207550,450.299835 446.943756,449.918121 
	C452.086182,447.252014 456.487366,443.465088 461.764832,440.383911 
	C464.743744,440.821411 467.184845,441.558044 468.154236,444.740906 
	C466.385590,449.740967 462.252319,451.951935 458.615112,454.595306 
	C456.797119,455.916534 454.705292,456.860962 452.384003,458.036621 
z"/>
<path fill="#5E3900" opacity="1.000000" stroke="none" 
	d="
M155.338623,502.268127 
	C153.839310,503.998047 152.205109,505.360779 150.259903,506.883423 
	C143.010193,504.553040 136.073822,502.056213 129.129532,499.581696 
	C128.361343,499.307983 127.547691,499.161896 126.366447,498.886169 
	C124.705887,495.928497 127.265800,494.700867 128.869171,492.709473 
	C138.510986,493.865784 147.197617,496.941864 155.338623,502.268127 
z"/>
<path fill="#5B5B5B" opacity="1.000000" stroke="none" 
	d="
M366.276550,266.629761 
	C369.247040,268.872009 371.490601,271.326752 373.137085,274.222198 
	C375.158203,277.776428 373.815277,280.170197 369.792542,279.922943 
	C366.572266,279.724976 363.565460,280.383240 360.471313,280.929504 
	C357.657013,281.426361 356.138580,280.513245 357.807617,277.406403 
	C359.839203,273.624695 363.582245,270.476868 361.273834,265.235901 
	C360.609955,263.728607 362.246765,263.561584 366.276550,266.629761 
z"/>
<path fill="#5E3900" opacity="1.000000" stroke="none" 
	d="
M387.313477,502.740601 
	C386.840485,499.091675 382.405090,499.352905 381.044556,496.301453 
	C380.662994,494.217255 382.111511,493.685364 383.152344,493.043091 
	C387.232788,490.524933 390.304749,486.712311 394.846436,484.248474 
	C397.987518,484.460083 400.133881,485.644531 401.137756,488.712280 
	C396.562134,493.593262 392.086151,498.098755 387.313477,502.740601 
z"/>
<path fill="#C47D02" opacity="1.000000" stroke="none" 
	d="
M394.330505,396.999878 
	C389.177948,398.023499 385.104126,401.140076 379.815094,401.129639 
	C373.119171,401.116394 369.099854,397.774231 366.135651,392.021118 
	C377.850647,397.892426 389.150421,396.561249 400.539062,389.848053 
	C401.352417,390.195374 401.525635,390.692261 401.197937,391.639374 
	C400.974182,391.992981 400.913727,392.467407 400.896332,392.705933 
	C399.308136,395.059509 397.081390,396.175659 394.330505,396.999878 
z"/>
<path fill="#6D4300" opacity="1.000000" stroke="none" 
	d="
M401.339447,488.927429 
	C399.878998,486.991852 397.732452,486.194794 395.471130,485.075317 
	C394.645630,484.442047 394.631714,483.685791 395.118256,483.235382 
	C399.210724,479.447021 402.608582,474.788300 408.457550,472.821106 
	C411.581268,473.189911 413.487823,475.101227 415.845917,476.811157 
	C411.239716,480.988007 406.440247,484.877563 401.339447,488.927429 
z"/>
<path fill="#6D4300" opacity="1.000000" stroke="none" 
	d="
M128.825516,492.798645 
	C129.022888,495.414124 126.514328,496.186768 126.026131,498.495361 
	C117.955956,496.084717 109.640839,494.524139 101.158333,492.356506 
	C101.286400,490.118530 102.527855,488.780121 104.371384,487.453491 
	C112.941353,487.953735 121.138992,488.550964 128.825516,492.798645 
z"/>
<path fill="#AB6E00" opacity="1.000000" stroke="none" 
	d="
M56.411995,443.725586 
	C55.156208,446.808380 54.136967,449.536285 53.063213,452.627197 
	C52.984398,455.177063 51.999325,456.903656 50.117981,458.575806 
	C47.853500,459.595398 45.923962,460.514557 43.469803,459.240784 
	C45.270535,452.364349 49.231678,446.497070 51.081482,439.360504 
	C52.576817,437.206970 54.341259,436.581909 56.891544,437.571075 
	C58.666191,439.836884 57.661648,441.604248 56.411995,443.725586 
z"/>
<path fill="#B87600" opacity="1.000000" stroke="none" 
	d="
M57.495712,437.949768 
	C55.237278,437.845001 53.536438,438.175537 51.534218,438.936188 
	C51.674992,432.593750 53.009140,426.196960 51.094570,419.401917 
	C52.870869,418.346008 54.573162,417.713715 56.619240,417.052063 
	C60.583279,423.823181 60.435684,430.805206 57.495712,437.949768 
z"/>
<path fill="#DA9101" opacity="1.000000" stroke="none" 
	d="
M208.297577,156.597748 
	C206.139465,155.822479 204.256699,154.685989 202.166290,153.296265 
	C199.228546,148.138916 200.699615,142.867447 200.547424,137.278351 
	C201.664230,135.429749 202.853348,134.034378 204.204956,132.332184 
	C205.163254,130.997391 206.044891,130.280899 207.623474,131.575348 
	C209.119171,140.019012 208.488510,148.138092 208.297577,156.597748 
z"/>
<path fill="#A16800" opacity="1.000000" stroke="none" 
	d="
M468.367432,444.939636 
	C466.991913,442.727936 464.400269,442.515717 462.241028,441.103973 
	C460.543915,438.800751 462.603546,437.820557 463.477295,436.421051 
	C464.595215,434.630310 465.343048,432.672119 466.006500,430.328003 
	C466.025146,428.572937 466.016327,427.158295 466.054382,425.321655 
	C473.255676,431.127228 474.007172,436.908508 468.367432,444.939636 
z"/>
<path fill="#7D5107" opacity="1.000000" stroke="none" 
	d="
M171.069473,417.297302 
	C171.445999,416.975555 171.950058,416.980072 172.833191,416.983276 
	C177.269714,421.284668 179.201248,427.163452 183.818207,431.435608 
	C185.949722,434.432587 187.968185,437.129089 190.078964,440.133423 
	C190.563904,441.595673 190.172913,442.480957 188.873215,443.339264 
	C186.253113,443.753571 185.268677,442.255096 184.273010,440.186829 
	C179.798492,432.434418 175.497742,425.028961 171.069473,417.297302 
z"/>
<path fill="#7B4C00" opacity="1.000000" stroke="none" 
	d="
M103.812271,487.768982 
	C103.935143,489.864014 102.757523,490.839111 101.211647,491.910706 
	C94.262047,491.292236 87.830063,489.543182 81.193680,487.404053 
	C79.967339,485.681732 80.481255,484.408539 81.688622,482.897949 
	C89.306740,483.788757 96.721291,484.405670 103.812271,487.768982 
z"/>
<path fill="#A16800" opacity="1.000000" stroke="none" 
	d="
M43.076756,459.396240 
	C45.171574,458.664642 47.173672,458.341400 49.560390,458.013428 
	C50.965420,461.927917 49.928333,466.100098 51.384315,470.346619 
	C49.989338,472.775085 47.975044,473.769257 45.281364,474.155548 
	C40.873653,469.761566 41.477673,464.844177 43.076756,459.396240 
z"/>
<path fill="#895500" opacity="1.000000" stroke="none" 
	d="
M81.837082,482.813660 
	C81.695335,484.264069 81.366478,485.344513 81.003052,486.766052 
	C74.162445,486.326385 68.040764,483.066406 61.176888,481.400513 
	C60.374744,479.925446 60.856113,478.941986 61.826324,477.717010 
	C69.303032,476.551331 75.560349,479.170319 81.837082,482.813660 
z"/>
<path fill="#C47D02" opacity="1.000000" stroke="none" 
	d="
M200.214630,137.019806 
	C203.507935,139.519958 201.470352,143.044083 201.941147,146.154587 
	C202.234741,148.094208 201.989410,150.115387 201.972290,152.571503 
	C200.514832,153.043045 199.071014,153.043045 197.192413,153.084610 
	C193.052734,149.026093 196.421921,145.153488 197.293716,141.276352 
	C197.626175,139.797760 199.035568,138.561295 200.214630,137.019806 
z"/>
<path fill="#DADAD9" opacity="1.000000" stroke="none" 
	d="
M259.614014,87.642258 
	C257.224762,94.476158 253.666550,100.860443 254.888458,108.897064 
	C249.998718,102.830231 251.580032,96.175606 254.707962,89.225067 
	C256.141785,87.738449 257.442688,86.808983 259.614014,87.642258 
z"/>
<path fill="#986000" opacity="1.000000" stroke="none" 
	d="
M61.984138,477.352051 
	C61.769901,478.614044 61.505859,479.523895 61.100174,480.765320 
	C55.350780,479.841919 49.534939,479.096924 45.066151,474.362610 
	C46.665329,473.065857 48.417713,472.081482 50.505066,471.061066 
	C54.693893,472.727386 58.444687,474.621155 61.984138,477.352051 
z"/>
<path fill="#434343" opacity="1.000000" stroke="none" 
	d="
M298.345795,79.074402 
	C293.611359,75.485649 289.991058,71.042114 284.722534,68.674301 
	C283.683746,68.207458 281.731415,67.817200 282.572205,66.011894 
	C283.257751,64.540047 285.018921,64.923805 286.126984,65.416069 
	C291.599640,67.847313 296.440277,71.133507 299.796814,76.696136 
	C300.441528,78.242813 299.672180,78.773628 298.345795,79.074402 
z"/>
<path fill="#5B5B5B" opacity="1.000000" stroke="none" 
	d="
M408.036682,360.397400 
	C411.298462,359.715271 413.873749,360.895966 415.974609,363.843536 
	C412.734985,368.271545 408.228058,370.200256 402.452759,370.885956 
	C404.497009,367.315460 407.986694,364.911438 408.036682,360.397400 
z"/>
<path fill="#989898" opacity="1.000000" stroke="none" 
	d="
M274.622131,74.019714 
	C272.749420,77.799149 268.632690,80.308380 267.969788,85.400650 
	C266.906799,85.884026 265.865265,86.013710 264.430542,86.112099 
	C261.616577,82.775177 263.275024,80.113060 265.652344,77.180237 
	C268.346466,74.890320 271.150787,74.018280 274.622131,74.019714 
z"/>
<path fill="#E1E1E0" opacity="1.000000" stroke="none" 
	d="
M207.271683,130.559235 
	C206.228851,131.036011 205.550400,131.392487 204.619690,131.887161 
	C199.165497,127.039078 197.194397,120.632469 196.393738,113.347198 
	C198.962280,114.345840 198.664795,117.154617 199.579224,119.318642 
	C201.281647,123.347496 203.329620,126.981773 207.823975,129.023819 
	C208.221909,129.620743 208.040482,130.074432 207.271683,130.559235 
z"/>
<path fill="#B7B7B5" opacity="1.000000" stroke="none" 
	d="
M208.268616,86.787560 
	C206.488434,88.098640 204.672546,89.073677 202.513123,90.091820 
	C199.938934,88.914635 198.893951,87.135536 199.670364,84.159065 
	C201.485306,80.782860 204.148743,79.092606 207.661499,78.096481 
	C209.248505,80.878899 206.317780,83.728668 208.268616,86.787560 
z"/>
<path fill="#7F7F80" opacity="1.000000" stroke="none" 
	d="
M265.577759,76.898758 
	C265.718201,79.743515 263.275208,82.138008 264.018860,85.667450 
	C262.836487,86.540359 261.635559,86.999908 260.187927,87.673462 
	C258.522308,88.268448 257.103424,88.649429 255.313568,88.991287 
	C256.311584,83.183594 260.958984,80.229591 265.577759,76.898758 
z"/>
<path fill="#E1E1E0" opacity="1.000000" stroke="none" 
	d="
M292.528625,129.724030 
	C291.325378,129.864807 290.347443,129.710510 289.161011,129.341217 
	C293.108856,124.649033 296.429077,119.607063 299.421265,114.046417 
	C299.233673,119.946625 296.820038,125.061951 292.528625,129.724030 
z"/>
<path fill="#C9C9C6" opacity="1.000000" stroke="none" 
	d="
M208.693542,87.119614 
	C203.969849,84.568855 206.444977,81.687569 207.961502,78.496506 
	C208.454300,78.040070 208.893417,77.941940 209.664368,77.915802 
	C213.935257,79.532600 214.938873,82.356178 213.312546,86.542465 
	C211.725677,86.955276 210.404205,87.035446 208.693542,87.119614 
z"/>
<path fill="#B7B7B5" opacity="1.000000" stroke="none" 
	d="
M213.460785,86.903702 
	C213.200378,83.774117 213.135147,80.745483 210.155884,78.308533 
	C212.796417,77.216835 215.173157,78.310036 217.733398,79.936188 
	C219.300461,82.066216 219.707581,84.043137 218.312210,86.529167 
	C216.640976,86.898766 215.257721,86.915527 213.460785,86.903702 
z"/>
<path fill="#F6AD00" opacity="1.000000" stroke="none" 
	d="
M289.726349,139.770172 
	C292.293823,137.181870 295.513916,137.617477 298.857910,136.949219 
	C300.332306,137.845245 300.038086,139.139038 300.152100,140.650726 
	C297.651703,141.526993 295.216919,141.984756 292.821167,142.595551 
	C291.535187,142.923416 290.525055,142.967422 289.925049,141.134613 
	C289.757660,140.545731 289.681274,140.323441 289.726349,139.770172 
z"/>
<path fill="#989898" opacity="1.000000" stroke="none" 
	d="
M293.228363,92.196396 
	C293.112762,89.764709 292.584259,87.524002 293.978210,85.123795 
	C296.922974,87.728203 298.085815,91.438705 298.936218,95.666412 
	C298.765198,96.183853 298.622314,96.314072 298.206360,96.346878 
	C296.432495,94.986916 294.931671,93.724358 293.228363,92.196396 
z"/>
<path fill="#7F7F80" opacity="1.000000" stroke="none" 
	d="
M199.488647,83.935249 
	C199.553116,86.002724 201.153320,87.548401 202.050934,89.769676 
	C200.301468,92.028137 198.433319,93.921349 196.234650,95.864525 
	C195.533981,91.574631 196.823517,87.695137 199.488647,83.935249 
z"/>
<path fill="#CB8400" opacity="1.000000" stroke="none" 
	d="
M290.179810,160.854279 
	C291.872528,156.702103 295.017548,153.418701 298.445953,150.036835 
	C299.133545,152.559158 298.083374,154.799591 296.851532,157.336121 
	C294.936493,159.275894 292.793976,160.182480 290.179810,160.854279 
z"/>
<path fill="#434343" opacity="1.000000" stroke="none" 
	d="
M216.573715,68.224594 
	C221.513321,70.006409 225.492767,72.512520 226.942032,77.964813 
	C223.242676,74.935364 219.542191,71.907295 215.852432,68.866211 
	C215.781860,68.808037 215.782806,68.556274 215.848343,68.465950 
	C215.936615,68.344322 216.120224,68.291870 216.573715,68.224594 
z"/>
<path fill="#AAAAAA" opacity="1.000000" stroke="none" 
	d="
M218.433243,86.936638 
	C218.008301,84.928658 217.992355,82.975311 217.979095,80.602654 
	C221.183380,81.624962 223.029419,84.471756 225.236420,87.381912 
	C223.071518,88.500618 221.056122,86.829514 218.433243,86.936638 
z"/>
<path fill="#EEA700" opacity="1.000000" stroke="none" 
	d="
M358.638428,375.564087 
	C356.222839,376.634857 356.486298,379.020569 355.260803,380.797699 
	C353.967316,377.432404 354.410126,374.300293 357.996277,371.963867 
	C358.456360,373.005981 358.582397,374.082092 358.638428,375.564087 
z"/>
<path fill="#6C6C6C" opacity="1.000000" stroke="none" 
	d="
M365.919800,252.654694 
	C365.834290,253.121033 365.555847,253.307495 365.155579,253.716217 
	C361.759399,251.864563 358.485046,249.790634 355.025146,247.434723 
	C354.839600,247.152725 354.946167,246.709503 355.167938,246.656891 
	C359.213257,247.850937 362.404480,250.230362 365.919800,252.654694 
z"/>
<path fill="#060605" opacity="1.000000" stroke="none" 
	d="
M298.126434,79.281403 
	C298.563477,78.475723 299.133057,77.989304 299.829926,77.247643 
	C300.242981,77.156258 300.600067,77.258591 300.802948,77.493889 
	C302.223572,79.141586 304.210449,81.773323 302.415649,82.995934 
	C300.062073,84.599174 299.434723,81.122948 298.126434,79.281403 
z"/>
<path fill="#E1E1E0" opacity="1.000000" stroke="none" 
	d="
M300.096436,110.637939 
	C298.265930,108.279228 299.019196,105.416664 299.685150,102.295387 
	C300.814240,104.746193 300.461639,107.520355 300.096436,110.637939 
z"/>
<path fill="#DADAD9" opacity="1.000000" stroke="none" 
	d="
M245.012085,102.383194 
	C245.602707,102.590721 245.911041,102.783165 246.218338,102.781563 
	C246.673279,102.779198 247.279099,102.236824 246.650909,102.114754 
	C245.124329,101.818100 243.752686,100.529480 241.917953,101.074455 
	C242.455292,102.859825 243.840164,101.925720 245.012085,102.383194 
z"/>
<path fill="#E19D00" opacity="1.000000" stroke="none" 
	d="
M401.283844,391.843262 
	C400.964508,391.504395 400.954865,391.015808 400.923615,390.161163 
	C401.368561,389.474426 401.835114,389.153748 402.594147,388.779907 
	C403.047333,389.973602 402.655304,390.979553 401.283844,391.843262 
z"/>
<path fill="#434343" opacity="1.000000" stroke="none" 
	d="
M156.219421,252.868210 
	C155.867615,253.782440 155.494415,254.354416 154.898407,255.045486 
	C154.500793,255.066544 154.325989,254.968491 153.978638,254.621994 
	C154.217041,253.847458 154.628021,253.321381 155.276810,252.689621 
	C155.742416,252.564590 155.970230,252.545258 156.219421,252.868210 
z"/>
<path fill="#E1E1E0" opacity="1.000000" stroke="none" 
	d="
M297.981201,96.514725 
	C297.933289,96.249466 298.425690,96.176559 298.666870,96.115097 
	C299.172882,96.534508 299.437714,97.015388 299.643677,97.768982 
	C298.771332,97.984749 298.273376,97.538773 297.981201,96.514725 
z"/>
<path fill="#434343" opacity="1.000000" stroke="none" 
	d="
M157.296722,251.106064 
	C157.114090,251.828400 156.894867,252.339401 156.458221,253.030426 
	C156.240814,253.210464 155.877380,252.902664 155.695999,252.743301 
	C155.789215,252.091431 156.063812,251.598923 156.587997,250.963531 
	C156.837585,250.820633 157.260101,250.894730 157.296722,251.106064 
z"/>
<path fill="#6C6C6C" opacity="1.000000" stroke="none" 
	d="
M352.397308,245.318146 
	C352.683411,245.291534 352.788513,245.398468 352.893616,245.505402 
	C352.667847,245.487488 352.442047,245.469589 352.397308,245.318146 
z"/>
<path fill="#6C6C6C" opacity="1.000000" stroke="none" 
	d="
M354.978333,247.016815 
	C354.607880,246.876114 354.376160,246.599503 354.144440,246.322876 
	C354.420441,246.284378 354.696472,246.245880 355.181091,246.405823 
	C355.389709,246.604279 355.117035,246.880890 354.978333,247.016815 
z"/>
<path fill="#434343" opacity="1.000000" stroke="none" 
	d="
M156.959946,250.946381 
	C157.051712,250.657684 157.265854,250.494751 157.480011,250.331848 
	C157.530396,250.561295 157.580780,250.790726 157.482239,251.168793 
	C157.333328,251.317398 157.082321,251.072144 156.959946,250.946381 
z"/>
<path fill="#C9C9C6" opacity="1.000000" stroke="none" 
	d="
M318.278412,427.790070 
	C316.587097,418.121094 316.555969,408.343048 315.165771,398.655334 
	C313.741119,388.727600 317.740234,383.045685 330.502869,383.963074 
	C333.333649,385.817261 333.371063,388.528809 333.491943,391.148346 
	C333.796387,397.744690 333.519409,404.320709 332.486572,411.320068 
	C332.409912,413.042450 332.280640,414.280029 331.240662,415.703278 
	C326.803314,419.947662 322.709076,423.870392 318.278412,427.790070 
z"/>
<path fill="#6D4300" opacity="1.000000" stroke="none" 
	d="
M330.905426,416.458771 
	C331.024902,414.956635 331.152283,413.888397 331.399597,412.436218 
	C332.958008,410.554077 334.586548,410.650452 336.652100,411.741089 
	C337.232300,414.000183 337.463104,416.000397 337.725525,418.376160 
	C337.718719,424.871063 337.640076,430.984436 336.339081,437.009186 
	C335.918365,438.957458 335.680115,440.950104 334.206268,442.937836 
	C331.731079,444.042969 330.114044,443.107544 328.395355,441.289978 
	C329.047485,432.952789 329.980408,424.922729 330.905426,416.458771 
z"/>
<path fill="#503000" opacity="1.000000" stroke="none" 
	d="
M334.003601,486.667358 
	C329.789398,487.343048 327.639221,483.053314 323.416626,482.999573 
	C322.733704,476.903198 322.993988,470.847260 324.109375,464.404480 
	C326.624542,462.724670 328.228546,464.583069 330.330292,465.895172 
	C331.610229,472.947784 332.576996,479.691345 334.003601,486.667358 
z"/>
<path fill="#5E3900" opacity="1.000000" stroke="none" 
	d="
M330.528931,465.953064 
	C327.940826,466.448639 326.577789,464.783142 324.516235,464.031738 
	C325.421478,456.572815 326.667755,449.171234 328.014282,441.376282 
	C329.639984,441.599670 331.165436,442.216461 333.032959,442.940674 
	C334.141663,443.987946 334.519745,445.141083 334.339813,446.265533 
	C333.290894,452.820557 333.478699,459.590698 330.528931,465.953064 
z"/>
<path fill="#6D4300" opacity="1.000000" stroke="none" 
	d="
M187.520554,443.421265 
	C188.668076,442.741302 189.415512,442.099640 190.040741,440.800049 
	C193.333710,444.432556 196.496140,448.423828 199.812317,452.714600 
	C200.226151,453.226044 200.466873,453.457886 200.901138,453.840607 
	C201.117355,453.968201 201.039047,453.908051 201.067444,453.867737 
	C200.815872,456.718170 203.197678,458.654022 203.788330,461.595215 
	C202.770401,463.279022 201.338120,463.769806 199.321869,463.760620 
	C197.910217,463.377899 197.189987,462.641205 196.876556,461.680969 
	C194.989243,455.898895 191.537628,451.014374 188.089401,446.120575 
	C187.603333,445.430756 187.352051,444.638611 187.520554,443.421265 
z"/>
<path fill="#503000" opacity="1.000000" stroke="none" 
	d="
M198.714996,463.351135 
	C200.363571,462.662659 201.740189,462.324188 203.468506,461.966125 
	C206.516617,467.053436 206.113419,472.591827 206.045593,478.541962 
	C203.888657,479.663940 201.752808,480.324585 199.234650,480.984558 
	C197.740814,479.785461 197.556488,478.266235 197.918259,476.844666 
	C199.028168,472.483521 197.739548,468.056824 198.714996,463.351135 
z"/>
<path fill="#DF8900" opacity="1.000000" stroke="none" 
	d="
M330.105774,466.463989 
	C331.135559,458.646729 332.193054,451.283295 333.312805,443.483948 
	C335.635345,435.338379 336.158081,427.338165 337.539246,419.098419 
	C340.393036,432.818146 338.964386,446.856689 337.173187,460.838623 
	C335.857239,471.110718 343.912445,480.661591 355.734497,480.830841 
	C368.132233,481.008362 380.152008,478.494110 390.873688,471.702362 
	C396.617523,468.063812 402.192749,464.156464 407.972748,460.578247 
	C415.723663,455.779907 424.473572,453.845673 433.260895,451.905457 
	C443.378052,449.671631 453.183197,446.681488 460.359436,438.302002 
	C462.465637,435.842621 463.778198,433.024628 465.756775,430.187561 
	C467.496979,434.495605 463.653412,436.951630 461.990234,440.621155 
	C457.231201,445.186005 451.974701,448.568848 446.153564,451.696320 
	C439.833496,454.202484 434.186615,457.406464 428.192871,460.585358 
	C420.959595,463.439270 414.971008,467.726135 408.994141,472.619202 
	C403.740356,476.055054 399.801941,480.523315 395.258789,484.734467 
	C390.596863,488.553406 386.606750,492.793213 381.199463,495.695221 
	C373.626678,499.133850 366.009857,500.820557 357.480896,499.838196 
	C348.502563,497.457184 340.096497,494.859619 334.017334,487.279297 
	C330.593140,480.679810 329.850372,473.892090 330.105774,466.463989 
z"/>
<path fill="#EB9900" opacity="1.000000" stroke="none" 
	d="
M198.741577,462.748474 
	C200.254318,468.717865 200.130081,474.425110 198.861343,480.554260 
	C194.538895,492.106323 187.484283,500.389191 175.435181,503.409668 
	C168.992844,505.024658 162.594055,504.375153 155.858276,502.701538 
	C147.112900,498.913116 138.556061,495.723969 129.391647,493.168152 
	C121.143715,490.566986 112.900101,489.738770 104.418777,488.126587 
	C97.009926,486.156830 89.557365,486.107361 82.394211,483.197083 
	C75.707344,481.141174 69.477486,478.786896 62.445045,477.770020 
	C58.341419,475.839111 54.051914,475.026489 51.045845,471.306641 
	C48.733143,467.101593 48.299171,463.023376 49.825768,458.391724 
	C50.781555,456.452148 51.618107,454.895630 52.731682,453.164673 
	C54.647942,463.101257 62.416214,464.708557 70.720695,467.246918 
	C94.936897,474.648956 120.630180,476.314697 144.061584,486.757202 
	C153.909912,491.146240 164.089706,491.662872 174.325928,486.466431 
	C185.453415,480.817505 188.858215,466.150604 187.739105,457.559418 
	C186.988968,451.800751 185.684235,446.198669 184.071548,440.246185 
	C185.117828,440.811798 186.136429,441.783691 187.403931,442.910767 
	C191.702652,449.299591 196.504089,455.113800 198.741577,462.748474 
z"/>
<path fill="#E1E1E0" opacity="1.000000" stroke="none" 
	d="
M216.593231,372.175964 
	C213.659927,361.082672 213.181015,350.272827 214.835602,339.297180 
	C215.351059,335.877899 214.946213,332.323181 215.005402,328.831207 
	C215.269257,313.267426 215.840302,297.728333 219.009842,282.416016 
	C219.305206,280.989075 219.729706,279.588898 220.503723,278.208160 
	C222.269730,311.163116 216.209915,344.042969 220.875732,377.727539 
	C217.429596,376.385132 217.355042,374.283600 216.593231,372.175964 
z"/>
<path fill="#D0D0CE" opacity="1.000000" stroke="none" 
	d="
M332.241241,263.898041 
	C328.517700,263.062286 326.782410,259.929688 324.117249,257.428528 
	C314.012177,242.369400 300.186218,236.505707 284.316956,240.681747 
	C279.970306,240.265930 275.917511,239.621735 271.449249,238.963684 
	C270.423798,238.297440 270.288544,237.541672 270.788483,236.374741 
	C281.509430,236.016693 291.909058,235.175278 302.594727,233.037048 
	C310.302094,235.375595 317.625793,237.787277 323.363312,243.216705 
	C329.190857,248.731323 333.763000,254.903061 332.241241,263.898041 
z"/>
<path fill="#DADAD9" opacity="1.000000" stroke="none" 
	d="
M332.008972,264.492493 
	C331.918579,252.348343 323.478546,241.673965 310.662140,236.995499 
	C308.098358,236.059586 305.088043,236.040115 303.061768,233.344574 
	C304.446564,231.428650 306.429413,230.839645 308.650574,230.010406 
	C313.820312,232.485535 319.223145,233.897110 323.739502,237.752411 
	C328.888184,245.433670 333.879181,252.804016 338.621552,260.331024 
	C340.291443,262.981384 341.200836,266.048859 341.001740,269.311493 
	C340.893250,271.089844 340.549133,272.618805 338.476624,270.857727 
	C336.241730,268.958588 334.191162,266.842560 332.008972,264.492493 
z"/>
<path fill="#C9C9C6" opacity="1.000000" stroke="none" 
	d="
M284.410431,240.989761 
	C284.288422,238.807724 285.972412,238.206268 287.587494,238.111130 
	C301.044189,237.318375 313.069794,240.331802 321.919525,251.450577 
	C323.069336,252.895203 323.980011,254.439636 323.968414,256.753754 
	C312.067566,248.951172 298.833618,244.033203 284.410431,240.989761 
z"/>
<path fill="#EFEFED" opacity="1.000000" stroke="none" 
	d="
M226.321777,241.007324 
	C223.244705,238.717834 220.632477,236.216400 216.590744,235.739899 
	C222.861801,233.565750 228.902985,231.669418 230.578033,223.553619 
	C233.765686,227.907013 236.230545,231.756226 240.504028,233.877350 
	C242.904419,235.068756 241.338654,236.355331 239.917816,236.966812 
	C237.402283,238.049393 235.604614,239.984055 233.315033,241.860657 
	C231.009796,240.965469 228.985153,240.046906 226.321777,241.007324 
z"/>
<path fill="#E1E1E0" opacity="1.000000" stroke="none" 
	d="
M323.992737,237.598572 
	C318.875458,235.878510 313.559967,234.153305 309.051971,230.318146 
	C314.158752,224.961960 317.844574,219.078278 319.367004,211.874390 
	C320.479401,220.564087 321.966339,228.925964 323.992737,237.598572 
z"/>
<path fill="#895500" opacity="1.000000" stroke="none" 
	d="
M337.069092,411.535980 
	C335.432709,412.010406 333.863922,412.020844 331.907349,412.041779 
	C331.308502,402.963257 332.491577,393.857880 331.072662,384.377930 
	C331.011078,383.811096 331.076569,383.647888 331.256561,383.246948 
	C333.900177,381.302734 335.515533,383.252258 337.570923,384.758484 
	C337.601471,393.706512 337.369110,402.389221 337.069092,411.535980 
z"/>
<path fill="#986000" opacity="1.000000" stroke="none" 
	d="
M337.900940,384.560425 
	C335.498810,385.553192 334.225098,383.008514 331.717896,383.020630 
	C331.190186,378.904510 330.931824,374.801270 330.851074,370.694550 
	C330.776093,366.879761 332.073669,363.603333 335.497192,361.077942 
	C337.170593,368.612640 338.497742,376.268372 337.900940,384.560425 
z"/>
<path fill="#E1E1E0" opacity="1.000000" stroke="none" 
	d="
M188.272461,245.798798 
	C188.166000,243.784424 187.919327,241.729111 187.056808,239.363037 
	C191.956787,238.973038 196.892548,238.973038 201.828308,238.973038 
	C201.914780,239.215912 202.001251,239.458771 202.087723,239.701645 
	C197.595871,241.698532 193.104019,243.695419 188.272461,245.798798 
z"/>
<path fill="#E1E1E0" opacity="1.000000" stroke="none" 
	d="
M226.000519,241.428741 
	C228.431305,237.658279 230.695358,238.652435 232.951141,241.660187 
	C231.016281,245.565170 228.738434,248.973923 227.477936,253.000000 
	C226.806717,249.214661 227.379807,245.407974 226.000519,241.428741 
z"/>
<path fill="#E1E1E0" opacity="1.000000" stroke="none" 
	d="
M270.564331,236.024628 
	C271.024078,236.774292 271.015289,237.499924 271.020172,238.587677 
	C266.396881,238.226196 261.759949,237.502563 257.123016,236.778931 
	C257.136383,236.519485 257.149780,236.260040 257.163147,236.000595 
	C261.474030,236.000595 265.784912,236.000595 270.564331,236.024628 
z"/>
<path fill="#010101" opacity="1.000000" stroke="none" 
	d="
M201.089905,453.674286 
	C200.817490,453.804565 200.517639,453.640930 200.091919,453.245728 
	C200.331528,453.136200 200.696991,453.258301 201.089905,453.674286 
z"/>
<path fill="#EB9900" opacity="1.000000" stroke="none" 
	d="
M57.008602,438.391022 
	C59.137703,431.288635 57.938049,424.581512 56.978249,417.448364 
	C56.988293,416.244080 57.013561,415.465485 57.079647,414.297668 
	C60.293163,415.773712 60.057453,419.268524 60.378899,422.070618 
	C61.242020,429.594543 62.981270,437.450714 56.505737,443.993591 
	C56.448578,442.314148 56.721706,440.547821 57.008602,438.391022 
z"/>
<path fill="#E19D00" opacity="1.000000" stroke="none" 
	d="
M355.000854,383.425110 
	C358.122681,384.173065 356.513916,386.602448 356.254181,388.802643 
	C355.832672,388.998596 355.662170,388.998718 355.235718,388.997253 
	C354.982117,387.281647 354.984497,385.567566 355.000854,383.425110 
z"/>
<path fill="#C47D02" opacity="1.000000" stroke="none" 
	d="
M255.641495,181.159286 
	C252.676819,178.950714 249.539917,180.028656 246.685425,180.081268 
	C236.985153,180.260025 228.493057,177.093369 220.961777,171.242142 
	C219.451401,170.068710 217.030441,169.108475 217.789948,166.144699 
	C219.607956,164.792786 221.093918,165.599762 222.935471,166.345078 
	C226.617462,170.965164 231.972977,170.046280 236.708862,171.767700 
	C238.679733,175.214264 241.852844,174.782349 244.628738,174.963974 
	C252.693604,175.491623 260.694214,174.889526 269.037842,173.036606 
	C265.813293,177.107819 260.978088,179.245850 255.641495,181.159286 
z"/>
<path fill="#7B4C00" opacity="1.000000" stroke="none" 
	d="
M223.417374,167.344360 
	C221.606018,166.730377 220.183395,166.398026 218.397110,166.005371 
	C216.145584,163.592300 212.110291,164.046249 211.053909,160.248032 
	C211.446732,159.593674 211.888992,159.422760 212.738556,159.422928 
	C215.058701,160.275314 216.916382,161.346359 219.366470,161.889008 
	C222.252396,162.828140 225.078125,162.715027 227.707367,164.484192 
	C230.789703,165.230804 233.483429,164.489426 236.601852,164.068726 
	C238.806610,164.048050 240.604935,164.054962 242.659912,163.176147 
	C248.710251,159.864944 255.125717,158.832001 261.621460,156.958008 
	C265.431519,155.020798 268.857513,153.017456 272.633026,150.983276 
	C273.299225,153.162735 271.350250,153.599442 270.109863,154.531387 
	C262.221680,160.458191 253.049347,163.205078 243.231812,165.313660 
	C236.953644,169.894684 230.401108,168.948456 223.417374,167.344360 
z"/>
<path fill="#EEA700" opacity="1.000000" stroke="none" 
	d="
M223.062164,167.415665 
	C229.419571,167.308502 235.766953,166.959579 242.472763,165.570526 
	C243.148849,169.390976 239.599258,169.821014 237.184326,171.753723 
	C231.961227,171.897034 226.531128,173.082306 223.062164,167.415665 
z"/>
<path fill="#7D5107" opacity="1.000000" stroke="none" 
	d="
M289.500916,139.350220 
	C289.785919,139.732834 289.776642,140.028107 289.827026,140.546509 
	C287.121674,142.222595 284.409241,143.677200 281.351715,145.251770 
	C280.862579,145.150772 280.718536,144.929825 280.800629,144.384247 
	C283.299133,141.720428 285.475128,139.218079 289.500916,139.350220 
z"/>
<path fill="#7B4C00" opacity="1.000000" stroke="none" 
	d="
M273.277588,151.075623 
	C273.425720,150.566071 273.896393,150.153976 274.684082,149.844742 
	C274.842926,150.709122 274.299927,151.030731 273.277588,151.075623 
z"/>
<path fill="#A16800" opacity="1.000000" stroke="none" 
	d="
M278.281860,147.020264 
	C278.430359,146.575760 278.893219,146.173233 279.668396,145.864029 
	C279.519196,146.325653 279.057678,146.693954 278.281860,147.020264 
z"/>
<path fill="#A16800" opacity="1.000000" stroke="none" 
	d="
M280.748260,144.203003 
	C281.025574,144.277084 281.024353,144.494553 281.014893,145.041870 
	C280.898560,145.664963 280.694489,145.855560 280.175964,145.957611 
	C279.616089,145.268509 280.024719,144.801697 280.748260,144.203003 
z"/>
<path fill="#7B4C00" opacity="1.000000" stroke="none" 
	d="
M275.227905,149.946625 
	C275.093842,149.653015 275.238770,149.314423 275.691589,148.962952 
	C275.835297,149.267258 275.671082,149.584457 275.227905,149.946625 
z"/>
<path fill="#A16800" opacity="1.000000" stroke="none" 
	d="
M276.250061,148.939713 
	C276.115875,148.645630 276.261993,148.330063 276.690857,147.989868 
	C276.825867,148.282913 276.678131,148.600571 276.250061,148.939713 
z"/>
<path fill="#A16800" opacity="1.000000" stroke="none" 
	d="
M277.249329,147.949265 
	C277.126282,147.668381 277.286224,147.363281 277.715668,147.010895 
	C277.834229,147.284103 277.683289,147.604584 277.249329,147.949265 
z"/>
<path fill="#060605" opacity="1.000000" stroke="none" 
	d="
M277.295898,125.293564 
	C273.053253,124.588837 269.922485,122.249260 266.188202,120.490555 
	C263.835358,114.665840 262.126923,109.068253 263.937592,102.979393 
	C265.560516,97.521721 268.481110,93.165436 274.349854,92.218864 
	C280.176422,91.279099 284.653931,94.256256 287.761566,98.985123 
	C294.667206,109.493385 289.054779,125.139679 277.295898,125.293564 
z"/>
<path fill="#C9C9C6" opacity="1.000000" stroke="none" 
	d="
M274.299133,85.820244 
	C274.567047,81.030281 277.665161,79.297272 281.902649,80.123940 
	C286.012451,80.925713 288.283081,83.748665 287.998596,88.591545 
	C283.646271,87.690559 279.524445,85.368439 274.299133,85.820244 
z"/>
<path fill="#FFDA36" opacity="1.000000" stroke="none" 
	d="
M242.290726,156.267197 
	C237.139587,154.558105 238.788574,150.873001 239.693588,147.998199 
	C240.612198,145.080170 242.479095,142.460663 243.987457,139.357849 
	C248.790161,135.718018 251.671280,129.783005 258.571716,129.024231 
	C260.648956,131.232391 260.956116,133.654572 259.993774,136.625229 
	C258.380798,145.860962 251.624939,150.856720 245.424316,156.247772 
	C244.671890,156.901962 243.584152,156.927643 242.290726,156.267197 
z"/>
<path fill="#FBD411" opacity="1.000000" stroke="none" 
	d="
M242.039795,156.433014 
	C248.802032,153.984146 252.278580,148.156555 256.374725,143.092789 
	C257.707031,141.445770 258.438324,139.312592 259.714600,137.195251 
	C261.500946,139.438828 261.048004,142.174286 260.956268,144.796570 
	C260.821564,148.646454 261.279846,152.408859 262.001892,156.593781 
	C256.449280,160.572586 250.144363,161.855164 243.402496,163.018555 
	C243.102112,160.879410 243.003220,158.788422 242.039795,156.433014 
z"/>
<path fill="#060605" opacity="1.000000" stroke="none" 
	d="
M212.795135,125.159592 
	C203.263123,119.165810 200.124084,111.114555 203.021439,100.737366 
	C203.897141,97.600937 205.267502,94.748024 208.822861,93.915359 
	C212.435074,93.069382 215.408981,94.443695 217.722687,97.124771 
	C222.631393,102.812874 223.808456,109.471985 222.355286,117.194443 
	C221.551392,119.622063 219.955917,120.818100 218.303772,122.400940 
	C216.478683,123.619453 214.940277,124.673599 212.795135,125.159592 
z"/>
<path fill="#FAB901" opacity="1.000000" stroke="none" 
	d="
M217.163132,122.101700 
	C218.683014,120.414413 220.261795,119.208183 222.037994,117.841217 
	C223.520004,117.153152 224.804581,116.625824 226.500702,116.051170 
	C226.922775,116.815315 226.933304,117.626801 226.910400,118.843056 
	C226.946457,119.789902 224.849869,119.742424 226.723724,120.820450 
	C228.738571,126.062920 227.896439,131.373810 227.966766,136.607208 
	C228.088577,145.669220 228.004135,154.733978 228.010391,164.242538 
	C225.139496,164.841064 222.402237,164.088608 219.325653,163.216751 
	C217.182190,160.947693 217.375488,158.397964 217.357788,155.923706 
	C217.278259,144.810257 217.449921,133.695724 217.163132,122.101700 
z"/>
<path fill="#F6AD00" opacity="1.000000" stroke="none" 
	d="
M216.815460,121.738525 
	C219.559311,122.672455 218.973816,124.883949 218.980087,126.784058 
	C219.018860,138.548386 218.999481,150.312912 218.998917,162.547638 
	C216.912460,162.816483 215.055466,162.004105 213.073669,160.651932 
	C211.486404,158.393616 211.344345,156.104141 211.347290,153.774704 
	C211.358337,145.044785 211.306824,136.314926 211.285095,127.099991 
	C211.550903,126.232628 211.849228,125.850258 212.298767,125.275681 
	C213.808884,124.007782 215.167786,122.932098 216.815460,121.738525 
z"/>
<path fill="#EEA700" opacity="1.000000" stroke="none" 
	d="
M211.018616,126.771164 
	C213.392838,127.648705 212.987701,129.635956 212.988678,131.417252 
	C212.993820,140.746460 212.958481,150.075699 212.885880,159.910965 
	C212.442520,160.286407 212.050461,160.155792 211.355743,159.957825 
	C211.053055,159.890457 211.013245,159.943481 211.042023,159.959534 
	C210.568573,159.502243 209.822495,159.509399 209.158112,158.772278 
	C208.749939,158.101852 208.483337,157.735809 208.119476,157.164368 
	C206.134186,148.591583 207.383621,140.092926 206.935669,131.171814 
	C207.255920,130.302536 207.604568,129.925568 208.066742,129.313232 
	C209.048416,128.361038 209.916534,127.644180 211.018616,126.771164 
z"/>
<path fill="#A16800" opacity="1.000000" stroke="none" 
	d="
M226.961853,120.650154 
	C225.827377,121.346611 224.755981,123.698875 223.827972,122.352463 
	C222.543076,120.488235 224.544708,119.626656 226.550781,119.213913 
	C226.903137,119.621376 226.929321,119.994926 226.961853,120.650154 
z"/>
<path fill="#E19D00" opacity="1.000000" stroke="none" 
	d="
M393.986816,397.349854 
	C395.823273,395.294067 397.798645,393.824158 400.542114,392.989075 
	C403.225861,395.710663 400.917511,398.072601 399.823639,400.131683 
	C395.844208,407.622345 389.643036,412.431427 380.976135,412.921021 
	C372.716400,413.387665 366.902557,408.787659 362.314056,402.441986 
	C361.579285,401.425842 361.432129,399.984802 361.012085,398.366425 
	C364.644928,399.130402 368.063721,400.442780 370.904480,403.301331 
	C377.980560,410.421722 390.409515,407.315704 393.986816,397.349854 
z"/>
<path fill="#7B4C00" opacity="1.000000" stroke="none" 
	d="
M209.123260,158.808441 
	C209.579147,158.792404 210.141739,159.116928 210.887543,159.708527 
	C210.457169,159.700058 209.843567,159.424530 209.123260,158.808441 
z"/>
<path fill="#A16800" opacity="1.000000" stroke="none" 
	d="
M252.134979,118.742493 
	C253.809158,119.542694 255.523727,120.182945 254.629822,122.028290 
	C253.941635,123.448982 252.304260,123.180656 251.186325,122.450897 
	C249.772034,121.527702 246.839981,121.576706 247.218933,119.543030 
	C247.640640,117.279823 250.055893,118.182655 252.134979,118.742493 
z"/>
<path fill="#787879" opacity="1.000000" stroke="none" 
	d="
M278.778992,97.323639 
	C282.897125,98.074959 285.245361,100.595154 286.486969,104.260033 
	C286.753967,105.048065 287.053070,105.909424 286.355804,106.573112 
	C285.413727,107.469795 284.455994,106.883827 283.743805,106.224541 
	C281.811584,104.435844 279.969147,102.550194 277.891418,100.425835 
	C277.502594,99.139275 277.712067,98.253365 278.778992,97.323639 
z"/>
<path fill="#434343" opacity="1.000000" stroke="none" 
	d="
M278.777222,96.909126 
	C278.728577,97.925743 278.397217,98.750229 277.878784,99.861702 
	C276.559204,99.259407 274.960419,98.317856 275.551178,96.766602 
	C276.040802,95.480896 277.476257,96.236282 278.777222,96.909126 
z"/>
<path fill="#5B5B5B" opacity="1.000000" stroke="none" 
	d="
M215.840790,107.103966 
	C215.017197,104.675545 213.693329,103.029884 212.024704,101.628220 
	C211.067505,100.824181 210.383179,99.759102 211.157089,98.632019 
	C211.915710,97.527199 213.257599,97.682022 214.291840,98.271011 
	C217.384613,100.032288 219.270493,102.628334 218.847626,106.328369 
	C218.645981,108.092796 217.962311,109.816231 215.840790,107.103966 
z"/>
</svg>