<svg version="1.1" id="Layer_1" xmlns="http://www.w3.org/2000/svg" xmlns:xlink="http://www.w3.org/1999/xlink" x="0px" y="0px"
	 width="100%" viewBox="0 0 512 512" enable-background="new 0 0 512 512" xml:space="preserve">
<path fill="#010100" opacity="1.000000" stroke="none" 
	d="
M292.000000,513.000000 
	C196.023300,513.000000 100.546577,512.979980 5.069989,513.084900 
	C1.800029,513.088501 0.894547,512.639221 0.897057,509.071777 
	C1.015221,341.112823 1.016794,173.153793 0.892003,5.194884 
	C0.889213,1.440334 1.845027,0.913238 5.303172,0.915236 
	C173.095520,1.012172 340.887909,1.011479 508.680267,0.919031 
	C512.093567,0.917150 513.114197,1.377905 513.111267,5.178299 
	C512.982422,173.137222 512.985168,341.096252 513.101074,509.055206 
	C513.103516,512.588806 512.252319,513.093384 508.946533,513.088135 
	C436.797821,512.972534 364.648895,513.000000 292.000000,513.000000 
z"/>
<path fill="#F0C020" opacity="1.000000" stroke="none" 
	d="
M336.269226,356.575989 
	C316.673218,356.986450 297.358551,357.059753 278.043823,357.119049 
	C271.548279,357.138977 265.052582,357.126221 258.556976,357.122925 
	C255.023041,357.121155 252.061340,358.099487 252.069138,362.264557 
	C252.077148,366.531921 255.095093,367.153900 258.636292,367.148438 
	C284.118927,367.109039 309.601654,367.142670 335.545898,367.240479 
	C338.034912,369.343048 337.580597,371.958496 337.595551,374.394104 
	C337.670013,386.532288 337.541260,398.671875 337.687744,410.808960 
	C337.721771,413.627136 336.941040,418.054688 340.802155,418.146240 
	C345.216522,418.250946 344.262177,413.633789 344.303772,410.718353 
	C344.472046,398.914459 344.348694,387.107178 344.388794,375.301270 
	C344.397186,372.826355 344.114136,370.291138 345.663666,367.647522 
	C357.122070,366.603302 357.122223,366.603302 357.122009,377.666321 
	C357.121613,399.495758 357.184174,421.325439 357.103821,443.154572 
	C357.011627,468.194275 342.359192,486.525696 317.849823,492.223846 
	C277.097565,501.698303 236.298340,501.757660 195.593964,492.087402 
	C171.025589,486.250580 156.843369,467.944763 156.808289,442.627258 
	C156.748276,399.301727 156.728958,355.975922 156.813675,312.650452 
	C156.871811,282.917786 177.841461,262.032562 207.482544,262.006989 
	C240.310013,261.978668 273.137543,262.023987 305.964996,261.993988 
	C341.689789,261.961334 367.044861,236.677673 367.118011,201.047623 
	C367.145050,187.883362 367.244049,174.717148 367.043610,161.555893 
	C366.989380,157.997757 367.674988,156.691101 371.615631,156.723511 
	C395.776337,156.922256 419.940247,156.709518 444.101685,156.858414 
	C468.172394,157.006775 486.693909,171.979843 492.070068,195.574295 
	C501.427948,236.643005 501.950867,277.745361 492.013824,318.808777 
	C486.318939,342.342133 467.746185,356.989136 443.665436,357.118042 
	C439.832886,357.138550 436.000092,357.115448 432.167542,357.132477 
	C429.871521,357.142670 428.013916,357.837982 426.762421,360.010101 
	C424.222778,364.417847 418.448029,364.309174 415.561829,359.885040 
	C413.159698,356.203033 409.085236,356.355469 406.754364,360.214539 
	C404.303650,364.272125 398.107483,364.257874 395.779938,360.112946 
	C394.203308,357.305267 391.667786,357.108643 388.911804,357.111359 
	C374.914612,357.125214 360.917389,357.102142 346.458374,357.004761 
	C343.161438,351.724854 344.479248,346.227173 344.942749,340.833527 
	C345.124573,338.717957 346.972412,337.947052 348.917816,337.659241 
	C351.071442,337.340576 353.241730,337.422943 355.406616,337.422424 
	C384.405945,337.415375 413.405304,337.438660 442.404602,337.410065 
	C458.958282,337.393707 469.595001,329.226746 473.268158,313.195740 
	C481.698029,276.404846 481.723053,239.538986 473.754089,202.647186 
	C471.316498,191.362411 465.769928,182.617783 454.617218,178.188065 
	C451.455597,176.932312 448.224426,176.333542 444.835510,176.823517 
	C443.244904,177.053482 441.812347,177.703201 441.661591,179.469650 
	C441.514771,181.189789 442.753845,182.147690 444.231079,182.773315 
	C445.477142,183.301010 446.822266,183.366531 448.126892,183.623642 
	C457.363922,185.444016 463.315308,190.946518 465.812927,199.950577 
	C469.705505,213.983490 471.655243,228.393753 472.396454,242.868408 
	C473.516205,264.736725 472.185760,286.508118 467.327667,307.957977 
	C466.738159,310.560791 466.132324,313.157196 465.170959,315.653351 
	C461.418976,325.395172 454.212982,330.523682 443.735229,330.550903 
	C412.402771,330.632355 381.070099,330.575226 349.737488,330.582550 
	C347.904297,330.582977 346.068329,330.520905 344.238556,330.631592 
	C339.166718,330.938354 337.852356,332.235443 337.637115,337.409729 
	C337.463989,341.571930 337.627563,345.742157 337.567780,349.908081 
	C337.536896,352.058777 337.769257,354.267303 336.269226,356.575989 
z"/>
<path fill="#72C1E8" opacity="1.000000" stroke="none" 
	d="
M26.449402,331.414612 
	C19.731529,316.770233 18.419748,301.269470 16.187656,285.986969 
	C15.750850,282.996307 15.244342,280.646912 11.778484,279.612335 
	C9.200634,278.842834 9.205952,270.669312 11.573561,269.166473 
	C15.857009,266.447540 15.740646,262.598328 11.295694,259.975464 
	C8.141040,258.113983 7.830346,250.917374 11.041755,249.529434 
	C14.229008,248.151947 14.878357,245.843491 15.031806,242.788239 
	C15.835343,226.789444 18.070852,210.990417 21.842110,195.410095 
	C27.604992,171.601730 45.957447,156.879639 70.450241,156.848495 
	C131.281097,156.771179 192.112122,156.825333 252.943069,156.807251 
	C254.764114,156.806717 256.657806,156.865219 258.389008,156.408569 
	C260.964905,155.729141 262.208557,153.722885 261.850311,151.079575 
	C261.532257,148.732483 260.197296,147.084335 257.627075,146.911133 
	C256.132965,146.810440 254.629623,146.824188 253.130432,146.823975 
	C222.631622,146.819595 192.132370,146.741562 161.634567,146.916489 
	C157.630127,146.939468 156.678894,145.788193 156.707611,141.916107 
	C156.883148,118.251656 156.729385,94.585022 156.815918,70.919594 
	C156.907944,45.750854 171.427826,27.432514 195.937027,21.782259 
	C237.016266,12.312011 278.119812,12.124616 319.182068,21.994896 
	C341.768066,27.423967 356.713776,46.037552 357.090576,69.186180 
	C357.155670,73.185005 357.179810,77.187149 357.093506,81.184975 
	C357.020050,84.589325 357.569489,87.266182 361.393402,88.655952 
	C364.015778,89.609032 363.654602,97.266441 361.157410,98.796822 
	C355.723358,102.127007 355.737701,105.034370 361.204865,108.422310 
	C363.767761,110.010490 363.955292,117.906868 361.235229,118.892914 
	C357.362549,120.296783 357.090637,123.135773 357.094330,126.464424 
	C357.122223,151.463409 357.161194,176.462585 357.093140,201.461426 
	C357.027252,225.660828 342.670074,244.590790 320.080994,250.452896 
	C315.375916,251.673904 310.584534,252.022964 305.730377,252.017929 
	C272.398407,251.983353 239.065796,251.882355 205.734482,252.036453 
	C175.862030,252.174561 151.700989,273.081909 147.340118,302.637177 
	C145.952484,312.041779 146.899414,321.611359 146.802353,331.105316 
	C146.727402,338.437592 146.673798,345.773865 146.843964,353.102966 
	C146.910553,355.971710 146.380295,357.217438 143.079681,357.197388 
	C117.581802,357.042206 92.069000,357.585480 66.588715,356.890167 
	C48.770145,356.403931 35.534443,347.152527 26.449402,331.414612 
z"/>
<path fill="#F9E4AC" opacity="1.000000" stroke="none" 
	d="
M336.435608,357.011169 
	C335.986938,350.087769 335.955078,343.256714 335.994446,336.426117 
	C336.027557,330.685303 337.619812,329.110596 343.501312,329.106842 
	C376.322754,329.085968 409.144196,329.108398 441.965637,329.088562 
	C455.287506,329.080505 462.100342,323.586578 465.113251,310.450836 
	C473.355988,274.514069 473.153290,238.579193 464.985596,202.663071 
	C462.441864,191.477203 456.619049,186.266113 445.185120,184.928452 
	C441.767456,184.528641 439.189209,183.009277 439.372772,179.411789 
	C439.565704,175.631714 442.503387,174.870804 445.878143,174.880096 
	C457.630676,174.912491 468.973785,183.005997 473.081696,194.891998 
	C477.178528,206.745880 478.670654,219.158325 479.945618,231.552536 
	C481.652771,248.148376 481.617767,264.772461 480.035919,281.395569 
	C478.868713,293.661713 477.051178,305.830292 473.759369,317.694336 
	C470.265594,330.286102 458.296967,339.024750 444.927032,339.057831 
	C413.771851,339.134888 382.615784,339.175690 351.461609,338.984161 
	C347.085236,338.957245 345.459106,340.016205 345.922150,344.504547 
	C346.313263,348.296082 346.001160,352.160187 345.998413,356.454834 
	C342.958832,356.979584 339.921051,357.041656 336.435608,357.011169 
z"/>
<path fill="#F8E4AD" opacity="1.000000" stroke="none" 
	d="
M345.536621,367.238892 
	C345.987915,382.938080 346.027161,398.547180 345.978302,414.156036 
	C345.963318,418.940216 342.862518,421.925140 339.488007,420.533722 
	C336.645538,419.361664 335.933777,416.994507 335.951447,414.052368 
	C336.043243,398.775879 336.012573,383.498718 336.015991,367.774780 
	C339.035187,367.268097 342.062897,367.208405 345.536621,367.238892 
z"/>
<path fill="#060503" opacity="1.000000" stroke="none" 
	d="
M317.355469,414.692749 
	C323.556396,423.012909 324.259888,431.481079 319.190918,440.136047 
	C314.670502,447.854340 306.002686,451.703766 296.954529,450.081665 
	C287.660980,448.415558 281.906097,442.650574 279.492188,433.663361 
	C277.039734,424.532501 281.457214,414.686066 289.903107,409.796661 
	C298.872955,404.603912 308.973907,406.319214 317.355469,414.692749 
z"/>
<path fill="#F9E4AC" opacity="1.000000" stroke="none" 
	d="
M336.015930,435.534515 
	C336.697754,431.554413 339.099884,430.472961 342.272461,431.101227 
	C345.251770,431.691254 345.946899,434.138519 345.984009,436.807007 
	C346.020966,439.461487 345.973175,442.117035 345.996918,444.771820 
	C346.027161,448.149933 344.270142,450.402527 341.050598,450.446564 
	C337.851349,450.490417 335.956268,448.373535 335.985901,444.933716 
	C336.011658,441.947021 335.994446,438.960022 336.015930,435.534515 
z"/>
<path fill="#C4E4FF" opacity="1.000000" stroke="none" 
	d="
M120.851654,291.903076 
	C130.478073,255.364365 153.815781,233.545853 190.002884,225.331848 
	C194.627991,224.281998 199.490356,223.921234 204.358170,223.937302 
	C238.512466,224.049881 272.667297,224.005554 306.821960,223.990799 
	C320.324707,223.984970 329.019135,215.325180 329.025177,201.835556 
	C329.044739,158.350845 329.038422,114.866127 329.029724,71.381416 
	C329.027283,59.298790 324.592377,53.112419 312.958221,49.203300 
	C310.582733,48.405117 308.634308,47.464104 308.116119,44.802753 
	C307.707062,42.701866 308.930603,41.353065 310.357574,40.108055 
	C311.610992,39.014477 312.996887,39.014587 314.567230,39.309517 
	C328.411774,41.909664 339.003448,54.510223 339.017883,68.752632 
	C339.063538,113.736763 339.071777,158.721024 339.014099,203.705124 
	C338.992767,220.372360 325.213287,233.958603 308.357513,233.985565 
	C273.869720,234.040741 239.381180,233.880142 204.894150,234.050079 
	C183.559067,234.155197 165.273254,242.248306 150.437042,257.334259 
	C137.816544,270.167175 130.620941,285.887939 129.018692,303.967590 
	C128.708038,307.473083 127.788826,310.318024 123.474174,310.004913 
	C119.428314,309.711365 118.668976,306.890228 119.038460,303.600403 
	C119.462875,299.821381 120.175163,296.074646 120.851654,291.903076 
z"/>
<path fill="#040506" opacity="1.000000" stroke="none" 
	d="
M209.604034,106.802155 
	C198.261612,103.561806 192.308899,96.791695 191.424057,86.531563 
	C190.703293,78.173836 195.614365,69.714630 203.466263,65.789146 
	C211.451660,61.796928 221.035675,63.057140 227.648804,68.968933 
	C234.496521,75.090431 236.821884,84.595589 233.548141,93.083099 
	C230.343613,101.391190 222.463608,106.877083 213.511902,107.004929 
	C212.349976,107.021530 211.186371,106.920181 209.604034,106.802155 
z"/>
<path fill="#C2E4FE" opacity="1.000000" stroke="none" 
	d="
M118.966980,324.562714 
	C119.396957,321.293945 121.411285,320.131378 123.882301,320.280334 
	C126.650002,320.447205 128.478271,322.389404 128.752640,325.098816 
	C129.066986,328.203003 129.209381,331.414612 128.755142,334.480103 
	C128.338348,337.293030 126.340370,339.198242 123.174095,338.971588 
	C120.121742,338.753113 118.945778,336.777313 118.943161,333.915558 
	C118.940445,330.942322 118.945190,327.969116 118.966980,324.562714 
z"/>
<path fill="#FBFBFB" opacity="1.000000" stroke="none" 
	d="
M307.824097,438.052185 
	C300.645294,441.945801 294.100555,440.568604 290.606476,434.719238 
	C287.369049,429.299500 288.935730,422.364807 294.176544,418.916229 
	C299.483917,415.423889 306.348785,416.622742 310.149017,421.705658 
	C313.833344,426.633514 313.115997,432.432343 307.824097,438.052185 
z"/>
<path fill="#F9F9F9" opacity="1.000000" stroke="none" 
	d="
M224.062225,89.732216 
	C220.023483,96.230064 215.024384,98.377228 209.372375,96.367203 
	C204.061508,94.478508 200.774704,89.288300 201.487167,83.915672 
	C202.412247,76.939842 208.555023,72.485489 215.457199,73.785484 
	C222.569214,75.124985 226.203339,81.616669 224.062225,89.732216 
z"/>
</svg>